<?xml version="1.0" encoding="UTF-8"?>
<!DOCTYPE svg  PUBLIC '-//W3C//DTD SVG 1.1//EN'  'http://www.w3.org/Graphics/SVG/1.1/DTD/svg11.dtd'>
<svg version="1.1" width="190px" height="191px" xmlns="http://www.w3.org/2000/svg">
<g transform="translate(.5 .5)" fill="none" pointer-events="none" stroke="#fff" stroke-width="5">
<ellipse cx="95" cy="92" rx="18" ry="18"/>
<path d="m2 105v-21l36-5 6-15-22-27 12-14 31 20 15-7 6-34h18l5 34 14 5 31-18 12 13-20 26 7 15 32 7v20l-31 3-8 18 20 27-14 13-28-19-14 5-7 35h-17l-5-36-15-6-26 25-16-14 22-30-7-16-37-4.33" stroke-miterlimit="10"/>
</g>
</svg>
