<?xml version="1.0" encoding="UTF-8"?>
<!DOCTYPE svg  PUBLIC '-//W3C//DTD SVG 1.1//EN'  'http://www.w3.org/Graphics/SVG/1.1/DTD/svg11.dtd'>
<svg version="1.1" viewBox="0 0 3006 2125" xmlns="http://www.w3.org/2000/svg">
<g transform="translate(.5 .5)" pointer-events="none" stroke="#000" stroke-width="5">
<rect x="2" y="2" width="3e3" height="2120" fill="none"/>
<rect x="854" y="954" width="233" height="387" fill="none"/>
<rect x="2017" y="280.5" width="160" height="120" rx="10.8" ry="10.8" fill="none"/>
<rect x="2027" y="290.5" width="140" height="100" fill="none"/>
<path d="m2097 430.5h-50q-10 0-3.75-7.81l11.5-14.38q6.25-7.81 16.25-7.81h52q10 0 16.25 7.81l11.5 14.38q6.25 7.81-3.75 7.81z" fill="none" stroke-miterlimit="10"/>
<path d="m2127.7 401" fill="none" stroke-miterlimit="10" stroke-opacity=".5"/>
<ellipse cx="2128" cy="401" rx=".5" ry=".5" fill-opacity=".5" stroke-opacity=".5"/>
<path d="m2127.7 401z" fill-opacity=".5" stroke-miterlimit="10" stroke-opacity=".5"/>
<rect x="2189.5" y="409.5" width="30" height="20" rx="3" ry="3" fill="none"/>
<rect x="1934.5" y="430.5" width="325" height="20" rx="3" ry="3" fill="none"/>
<rect x="1969.5" y="450.5" width="250" height="20" fill="none"/>
<rect x="1949.5" y="450.5" width="20" height="169" fill="none"/>
<rect x="2219.5" y="450.5" width="20" height="169" fill="none"/>
<rect x="2249.5" y="480.5" width="80" height="139" rx="12" ry="12" fill="none"/>
<ellipse cx="2314" cy="505" rx="5" ry="5" fill="none"/>
<rect x="2259.5" y="500.5" width="43" height="8" rx="1.2" ry="1.2" fill="none"/>
<ellipse cx="2289" cy="570" rx="10" ry="10" fill="none"/>
<rect x="2259.5" y="589.5" width="60" height="20" rx="3" ry="3" fill="none"/>
<rect x="2" y="620" width="3e3" height="61" fill="none"/>
<path d="m2204.3 421v-10" fill="none" stroke-miterlimit="10"/>
<rect x="230" y="511" width="150" height="109" fill="none"/>
<rect x="2" y="1341" width="3e3" height="61" fill="none"/>
<rect x="2" y="2060" width="3e3" height="61" fill="none"/>
<path transform="rotate(-90,306,490)" d="m285 450q42 0 42 40t-42 40z" fill="none" stroke-miterlimit="10"/>
<rect x="1316" y="451" width="229" height="169" rx="3.38" ry="3.38" fill="none"/>
<rect x="1326" y="460" width="209" height="30" fill="none"/>
<rect x="1326" y="500" width="209" height="30" fill="none"/>
<rect x="1326" y="540" width="209" height="30" fill="none"/>
<ellipse cx="1431" cy="475" rx="5.5" ry="5.5" fill="none"/>
<ellipse cx="1431" cy="515" rx="5.5" ry="5.5" fill="none"/>
<ellipse cx="1431" cy="556" rx="5.5" ry="5.5" fill="none"/>
<rect x="1326" y="580" width="209" height="30" fill="none"/>
<ellipse cx="1430" cy="595" rx="5.5" ry="5.5" fill="none"/>
<rect x="1555" y="451" width="229" height="169" rx="3.38" ry="3.38" fill="none"/>
<rect x="1565" y="501" width="100" height="110" fill="none"/>
<rect x="1675" y="501" width="100" height="110" fill="none"/>
<ellipse cx="1651" cy="535" rx="5.5" ry="5.5" fill="none"/>
<ellipse cx="1691" cy="536" rx="5.5" ry="5.5" fill="none"/>
<rect x="1566" y="460" width="209" height="31" fill="none"/>
<ellipse cx="1670" cy="476" rx="5.5" ry="5.5" fill="none"/>
<rect x="2065" y="1007" width="160" height="334" rx="11.2" ry="11.2" fill="none"/>
<rect x="2079" y="1186" width="40" height="10" rx="1.5" ry="1.5" fill="none"/>
<rect x="2240" y="1171" width="229" height="169" rx="3.38" ry="3.38" fill="none"/>
<rect x="2250" y="1201" width="209" height="30" fill="none"/>
<rect x="2479" y="1171" width="229" height="169" rx="3.38" ry="3.38" fill="none"/>
<rect x="2489" y="1181" width="100" height="150" fill="none"/>
<rect x="2599" y="1181" width="100" height="150" fill="none"/>
<ellipse cx="2575" cy="1254" rx="5.5" ry="5.5" fill="none"/>
<ellipse cx="2615" cy="1256" rx="5.5" ry="5.5" fill="none"/>
<rect x="2587" y="1151" width="13" height="20" fill="none"/>
<rect x="2570" y="1139" width="30" height="10" fill="none"/>
<rect x="2612" y="1160" width="10" height="10" rx="1.5" ry="1.5" fill="none"/>
<rect x="2564" y="1160" width="10" height="10" rx="1.5" ry="1.5" fill="none"/>
<rect x="2831" y="1031" width="104" height="310" rx="2.08" ry="2.08" fill="none"/>
<rect x="2840" y="1041" width="84" height="290" rx="1.68" ry="1.68" fill="none"/>
<ellipse cx="2860" cy="1192" rx="5.5" ry="5.5" fill="none"/>
<path transform="rotate(180,1883,576)" d="m1883 619h-28.5q-6.5 0-5.8-6.46l7.93-73.08q0.7-6.46 7.2-6.46h38.34q6.5 0 7.2 6.46l7.93 73.08q0.7 6.46-5.8 6.46z" fill="none" stroke-miterlimit="10"/>
<rect x="2432" y="510" width="440" height="110" rx="16.5" ry="16.5" fill="none"/>
<path d="m2800 510h-30q-10 0-4.66-8.45l3.33-5.28q3.33-5.27 12.78-8.53l71.1-24.48q9.45-3.26 9.45 6.74v30q0 10-10 10h-52" fill="none" stroke-miterlimit="10"/>
<rect x="2432" y="511" width="440" height="80" rx="14.4" ry="14.4" fill="none"/>
<rect x="2037" y="496" width="125" height="25" rx="3.75" ry="3.75" fill="none"/>
<path d="m2054.3 617.67l6.67-96.67" fill="none" stroke-miterlimit="10"/>
<path d="m2077.7 621l3.33-96.67" fill="none" stroke-miterlimit="10"/>
<path d="m2154.3 617.67l-13.33-96.67" fill="none" stroke-miterlimit="10"/>
<path d="m2127.7 621l-3.34-100" fill="none" stroke-miterlimit="10"/>
<rect x="1857" y="1885" width="283" height="30" fill="none"/>
<rect x="1884" y="1915" width="25" height="144" fill="none"/>
<rect x="2191" y="1890" width="229" height="169" rx="3.38" ry="3.38" fill="none"/>
<rect x="2201" y="1899" width="209" height="30" fill="none"/>
<rect x="2201" y="1939" width="209" height="30" fill="none"/>
<ellipse cx="2306" cy="1914" rx="5.5" ry="5.5" fill="none"/>
<ellipse cx="2306" cy="1954" rx="5.5" ry="5.5" fill="none"/>
<rect x="2201" y="1980" width="209" height="69" fill="none"/>
<ellipse cx="2305" cy="2015" rx="5.5" ry="5.5" fill="none"/>
<rect x="2084" y="1916" width="25" height="144" fill="none"/>
<path d="m2500 2033v-161" fill="none" stroke-miterlimit="10"/>
<path d="m2509 2032l-1-161" fill="none" stroke-miterlimit="10"/>
<rect x="2210" y="1787" width="209" height="21" rx="3.15" ry="3.15" fill="none"/>
<path d="m2354.5 1034h-107.5q-6 0-3.73-5.56l29.31-71.88q2.26-5.56 8.26-5.56h147.32q6 0 8.26 5.56l29.31 71.88q2.27 5.56-3.73 5.56z" fill="none" stroke-miterlimit="10"/>
<rect x="2280" y="1035" width="7" height="7" fill="none"/>
<rect x="2266" y="1035" width="7" height="7" fill="none"/>
<rect x="2244.5" y="1160" width="222" height="5" fill="none"/>
<rect x="2378" y="1119" width="52" height="38" fill="none"/>
<rect x="2282" y="1231" width="140" height="99" fill="none"/>
<rect x="2343.5" y="1180.5" width="22" height="10" fill="none"/>
<ellipse cx="2327" cy="1185" rx="5.5" ry="5.5" fill="none"/>
<ellipse cx="2382" cy="1185" rx="5.5" ry="5.5" fill="none"/>
<path d="m2305.4 1265.1h97.15" fill="none" stroke-miterlimit="10"/>
<path d="m2305 1300.1h97.15" fill="none" stroke-miterlimit="10"/>
<rect x="2243" y="1809" width="20" height="11" rx="1.65" ry="1.65" fill="none"/>
<rect x="2363" y="1809" width="20" height="11" rx="1.65" ry="1.65" fill="none"/>
<path d="m2278 1786.5h-19.5q-7.5 0-7.5-7.5v-39q0-7.5 6.56-11.14l40.88-22.72q6.56-3.64 6.56 3.86v69q0 7.5-7.5 7.5z" fill="none" stroke-miterlimit="10"/>
<rect x="2348" y="1761" width="50" height="25" rx="3.75" ry="3.75" fill="none"/>
<ellipse cx="2505" cy="2041" rx="12" ry="8" fill="none"/>
<path transform="rotate(90,2504.5,1839)" d="m2472 1809h35q30 0 30 30t-30 30h-35z" fill="none" stroke-miterlimit="10"/>
<ellipse cx="2492" cy="1880" rx="5" ry="5" fill="none"/>
<ellipse cx="2517" cy="1879" rx="5" ry="5" fill="none"/>
<path d="m2588 2032v-161" fill="none" stroke-miterlimit="10"/>
<path d="m2597 2031l-1-161" fill="none" stroke-miterlimit="10"/>
<ellipse cx="2593" cy="2040" rx="12" ry="8" fill="none"/>
<ellipse cx="2579" cy="1879" rx="5" ry="5" fill="none"/>
<ellipse cx="2605" cy="1878" rx="5" ry="5" fill="none"/>
<path d="m2569 1821v40q0 10 10 10h27q10 0 10-10v-40" fill="none" stroke-miterlimit="10"/>
<path d="m2585.5 1868.5v-48" fill="none" stroke-miterlimit="10"/>
<path d="m2601.5 1868.5v-48" fill="none" stroke-miterlimit="10"/>
<rect x="192" y="1900" width="311" height="160" rx="11.2" ry="11.2" fill="none"/>
<rect x="863" y="963" width="215" height="378" fill="none"/>
<rect x="879" y="1175" width="29" height="6" rx=".9" ry=".9" fill="none"/>
<ellipse cx="976" cy="1062" rx="51.5" ry="51.5" fill="none"/>
<path d="m1082.5 1085v-20" fill="none" stroke-miterlimit="10"/>
<path d="m1082.5 1251.5v-20" fill="none" stroke-miterlimit="10"/>
<rect x="2678.5" y="1672" width="233" height="387" fill="none"/>
<rect x="2687.5" y="1681" width="215" height="378" fill="none"/>
<rect x="2703.5" y="1893" width="29" height="6" fill="none"/>
<path d="m2907 1803v-20" fill="none" stroke-miterlimit="10"/>
<path d="m2907 1969.5v-20" fill="none" stroke-miterlimit="10"/>
<rect x="2728" y="1713" width="137" height="128" rx="7.68" ry="7.68" fill="none"/>
<path d="m2797.7 1841v-126.67" fill="none" stroke-miterlimit="10"/>
<path d="m2864.3 1777.7h-136.66" fill="none" stroke-miterlimit="10"/>
<rect x="677" y="379.5" width="310" height="21" rx="3.15" ry="3.15" fill="none"/>
<rect x="1390" y="380" width="310" height="21" rx="3.15" ry="3.15" fill="none"/>
<rect x="150" y="1125.5" width="310" height="21" rx="3.15" ry="3.15" fill="none"/>
<path d="m2389 1116.5l2.25-4.5q2.25-4.5 12.25-4.5h5.75q5.75 0 7.75 4.5l2 4.5" fill="none" stroke-miterlimit="10"/>
<path d="m2378 1116.5h52" fill="none" stroke-miterlimit="10"/>
<path transform="rotate(180,2029.5,2017)" d="m2029.5 2060h-28.5q-6.5 0-5.8-6.46l7.93-73.08q0.7-6.46 7.2-6.46h38.34q6.5 0 7.2 6.46l7.93 73.08q0.7 6.46-5.8 6.46z" fill="none" stroke-miterlimit="10"/>
<path d="m97 2060q0-86 97-81" fill="none" stroke-miterlimit="10"/>
<path d="m127 2060q-2-62 66-56" fill="none" stroke-miterlimit="10"/>
<path d="m581 2061q-11-66-76.67-60" fill="none" stroke-miterlimit="10"/>
<path d="m604.33 2061q-4.33-88-100-83.33" fill="none" stroke-miterlimit="10"/>
<rect x="1993.5" y="420.5" width="150" height="10" rx="1.5" ry="1.5" fill="none"/>
<ellipse cx="256" cy="531" rx="9.5" ry="9.5" fill="#f00"/>
<ellipse cx="356" cy="533" rx="9.5" ry="9.5" fill="#0f0"/>
<path d="m2000.4 417.35h135.3" fill="none" stroke-miterlimit="10"/>
</g>
</svg>
