<?xml version="1.0" encoding="UTF-8"?>
<!DOCTYPE svg  PUBLIC '-//W3C//DTD SVG 1.1//EN'  'http://www.w3.org/Graphics/SVG/1.1/DTD/svg11.dtd'>
<svg version="1.1" width="3006px" height="2125px" xmlns="http://www.w3.org/2000/svg">
<g transform="translate(.5 .5)" pointer-events="none" stroke="#fff" stroke-width="5">
<rect x="2.21" y="2" width="3e3" height="2120" fill="none"/>
<rect x="2024.5" y="316" width="145" height="103" rx="9.27" ry="9.27" fill="none"/>
<rect x="2034.5" y="326" width="125" height="83" fill="none"/>
<rect x="2" y="621" width="3e3" height="61" fill="none"/>
<rect x="230" y="512" width="150" height="109" fill="none"/>
<rect x="2" y="1342" width="3e3" height="61" fill="none"/>
<rect x="2" y="2061" width="3e3" height="61" fill="none"/>
<path transform="rotate(-90,306,491)" d="m285 451q42 0 42 40t-42 40z" fill="none" stroke-miterlimit="10"/>
<rect x="2432" y="511" width="440" height="110" rx="16.5" ry="16.5" fill="none"/>
<rect x="2432" y="512" width="440" height="80" rx="14.4" ry="14.4" fill="none"/>
<rect x="2037" y="497" width="125" height="25" rx="3.75" ry="3.75" fill="none"/>
<path d="m2054.4 620.29l7.14-98.58" fill="none" stroke-miterlimit="10"/>
<path d="m2078.7 621.71l1.43-97.14" fill="none" stroke-miterlimit="10"/>
<path d="m2153 620.29l-11.43-97.15" fill="none" stroke-miterlimit="10"/>
<path d="m2128.7 621.71l-4.28-100" fill="none" stroke-miterlimit="10"/>
<rect x="2210" y="1788" width="209" height="21" rx="3.15" ry="3.15" fill="none"/>
<rect x="2243" y="1810" width="20" height="11" rx="1.65" ry="1.65" fill="none"/>
<rect x="2363" y="1810" width="20" height="11" rx="1.65" ry="1.65" fill="none"/>
<path d="m2278 1787.5h-19.5q-7.5 0-7.5-7.5v-39q0-7.5 6.56-11.14l40.88-22.72q6.56-3.64 6.56 3.86v69q0 7.5-7.5 7.5z" fill="none" stroke-miterlimit="10"/>
<rect x="2348" y="1762" width="50" height="25" rx="3.75" ry="3.75" fill="none"/>
<rect x="192" y="1901" width="311" height="160" rx="11.2" ry="11.2" fill="none"/>
<path transform="rotate(180,2029.5,2018)" d="m2029.5 2061h-28.5q-6.5 0-5.8-6.46l7.93-73.08q0.7-6.46 7.2-6.46h38.34q6.5 0 7.2 6.46l7.93 73.08q0.7 6.46-5.8 6.46z" fill="none" stroke-miterlimit="10"/>
<rect x="2015" y="422" width="165" height="10" rx="5" ry="5" fill="none"/>
<ellipse cx="256" cy="532" rx="9.5" ry="9.5" fill="#f00"/>
<ellipse cx="356" cy="534" rx="9.5" ry="9.5" fill="#0f0"/>
<path d="m2806 512h-44q-10 0-10-10v-5q0-5 9.83-6.82l88.34-16.36q9.83-1.82 9.83 8.18v20q0 10-10 10z" fill="none" stroke-miterlimit="10"/>
<path d="m1125.2 1341.2q20.8-29.2 20.8-48.7t15-25 55 8.5" fill="none" stroke-miterlimit="10"/>
<path d="m1276 1293q21 9 36-1t31 0 16 50.67" fill="none" stroke-miterlimit="10"/>
</g>
</svg>
