<?xml version="1.0" encoding="UTF-8"?>
<!DOCTYPE svg  PUBLIC '-//W3C//DTD SVG 1.1//EN'  'http://www.w3.org/Graphics/SVG/1.1/DTD/svg11.dtd'>
<svg version="1.1" width="151px" height="126px" xmlns="http://www.w3.org/2000/svg">
<g transform="translate(.5 .5)" fill="none" pointer-events="none" stroke="#fff" stroke-miterlimit="10">
<path d="m97 2h-20q-10 0-17.07 7.07l-25.86 25.86q-7.07 7.07-7.07 17.07v60q0 10 10 10h100q10 0 10-10v-80q0-10-7.07-17.07l-6.47-6.47q-6.46-6.46-16.46-6.46h-20" stroke-width="5"/>
<path d="m116 27l13.93 13.93q7.07 7.07 7.07-1.93v-4.5q0-4.5-6.87-11.77l-5.06-5.37q-5.07-5.36-13.57-4.86l-4.25 0.25q-4.25 0.25 2.57 7.56l7.18 7.69" stroke-width="5"/>
<path d="m4 6.5q24-1 36 10" stroke-width="9"/>
<path d="m87 42q-20 40 0 40t0-40" stroke-linecap="round" stroke-linejoin="round" stroke-width="5"/>
<path transform="rotate(225.3 43 19)" d="m38 9q10 0 10 10t-10 10z" stroke-width="4"/>
</g>
</svg>
