<?xml version="1.0" encoding="UTF-8"?>
<!DOCTYPE svg  PUBLIC '-//W3C//DTD SVG 1.1//EN'  'http://www.w3.org/Graphics/SVG/1.1/DTD/svg11.dtd'>
<svg version="1.1" width="871px" height="879px" xmlns="http://www.w3.org/2000/svg">
<g transform="translate(.5 .5)" fill="none" pointer-events="none" stroke="#fff">
<path d="m5 5l67-0.44q10-0.06 17.07 7.01l705.86 705.86q7.07 7.07 17.07 7.15l53 0.42" stroke-miterlimit="10" stroke-width="10"/>
<rect x="38" y="143.5" width="30" height="10" rx="1.5" ry="1.5" stroke-width="5"/>
<rect x="38" y="4.5" width="30" height="20" rx="3" ry="3" stroke-width="5"/>
<path d="m46 144q-22-20.5-12-50.5t12-68.5" stroke-miterlimit="10" stroke-width="5"/>
<path d="m61 25q2 38.5 9.5 68.5t-9.5 50.5" stroke-miterlimit="10" stroke-width="5"/>
<rect x="799" y="863.5" width="30" height="10" rx="1.5" ry="1.5" stroke-width="5"/>
<rect x="799" y="724.5" width="30" height="20" rx="3" ry="3" stroke-width="5"/>
<path d="m807 864q-22-20.5-12-50.5t12-68.5" stroke-miterlimit="10" stroke-width="5"/>
<path d="m822 745q2 38.5 9.5 68.5t-9.5 50.5" stroke-miterlimit="10" stroke-width="5"/>
<path d="m762 874.5v-40h-40v-39.5" stroke-miterlimit="10" stroke-width="5"/>
</g>
</svg>
