<?xml version="1.0" encoding="UTF-8"?>
<!DOCTYPE svg  PUBLIC '-//W3C//DTD SVG 1.1//EN'  'http://www.w3.org/Graphics/SVG/1.1/DTD/svg11.dtd'>
<svg version="1.1" width="881px" height="879px" xmlns="http://www.w3.org/2000/svg">
<g transform="translate(.5 .5)" fill="none" pointer-events="none" stroke="#fff">
<path d="m765 874.5v-40h-40v-40h-40v-40h-40v-40h-40v-40h-40v-40h-40v-40h-40v-40h-40v-40h-40v-40h-40v-40h-40v-40h-40v-40h-40v-40h-40v-40h-40v-40h-40v-40h-40v-39.5" stroke-miterlimit="10" stroke-width="5"/>
<path d="m25 14.5v5q0 5-10 5h-5q-5 0-5-10v-5q0-5 10-5h60q10 0 17.07 7.07l705.86 705.86q7.07 7.07 17.07 7.07h50q10 0 10 10v5q0 5-10 5h-5q-5 0-5-5v-5" stroke-miterlimit="10" stroke-width="10"/>
<path d="m138 58.5v16q0 10 10 10h17" stroke-miterlimit="10" stroke-width="5"/>
<path d="m218 139.39v16q0 10 10 10h17" stroke-miterlimit="10" stroke-width="5"/>
<path d="m298 220.56v16q0 10 10 10h17" stroke-miterlimit="10" stroke-width="5"/>
<path d="m378 299.06v16q0 10 10 10h17" stroke-miterlimit="10" stroke-width="5"/>
<path d="m458 380.06v16q0 10 10 10h17" stroke-miterlimit="10" stroke-width="5"/>
<path d="m538 460.06v16q0 10 10 10h17" stroke-miterlimit="10" stroke-width="5"/>
<path d="m618 540.06v16q0 10 10 10h17" stroke-miterlimit="10" stroke-width="5"/>
<path d="m698 620.06v16q0 10 10 10h17" stroke-miterlimit="10" stroke-width="5"/>
<rect x="135" y="222.5" width="30" height="10" rx="1.5" ry="1.5" stroke-width="5"/>
<path d="m157 84.5q3 58 10.5 88t-9.5 50.5" stroke-miterlimit="10" stroke-width="5"/>
<path d="m143 223q-22-20.5-12-50.5t14-88" stroke-miterlimit="10" stroke-width="5"/>
<rect x="41" y="143.5" width="30" height="10" rx="1.5" ry="1.5" stroke-width="5"/>
<rect x="41" y="4.5" width="30" height="20" rx="3" ry="3" stroke-width="5"/>
<path d="m49 144q-22-20.5-12-50.5t12-68.5" stroke-miterlimit="10" stroke-width="5"/>
<path d="m64 25q2 38.5 9.5 68.5t-9.5 50.5" stroke-miterlimit="10" stroke-width="5"/>
<rect x="215" y="303.39" width="30" height="10" rx="1.5" ry="1.5" stroke-width="5"/>
<path d="m237 165.39q3 58 10.5 88t-9.5 49.61" stroke-miterlimit="10" stroke-width="5"/>
<path d="m223 303q-22-19.61-12-49.61t14-88" stroke-miterlimit="10" stroke-width="5"/>
<rect x="295" y="384.56" width="30" height="10" rx="1.5" ry="1.5" stroke-width="5"/>
<path d="m317 246.56q3 58 10.5 88t-9.5 50.44" stroke-miterlimit="10" stroke-width="5"/>
<path d="m303 385q-22-20.44-12-50.44t14-88" stroke-miterlimit="10" stroke-width="5"/>
<rect x="375" y="463.06" width="30" height="10" rx="1.5" ry="1.5" stroke-width="5"/>
<path d="m397 325.06q3 58 10.5 88t-9.5 49.94" stroke-miterlimit="10" stroke-width="5"/>
<path d="m383 463q-22-19.94-12-49.94t14-88" stroke-miterlimit="10" stroke-width="5"/>
<rect x="455" y="544.06" width="30" height="10" rx="1.5" ry="1.5" stroke-width="5"/>
<path d="m477 406.06q3 58 10.5 88t-9.5 49.94" stroke-miterlimit="10" stroke-width="5"/>
<path d="m463 544q-22-19.94-12-49.94t14-88" stroke-miterlimit="10" stroke-width="5"/>
<rect x="535" y="624.06" width="30" height="10" rx="1.5" ry="1.5" stroke-width="5"/>
<path d="m557 486.06q3 58 10.5 88t-9.5 49.94" stroke-miterlimit="10" stroke-width="5"/>
<path d="m543 624q-22-19.94-12-49.94t14-88" stroke-miterlimit="10" stroke-width="5"/>
<rect x="615" y="704.06" width="30" height="10" rx="1.5" ry="1.5" stroke-width="5"/>
<path d="m637 566.06q3 58 10.5 88t-9.5 49.94" stroke-miterlimit="10" stroke-width="5"/>
<path d="m623 704q-22-19.94-12-49.94t14-88" stroke-miterlimit="10" stroke-width="5"/>
<rect x="695" y="784.06" width="30" height="10" rx="1.5" ry="1.5" stroke-width="5"/>
<path d="m717 646.06q3 58 10.5 88t-9.5 49.94" stroke-miterlimit="10" stroke-width="5"/>
<path d="m703 784q-22-19.94-12-49.94t14-88" stroke-miterlimit="10" stroke-width="5"/>
<rect x="802" y="863.5" width="30" height="10" rx="1.5" ry="1.5" stroke-width="5"/>
<rect x="802" y="724.5" width="30" height="20" rx="3" ry="3" stroke-width="5"/>
<path d="m810 864q-22-20.5-12-50.5t12-68.5" stroke-miterlimit="10" stroke-width="5"/>
<path d="m825 745q2 38.5 9.5 68.5t-9.5 50.5" stroke-miterlimit="10" stroke-width="5"/>
</g>
</svg>
