<?xml version="1.0" encoding="UTF-8"?>
<!DOCTYPE svg  PUBLIC '-//W3C//DTD SVG 1.1//EN'  'http://www.w3.org/Graphics/SVG/1.1/DTD/svg11.dtd'>
<svg version="1.1" width="882px" height="879px" xmlns="http://www.w3.org/2000/svg">
<g transform="translate(.5 .5)" fill="none" pointer-events="none" stroke="#fff">
<path d="m765 874.5v-40h-40v-40h-40v-40h-40v-40h-40v-40h-40v-40h-40v-40h-40v-40h-40v-40h-40v-40h-40v-40h-40v-40h-40v-40h-40v-40h-40v-40h-40v-40h-40v-40h-40v-39.5" stroke-miterlimit="10" stroke-width="5"/>
<path d="m25 14.5v5q0 5-10 5h-5q-5 0-5-10v-5q0-5 10-5h60q10 0 17.07 7.07l705.86 705.86q7.07 7.07 17.07 7.07h50q10 0 10 10v5q0 5-10 5h-5q-5 0-5-5v-5" stroke-miterlimit="10" stroke-width="10"/>
<path d="m138 58.5v16q0 10 10 10h17" stroke-miterlimit="10" stroke-width="5"/>
<path d="m218 139.39v16q0 10 10 10h17" stroke-miterlimit="10" stroke-width="5"/>
<path d="m298 220.56v16q0 10 10 10h17" stroke-miterlimit="10" stroke-width="5"/>
<path d="m378 299.06v16q0 10 10 10h17" stroke-miterlimit="10" stroke-width="5"/>
<path d="m458 380.06v16q0 10 10 10h17" stroke-miterlimit="10" stroke-width="5"/>
<path d="m538 460.06v16q0 10 10 10h17" stroke-miterlimit="10" stroke-width="5"/>
<path d="m618 540.06v16q0 10 10 10h17" stroke-miterlimit="10" stroke-width="5"/>
<path d="m698 620.06v16q0 10 10 10h17" stroke-miterlimit="10" stroke-width="5"/>
<rect x="135" y="222.5" width="30" height="10" rx="1.5" ry="1.5" stroke-width="5"/>
<path d="m157 84.5q3 58 10.5 88t-10.44 50.38" stroke-miterlimit="10" stroke-width="5"/>
<path d="m142.94 222.88q-21.94-20.38-11.94-50.38t14-88" stroke-miterlimit="10" stroke-width="5"/>
<rect x="41" y="143.5" width="30" height="10" rx="1.5" ry="1.5" stroke-width="5"/>
<rect x="41" y="4.5" width="30" height="20" rx="3" ry="3" stroke-width="5"/>
<path d="m48.82 144.06q-21.82-20.56-11.82-50.56t11.82-69.44" stroke-miterlimit="10" stroke-width="5"/>
<path d="m62.94 24.06q3.06 39.44 10.56 69.44t-10.56 50.56" stroke-miterlimit="10" stroke-width="5"/>
<rect x="215" y="303.39" width="30" height="10" rx="1.5" ry="1.5" stroke-width="5"/>
<path d="m237 165.39q3 58 10.5 88t-10.44 49.49" stroke-miterlimit="10" stroke-width="5"/>
<path d="m222.94 302.88q-21.94-19.49-11.94-49.49t14-88" stroke-miterlimit="10" stroke-width="5"/>
<rect x="295" y="384.56" width="30" height="10" rx="1.5" ry="1.5" stroke-width="5"/>
<path d="m317 246.56q3 58 10.5 88t-10.44 49.5" stroke-miterlimit="10" stroke-width="5"/>
<path d="m302.94 384.06q-21.94-19.5-11.94-49.5t14-88" stroke-miterlimit="10" stroke-width="5"/>
<rect x="375" y="463.06" width="30" height="10" rx="1.5" ry="1.5" stroke-width="5"/>
<path d="m397 325.06q3 58 10.5 88t-10.44 49.82" stroke-miterlimit="10" stroke-width="5"/>
<path d="m382.94 462.88q-21.94-19.82-11.94-49.82t14-88" stroke-miterlimit="10" stroke-width="5"/>
<rect x="455" y="544.06" width="30" height="10" rx="1.5" ry="1.5" stroke-width="5"/>
<path d="m477 406.06q3 58 10.5 88t-10.44 50" stroke-miterlimit="10" stroke-width="5"/>
<path d="m462.94 544.06q-21.94-20-11.94-50t14-88" stroke-miterlimit="10" stroke-width="5"/>
<rect x="535" y="624.06" width="30" height="10" rx="1.5" ry="1.5" stroke-width="5"/>
<path d="m557 486.06q3 58 10.5 88t-10.44 50" stroke-miterlimit="10" stroke-width="5"/>
<path d="m542.94 624.06q-21.94-20-11.94-50t14-88" stroke-miterlimit="10" stroke-width="5"/>
<rect x="615" y="704.06" width="30" height="10" rx="1.5" ry="1.5" stroke-width="5"/>
<path d="m637 566.06q3 58 10.5 88t-10.44 50" stroke-miterlimit="10" stroke-width="5"/>
<path d="m622.94 704.06q-21.94-20-11.94-50t14-88" stroke-miterlimit="10" stroke-width="5"/>
<rect x="695" y="784.06" width="30" height="10" rx="1.5" ry="1.5" stroke-width="5"/>
<path d="m717 646.06q3 58 10.5 88t-10.44 50" stroke-miterlimit="10" stroke-width="5"/>
<path d="m702.94 784.06q-21.94-20-11.94-50t14-88" stroke-miterlimit="10" stroke-width="5"/>
<rect x="802" y="863.5" width="30" height="10" rx="1.5" ry="1.5" stroke-width="5"/>
<rect x="802" y="724.5" width="30" height="20" rx="3" ry="3" stroke-width="5"/>
<path d="m810 864.06q-22-20.56-12-50.56t12-69.44" stroke-miterlimit="10" stroke-width="5"/>
<path d="m824.12 744.06q2.88 39.44 10.38 69.44t-10.38 50.56" stroke-miterlimit="10" stroke-width="5"/>
</g>
</svg>
