<!DOCTYPE svg PUBLIC "-//W3C//DTD SVG 1.1//EN" "http://www.w3.org/Graphics/SVG/1.1/DTD/svg11.dtd">
<svg xmlns="http://www.w3.org/2000/svg" xmlns:xlink="http://www.w3.org/1999/xlink" width="95px" height="227px" version="1.1"><defs/><g transform="translate(0.5,0.5)"><path d="M 75 21 Q 55 1 40 6 Q 25 11 25 116 Q 25 221 45 221 Q 65 221 65 191 Q 65 161 75 136 Q 85 111 85 81 Q 85 51 75 21" fill="none" stroke="#ffe0bd" stroke-width="10" stroke-linejoin="round" stroke-linecap="round" stroke-miterlimit="10" pointer-events="none"/><path d="M 45 201 L 44.39 201 L 44.88 191 L 44.4 181 L 45.67 171 L 44.95 161 L 45.68 151 L 44.92 141 L 44.34 131 L 45 121 Q 45 111 45 101 L 44.64 101 L 45.36 91 L 44.95 81 L 45.49 71 L 45.54 61 L 45.01 51 L 44.8 41 L 45.04 31 L 45 21" fill="none" stroke="#ffe0bd" stroke-width="34" stroke-linejoin="round" stroke-linecap="round" stroke-miterlimit="10" pointer-events="none"/><path d="M 51 161 L 51.57 161.11 L 52.84 150.95 L 55.61 141.08 L 57.7 131.07 L 58.82 120.88 L 61.07 110.9 L 63.6 100.98 L 64.6 90.76 L 66.86 80.79 L 69.04 70.81 Q 71 61 66.53 52.06 L 66.73 52.16 L 63.38 45.82 L 60.38 39.66 L 57.01 33.32 L 54.19 27.25 L 51 21" fill="none" stroke="#ffe0bd" stroke-width="34" stroke-linejoin="round" stroke-linecap="round" stroke-miterlimit="10" pointer-events="none"/><path d="M 47 203 L 46.88 203 L 46.99 201 L 47.23 199 L 47.01 197 L 47.03 195 L 47 193" fill="none" stroke="#6c8ebf" stroke-width="45" stroke-linejoin="round" stroke-linecap="round" stroke-miterlimit="10" pointer-events="none"/><path d="M 22 175 L 37.07 173.19 Q 47 172 56.92 173.24 L 71 175" fill="none" stroke="#6c8ebf" stroke-width="45" stroke-miterlimit="10" pointer-events="none"/><path d="M 20 158 L 37.06 156.1 Q 47 155 56.93 156.15 L 73 158" fill="none" stroke="#455b7a" stroke-width="8" stroke-miterlimit="10" pointer-events="none"/></g></svg>