<!DOCTYPE svg PUBLIC "-//W3C//DTD SVG 1.1//EN" "http://www.w3.org/Graphics/SVG/1.1/DTD/svg11.dtd">
<svg xmlns="http://www.w3.org/2000/svg" xmlns:xlink="http://www.w3.org/1999/xlink" width="70px" height="226px" version="1.1"><defs/><g transform="translate(0.5,0.5)"><path d="M 55 21 Q 35 1 20 6 Q 5 11 5 116 Q 5 221 25 221 Q 45 221 45 191 Q 45 161 55 136 Q 65 111 65 81 Q 65 51 55 21" fill="none" stroke="#ffe0bd" stroke-width="10" stroke-linejoin="round" stroke-linecap="round" stroke-miterlimit="10" pointer-events="none"/><path d="M 25 201 L 25.52 201 L 25.06 191 L 25 181 L 25.75 171 L 25.04 161 L 24.68 151 L 24.96 141 L 25.06 131 L 25 121 Q 25 111 25 101 L 25.56 101 L 24.93 91 L 24.64 81 L 24.49 71 L 25.09 61 L 25.22 51 L 25.31 41 L 25.03 31 L 25 21" fill="none" stroke="#ffe0bd" stroke-width="34" stroke-linejoin="round" stroke-linecap="round" stroke-miterlimit="10" pointer-events="none"/><path d="M 31 161 L 30.5 160.9 L 32.47 150.87 L 34.99 140.95 L 36.9 130.91 L 38.7 120.85 L 41.38 110.96 L 43.32 100.93 L 45.48 90.94 L 46.8 80.78 L 49.04 70.81 Q 51 61 46.53 52.06 L 46.52 52.05 L 43.41 45.84 L 40.3 39.62 L 37.15 33.39 L 34.25 27.28 L 31 21" fill="none" stroke="#ffe0bd" stroke-width="34" stroke-linejoin="round" stroke-linecap="round" stroke-miterlimit="10" pointer-events="none"/></g></svg>