<!DOCTYPE svg PUBLIC "-//W3C//DTD SVG 1.1//EN" "http://www.w3.org/Graphics/SVG/1.1/DTD/svg11.dtd">
<svg xmlns="http://www.w3.org/2000/svg" xmlns:xlink="http://www.w3.org/1999/xlink" width="421px" height="160px" version="1.1"><defs/><g transform="translate(0.5,0.5)"><path d="M 399 31 L 398.9 30.9 L 394.9 34.9 L 390.9 38.9 L 386.92 42.92 L 383.15 47.15 L 379 51" fill="none" stroke="#854300" stroke-width="30" stroke-linejoin="round" stroke-linecap="round" stroke-miterlimit="10" pointer-events="none"/><path d="M 50 91 L 50.06 91.12 L 58.79 95.82 L 66.78 99.02 L 75.32 103.36 L 83.95 107.85 L 92.62 112.42 L 101.06 116.53 Q 110 121 119.99 120.57 L 119.98 120.22 L 130 120.41 L 140 119.85 L 149.98 118.86 L 160.02 119.37 L 169.97 117.86 L 179.98 117.57 L 189.99 117.26 L 199.98 116.78 L 210.03 117.28 L 219.98 115.83 L 229.99 115.61 L 239.98 114.92 L 250.03 115.59 L 259.99 114.15 L 270 113.88 L 280.01 113.67 L 290 113.1 L 300 112.62 L 310.04 112.99 L 320 111.79 L 330.01 111.43 Q 340 111 347.07 103.93 L 347.04 103.9 L 350.07 100.59 L 353.25 97.42 L 356.67 94.5 L 359.79 91.28 L 362.93 88.07 Q 370 81 373.16 71.51 L 373.1 71.49 L 373.82 69.28 L 374.86 67.18 L 375.6 64.98 L 375.96 62.65 L 376.84 60.49 Q 380 51 370.14 52.64 L 370.15 52.71 L 362.1 54.09 L 354.05 55.44 L 345.94 56.49 L 337.88 57.78 L 329.86 59.36 Q 320 61 311.68 55.45 L 311.77 55.59 L 309.04 53.73 L 306.46 52.08 L 303.58 49.98 L 301.01 48.36 L 298.32 46.55 Q 290 41 281.43 46.14 L 281.39 46.09 L 274.94 50.22 L 268.17 53.83 L 261.81 58.13 L 255.21 62.02 L 248.57 65.86 Q 240 71 230.38 73.75 L 230.46 74.02 L 220.16 76.4 L 210.27 80.24 L 199.99 82.7 L 189.95 85.98 L 179.62 88.25 Q 170 91 160 91 L 160 91.4 L 150 90.89 L 140 91.57 L 130 91.29 L 120 90.65 L 110 91.04 L 100 90.54 L 90 91" fill="none" stroke="#854300" stroke-width="73" stroke-linejoin="round" stroke-linecap="round" stroke-miterlimit="10" pointer-events="none"/><path d="M 410 11 Q 350 31 315 16 Q 280 1 270 6 Q 260 11 220 36 Q 180 61 90 56 Q 0 51 20 101 Q 40 151 140 151 Q 240 151 330 146 Q 420 141 410 11" fill="none" stroke="#5e3000" stroke-width="11" stroke-linejoin="round" stroke-linecap="round" stroke-miterlimit="10" pointer-events="none"/><path d="M 120 83 Q 110 63 80 53" fill="none" stroke="#000000" stroke-width="20" stroke-linejoin="round" stroke-linecap="round" stroke-miterlimit="10" pointer-events="none"/><path d="M 239 70 Q 226 51 196 41" fill="none" stroke="#000000" stroke-width="20" stroke-linejoin="round" stroke-linecap="round" stroke-miterlimit="10" pointer-events="none"/><path d="M 178 80 Q 168 60 138 50" fill="none" stroke="#000000" stroke-width="20" stroke-linejoin="round" stroke-linecap="round" stroke-miterlimit="10" pointer-events="none"/></g></svg>