<!DOCTYPE svg PUBLIC "-//W3C//DTD SVG 1.1//EN" "http://www.w3.org/Graphics/SVG/1.1/DTD/svg11.dtd">
<svg xmlns="http://www.w3.org/2000/svg" xmlns:xlink="http://www.w3.org/1999/xlink" width="190px" height="190px" version="1.1"><defs/><g transform="translate(0.5,0.5)"><ellipse cx="95" cy="91" rx="18" ry="18" fill="none" stroke="#ffffff" stroke-width="5" pointer-events="none"/><path d="M 36 21.57 L 65 41 L 80 34 L 84 2.71" fill="none" stroke="#ffffff" stroke-width="5" stroke-miterlimit="10" pointer-events="none"/><path d="M 163.43 36.43 L 147 62 L 153 78 L 182.86 83.29" fill="none" stroke="#ffffff" stroke-width="5" stroke-miterlimit="10" pointer-events="none"/><path d="M 183.43 99.86 L 153 106 L 148 120 L 162.29 150.71" fill="none" stroke="#ffffff" stroke-width="5" stroke-miterlimit="10" pointer-events="none"/><path d="M 150.86 163.29 L 123 145 L 109 150 L 103 183" fill="none" stroke="#ffffff" stroke-width="5" stroke-miterlimit="10" pointer-events="none"/><path d="M 22.86 149.57 L 45 122 L 38 108 L 3.43 102.14" fill="none" stroke="#ffffff" stroke-width="5" stroke-miterlimit="10" pointer-events="none"/><path d="M 102.86 2.14 L 109 34 L 125 41 L 149.71 22.71" fill="none" stroke="#ffffff" stroke-width="5" stroke-miterlimit="10" pointer-events="none"/><path d="M 36 19 L 19 37 L 45 62 L 38 78 L 3.43 82.14" fill="none" stroke="#ffffff" stroke-width="5" stroke-miterlimit="10" pointer-events="none"/><path d="M 85.14 183.29 L 80 149 L 65 143 L 36.57 162.14" fill="none" stroke="#ffffff" stroke-width="5" stroke-miterlimit="10" pointer-events="none"/><path d="M 82 2 L 105 2" fill="none" stroke="#ffffff" stroke-width="5" stroke-miterlimit="10" pointer-events="none"/><path d="M 2 104 L 2 80" fill="none" stroke="#ffffff" stroke-width="5" stroke-miterlimit="10" pointer-events="none"/><path d="M 37 165 L 21 148" fill="none" stroke="#ffffff" stroke-width="5" stroke-miterlimit="10" pointer-events="none"/><path d="M 106 185 L 83 185" fill="none" stroke="#ffffff" stroke-width="5" stroke-miterlimit="10" pointer-events="none"/><path d="M 165 150 L 149 165" fill="none" stroke="#ffffff" stroke-width="5" stroke-miterlimit="10" pointer-events="none"/><path d="M 185 81 L 185 102" fill="none" stroke="#ffffff" stroke-width="5" stroke-miterlimit="10" pointer-events="none"/><path d="M 149 20 L 167 37" fill="none" stroke="#ffffff" stroke-width="5" stroke-miterlimit="10" pointer-events="none"/></g></svg>