<!DOCTYPE svg PUBLIC "-//W3C//DTD SVG 1.1//EN" "http://www.w3.org/Graphics/SVG/1.1/DTD/svg11.dtd">
<svg xmlns="http://www.w3.org/2000/svg" xmlns:xlink="http://www.w3.org/1999/xlink" width="190px" height="191px" version="1.1"><defs/><g transform="translate(0.5,0.5)"><ellipse cx="95" cy="92" rx="18" ry="18" fill="none" stroke="#ffffff" stroke-width="5" pointer-events="none"/><path d="M 2 105 L 2 84 L 38 79 L 44 64 L 22 37 L 34 23 L 65 43 L 80 36 L 86 2 L 104 2 L 109 36 L 123 41 L 154 23 L 166 36 L 146 62 L 153 77 L 185 84 L 185 104 L 154 107 L 146 125 L 166 152 L 152 165 L 124 146 L 110 151 L 103 186 L 86 186 L 81 150 L 66 144 L 40 169 L 24 155 L 46 125 L 39 109 L 2 104.67" fill="none" stroke="#ffffff" stroke-width="5" stroke-miterlimit="10" pointer-events="none"/></g></svg>