<!DOCTYPE svg PUBLIC "-//W3C//DTD SVG 1.1//EN" "http://www.w3.org/Graphics/SVG/1.1/DTD/svg11.dtd">
<svg xmlns="http://www.w3.org/2000/svg" xmlns:xlink="http://www.w3.org/1999/xlink" width="3664px" height="2883px" version="1.1"><defs/><g transform="translate(0.5,0.5)"><path d="M 1952 417 L 1944.77 399.26 Q 1941 390 1937.06 399.19 L 1929 418" fill="none" stroke="#000000" stroke-width="3" stroke-miterlimit="10" pointer-events="none"/><rect x="3" y="1" width="3658" height="2880" fill="none" stroke="#000000" stroke-width="3" pointer-events="none"/><rect x="2201" y="351" width="240" height="219" rx="8.76" ry="8.76" fill="none" stroke="#703900" stroke-width="3" pointer-events="none"/><rect x="2211" y="361" width="220" height="199" fill="none" stroke="#703900" stroke-width="3" pointer-events="none"/><rect x="2921" y="410" width="160" height="120" rx="10.8" ry="10.8" fill="none" stroke="#000000" stroke-width="3" pointer-events="none"/><rect x="2931" y="420" width="140" height="100" fill="none" stroke="#000000" stroke-width="3" pointer-events="none"/><path d="M 3001 560 L 2951 560 Q 2941 560 2947.25 552.19 L 2958.75 537.81 Q 2965 530 2975 530 L 3027 530 Q 3037 530 3043.25 537.81 L 3054.75 552.19 Q 3061 560 3051 560 Z" fill="none" stroke="#000000" stroke-width="3" stroke-miterlimit="10" pointer-events="none"/><path d="M 3032 532 Q 3032 532 3032 532" fill="none" stroke="#ff0000" stroke-opacity="0.5" stroke-width="3" stroke-miterlimit="10" pointer-events="none"/><ellipse cx="3032" cy="532" rx="0.5" ry="0.5" fill-opacity="0.5" fill="#ff0000" stroke="#ff0000" stroke-opacity="0.5" stroke-width="3" pointer-events="none"/><path d="M 3032 532 L 3032 532 L 3032 532 L 3032 532 Z" fill-opacity="0.5" fill="#ff0000" stroke="#ff0000" stroke-opacity="0.5" stroke-width="3" stroke-miterlimit="10" pointer-events="none"/><rect x="2886" y="550" width="150" height="10" rx="1.5" ry="1.5" fill="none" stroke="#000000" stroke-width="3" pointer-events="none"/><rect x="2896" y="545" width="10" height="5" fill="none" stroke="#000000" stroke-width="3" pointer-events="none"/><rect x="2911" y="545" width="10" height="5" fill="none" stroke="#000000" stroke-width="3" pointer-events="none"/><rect x="2926" y="545" width="10" height="5" fill="none" stroke="#000000" stroke-width="3" pointer-events="none"/><rect x="2941" y="545" width="10" height="5" fill="none" stroke="#000000" stroke-width="3" pointer-events="none"/><rect x="2956" y="545" width="10" height="5" fill="none" stroke="#000000" stroke-width="3" pointer-events="none"/><rect x="2971" y="545" width="10" height="5" fill="none" stroke="#000000" stroke-width="3" pointer-events="none"/><rect x="2986" y="545" width="10" height="5" fill="none" stroke="#000000" stroke-width="3" pointer-events="none"/><rect x="3001" y="545" width="10" height="5" fill="none" stroke="#000000" stroke-width="3" pointer-events="none"/><rect x="3016" y="545" width="10" height="5" fill="none" stroke="#000000" stroke-width="3" pointer-events="none"/><rect x="3090" y="540" width="30" height="20" rx="3" ry="3" fill="none" stroke="#000000" stroke-width="3" pointer-events="none"/><rect x="2801" y="560" width="420" height="20" rx="3" ry="3" fill="none" stroke="#703900" stroke-width="3" pointer-events="none"/><rect x="2841" y="580" width="340" height="20" fill="none" stroke="#703900" stroke-width="3" pointer-events="none"/><rect x="2821" y="580" width="20" height="230" fill="none" stroke="#613100" stroke-width="3" pointer-events="none"/><rect x="3181" y="580" width="20" height="230" fill="none" stroke="#703900" stroke-width="3" pointer-events="none"/><rect x="3221" y="670" width="80" height="140" rx="12" ry="12" fill="none" stroke="#000000" stroke-width="3" pointer-events="none"/><ellipse cx="3286" cy="695" rx="5" ry="5" fill="none" stroke="#000000" stroke-width="3" pointer-events="none"/><rect x="3231" y="691" width="43" height="8" rx="1.2" ry="1.2" fill="none" stroke="#000000" stroke-width="3" pointer-events="none"/><ellipse cx="3261" cy="760" rx="10" ry="10" fill="none" stroke="#000000" stroke-width="3" pointer-events="none"/><rect x="3231" y="780" width="60" height="20" rx="3" ry="3" fill="none" stroke="#000000" stroke-width="3" pointer-events="none"/><rect x="1" y="810" width="3660" height="61" fill="none" stroke="#000000" stroke-width="3" pointer-events="none"/><path d="M 3105 548 L 3107 542" fill="none" stroke="#000000" stroke-width="3" stroke-miterlimit="10" pointer-events="none"/><rect x="861" y="701" width="150" height="109" fill="none" stroke="#000000" stroke-width="3" pointer-events="none"/><path d="M 2356.71 1610.93 L 2356 1530.5 L 2276 1530.5 L 2276 1450.5 L 2196 1450.5 L 2196 1370.5 L 2116 1370.5 L 2116 1290.5 L 2036 1290.5 L 2036 1210.5 L 1956 1210.5 L 1956 1130.5 L 1876 1130.5 L 1876 1090.5 L 1876 1050.5 L 1836 1050.5 L 1796 1050.5 L 1796 1010.5 L 1796 970.5 L 1756 970.5 L 1716 970.5 L 1716 930.5 L 1716 890.5 L 1676 890.5 L 1625 890.5 L 1625 850.5 L 1625.29 809.5" fill="none" stroke="#000000" stroke-width="3" stroke-miterlimit="10" pointer-events="none"/><rect x="1" y="1611" width="3660" height="61" fill="none" stroke="#000000" stroke-width="3" pointer-events="none"/><rect x="1" y="2412" width="3660" height="61" fill="none" stroke="#000000" stroke-width="3" pointer-events="none"/><path d="M 1071 1610 L 1072 1652 L 1072 1692 L 1123 1692 L 1163 1692 L 1163 1732 L 1163 1772 L 1203 1772 L 1243 1772 L 1243 1812 L 1243 1852 L 1283 1852 L 1323 1852 L 1323 1892 L 1323 1932 L 1363 1932 L 1403 1932 L 1403 2012 L 1483 2012 L 1483 2092 L 1563 2092 L 1563 2172 L 1643 2172 L 1643 2252 L 1723 2252 L 1723 2332 L 1803 2332 L 1803 2412" fill="none" stroke="#000000" stroke-width="3" stroke-miterlimit="10" pointer-events="none"/><path d="M 2001 462 L 2007.84 482.51 Q 2011 492 2007.84 501.49 L 2004.16 512.51 Q 2001 522 2004.85 531.23 L 2007.92 538.62 Q 2011 546 2006 554 L 2003.5 558 Q 2001 562 1991.51 558.84 L 1980.49 555.16 Q 1971 552 1961.51 555.16 L 1950.49 558.84 Q 1941 562 1931.51 558.84 L 1920.49 555.16 Q 1911 552 1901.51 555.16 L 1890.49 558.84 Q 1881 562 1876 554 L 1873.5 550 Q 1871 546 1874.85 536.77 L 1877.92 529.38 Q 1881 522 1878.57 512.3 L 1873.43 491.7 Q 1871 482 1874.16 472.51 L 1877.84 461.49 Q 1881 452 1876.53 443.06 L 1873.76 437.53 Q 1871 432 1876 427 L 1878.5 424.5 Q 1881 422 1890.91 423.32 L 1901.09 424.68 Q 1911 426 1920.06 421.77 L 1931.94 416.23 Q 1941 412 1950.06 416.23 L 1961.94 421.77 Q 1971 426 1980.91 424.68 L 1991.09 423.32 Q 2001 422 2006 427 L 2008.5 429.5 Q 2011 432 2007.84 441.49 L 2004.16 452.51 Q 2001 462 2001 462 L 2001 462" fill="none" stroke="#c9aa00" stroke-width="3" stroke-miterlimit="10" pointer-events="none"/><rect x="1891" y="436" width="100" height="106" rx="10" ry="10" fill="none" stroke="#c9aa00" stroke-width="3" pointer-events="none"/><ellipse cx="1941" cy="397" rx="1.5000000000000002" ry="1.5000000000000002" fill="none" stroke="#000000" stroke-width="3" pointer-events="none"/><path d="M 1917.5 452 L 1922.5 452 Q 1927.5 452 1932.5 457 L 1935 459.5 Q 1937.5 462 1942.5 457 L 1945 454.5 Q 1947.5 452 1952.5 452 L 1957.5 452" fill="none" stroke="#000000" stroke-width="3" stroke-miterlimit="10" pointer-events="none"/><path d="M 1943.5 476.5 L 1948.5 476.5 Q 1953.5 476.5 1958.5 481.5 L 1961 484 Q 1963.5 486.5 1968.5 481.5 L 1971 479 Q 1973.5 476.5 1978.5 476.5 L 1983.5 476.5" fill="none" stroke="#000000" stroke-width="3" stroke-miterlimit="10" pointer-events="none"/><path d="M 1901 470 L 1906 470 Q 1911 470 1916 475 L 1918.5 477.5 Q 1921 480 1926 475 L 1928.5 472.5 Q 1931 470 1936 470 L 1941 470" fill="none" stroke="#000000" stroke-width="3" stroke-miterlimit="10" pointer-events="none"/><path d="M 1891 512.5 L 1896 512.75 Q 1901 513 1909.57 507.86 L 1915.29 504.43 Q 1921 501 1929.57 506.14 L 1935.29 509.57 Q 1941 513 1949.57 507.86 L 1955.29 504.43 Q 1961 501 1969.57 506.14 L 1975.29 509.57 Q 1981 513 1986 513 L 1991 513" fill="none" stroke="#66b2ff" stroke-width="3" stroke-miterlimit="10" pointer-events="none"/><path d="M 1892 517 L 1901.5 520 Q 1911 523 1919.57 517.86 L 1925.29 514.43 Q 1931 511 1939.57 516.14 L 1945.29 519.57 Q 1951 523 1959.57 517.86 L 1965.29 514.43 Q 1971 511 1979.57 516.14 L 1985.29 519.57 Q 1991 523 1991 523 L 1991 523" fill="none" stroke="#66b2ff" stroke-width="3" stroke-miterlimit="10" pointer-events="none"/><path d="M 1892 531 L 1892 531 L 1897 526.5 Q 1902 522 1910.57 527.14 L 1916.29 530.57 Q 1922 534 1930.57 528.86 L 1936.29 525.43 Q 1942 522 1950.57 527.14 L 1956.29 530.57 Q 1962 534 1970.5 529 L 1974.75 526.5 Q 1979 524 1985.5 528 L 1992 532" fill="none" stroke="#66b2ff" stroke-width="3" stroke-miterlimit="10" pointer-events="none"/><rect x="1431" y="351" width="240" height="219" rx="8.76" ry="8.76" fill="none" stroke="#703900" stroke-width="3" pointer-events="none"/><rect x="1441" y="361" width="220" height="199" fill="none" stroke="#703900" stroke-width="3" pointer-events="none"/><path d="M 1552 562 L 1552 362" fill="none" stroke="#703900" stroke-width="3" stroke-miterlimit="10" pointer-events="none"/><path d="M 1662 462 L 1442 462" fill="none" stroke="#703900" stroke-width="3" stroke-miterlimit="10" pointer-events="none"/><path d="M 916 640 Q 958 640 958 680 Q 958 720 916 720 Z" fill="none" stroke="#000000" stroke-width="3" stroke-miterlimit="10" transform="rotate(-90,937,680)" pointer-events="none"/><path d="M 2321.14 559 L 2321.14 361.86" fill="none" stroke="#703900" stroke-width="3" stroke-miterlimit="10" pointer-events="none"/><path d="M 2429.71 461.86 L 2209.71 461.86" fill="none" stroke="#703900" stroke-width="3" stroke-miterlimit="10" pointer-events="none"/></g></svg>