<!DOCTYPE svg PUBLIC "-//W3C//DTD SVG 1.1//EN" "http://www.w3.org/Graphics/SVG/1.1/DTD/svg11.dtd">
<svg xmlns="http://www.w3.org/2000/svg" xmlns:xlink="http://www.w3.org/1999/xlink" width="3005px" height="2125px" version="1.1"><defs/><g transform="translate(0.5,0.5)"><rect x="2" y="2" width="3000" height="2120" fill="none" stroke="#ffffff" stroke-width="5" pointer-events="none"/><rect x="854" y="955" width="233" height="387" fill="none" stroke="#ffffff" stroke-width="5" pointer-events="none"/><rect x="1122" y="231" width="141" height="131" rx="6.55" ry="6.55" fill="none" stroke="#ffffff" stroke-width="5" pointer-events="none"/><path d="M 1207.29 231 L 1196.54 209.91 Q 1192 201 1187.6 209.98 L 1177.29 231" fill="none" stroke="#ffffff" stroke-width="5" stroke-miterlimit="10" pointer-events="none"/><rect x="2017" y="281.5" width="160" height="120" rx="10.8" ry="10.8" fill="none" stroke="#ffffff" stroke-width="5" pointer-events="none"/><rect x="2027" y="291.5" width="140" height="100" fill="none" stroke="#ffffff" stroke-width="5" pointer-events="none"/><path d="M 2097 431.5 L 2047 431.5 Q 2037 431.5 2043.25 423.69 L 2054.75 409.31 Q 2061 401.5 2071 401.5 L 2123 401.5 Q 2133 401.5 2139.25 409.31 L 2150.75 423.69 Q 2157 431.5 2147 431.5 Z" fill="none" stroke="#ffffff" stroke-width="5" stroke-miterlimit="10" pointer-events="none"/><path d="M 2127.29 401 Q 2127.29 401 2127.29 401" fill="none" stroke="#ffffff" stroke-opacity="0.5" stroke-width="5" stroke-miterlimit="10" pointer-events="none"/><ellipse cx="2127" cy="401" rx="0.5" ry="0.5" fill-opacity="0.5" fill="#ffffff" stroke="#ffffff" stroke-opacity="0.5" stroke-width="5" pointer-events="none"/><path d="M 2127.29 401 L 2127.29 401 L 2127.29 401 L 2127.29 401 Z" fill-opacity="0.5" fill="#ffffff" stroke="#ffffff" stroke-opacity="0.5" stroke-width="5" stroke-miterlimit="10" pointer-events="none"/><rect x="2189.5" y="410.5" width="30" height="20" rx="3" ry="3" fill="none" stroke="#ffffff" stroke-width="5" pointer-events="none"/><rect x="1934.5" y="431.5" width="325" height="20" rx="3" ry="3" fill="none" stroke="#ffffff" stroke-width="5" pointer-events="none"/><rect x="1969.5" y="451.5" width="250" height="20" fill="none" stroke="#ffffff" stroke-width="5" pointer-events="none"/><rect x="1949.5" y="451.5" width="20" height="169" fill="none" stroke="#ffffff" stroke-width="5" pointer-events="none"/><rect x="2219.5" y="451.5" width="20" height="169" fill="none" stroke="#ffffff" stroke-width="5" pointer-events="none"/><rect x="2249.5" y="481.5" width="80" height="139" rx="12" ry="12" fill="none" stroke="#ffffff" stroke-width="5" pointer-events="none"/><ellipse cx="2315" cy="506" rx="5" ry="5" fill="none" stroke="#ffffff" stroke-width="5" pointer-events="none"/><rect x="2259.5" y="501.5" width="43" height="8" rx="1.2" ry="1.2" fill="none" stroke="#ffffff" stroke-width="5" pointer-events="none"/><ellipse cx="2290" cy="571" rx="10" ry="10" fill="none" stroke="#ffffff" stroke-width="5" pointer-events="none"/><rect x="2259.5" y="590.5" width="60" height="20" rx="3" ry="3" fill="none" stroke="#ffffff" stroke-width="5" pointer-events="none"/><rect x="2" y="621" width="3000" height="61" fill="none" stroke="#ffffff" stroke-width="5" pointer-events="none"/><path d="M 2204.43 421 L 2204.43 411" fill="none" stroke="#ffffff" stroke-width="5" stroke-miterlimit="10" pointer-events="none"/><rect x="230" y="512" width="150" height="109" fill="none" stroke="#ffffff" stroke-width="5" pointer-events="none"/><rect x="2" y="1342" width="3000" height="61" fill="none" stroke="#ffffff" stroke-width="5" pointer-events="none"/><rect x="2" y="2061" width="3000" height="61" fill="none" stroke="#ffffff" stroke-width="5" pointer-events="none"/><rect x="1130" y="239" width="126" height="115" rx="4.6" ry="4.6" fill="none" stroke="#ffffff" stroke-width="5" pointer-events="none"/><ellipse cx="1192" cy="208" rx="1.4999999999999998" ry="1.4999999999999998" fill="none" stroke="#ffffff" stroke-width="5" pointer-events="none"/><path d="M 1169 256.5 L 1174 256.5 Q 1179 256.5 1184 261.5 L 1186.5 264 Q 1189 266.5 1194 261.5 L 1196.5 259 Q 1199 256.5 1204 256.5 L 1209 256.5" fill="none" stroke="#ffffff" stroke-width="5" stroke-miterlimit="10" pointer-events="none"/><path d="M 1202.5 286 L 1207.5 286 Q 1212.5 286 1217.5 291 L 1220 293.5 Q 1222.5 296 1227.5 291 L 1230 288.5 Q 1232.5 286 1237.5 286 L 1242.5 286" fill="none" stroke="#ffffff" stroke-width="5" stroke-miterlimit="10" pointer-events="none"/><path d="M 1147 278.5 L 1152 278.5 Q 1157 278.5 1162 283.5 L 1164.5 286 Q 1167 288.5 1172 283.5 L 1174.5 281 Q 1177 278.5 1182 278.5 L 1187 278.5" fill="none" stroke="#ffffff" stroke-width="5" stroke-miterlimit="10" pointer-events="none"/><path d="M 1130.14 318.14 L 1142.34 321.41 Q 1152 324 1160.57 318.86 L 1166.29 315.43 Q 1172 312 1180.57 317.14 L 1186.29 320.57 Q 1192 324 1200.57 318.86 L 1206.29 315.43 Q 1212 312 1220.57 317.14 L 1226.29 320.57 Q 1232 324 1241.45 320.74 L 1257.29 315.29" fill="none" stroke="#ffffff" stroke-width="5" stroke-miterlimit="10" pointer-events="none"/><path d="M 1131.57 331 L 1139.29 329.5 Q 1147 328 1154.5 331 L 1158.25 332.5 Q 1162 334 1170.57 328.86 L 1176.29 325.43 Q 1182 322 1190.57 327.14 L 1196.29 330.57 Q 1202 334 1210.57 328.86 L 1216.29 325.43 Q 1222 322 1230.57 327.14 L 1236.29 330.57 Q 1242 334 1249 333 L 1252.5 332.5 Q 1256 332 1249 333 L 1242 334" fill="none" stroke="#ffffff" stroke-width="5" stroke-miterlimit="10" pointer-events="none"/><path d="M 1129.9 347.86 L 1144.26 339.86 Q 1153 335 1161.57 340.14 L 1167.29 343.57 Q 1173 347 1181.57 341.86 L 1187.29 338.43 Q 1193 335 1201.57 340.14 L 1207.29 343.57 Q 1213 347 1221.5 342 L 1225.75 339.5 Q 1230 337 1239.71 339.4 L 1256.57 343.57" fill="none" stroke="#ffffff" stroke-width="5" stroke-miterlimit="10" pointer-events="none"/><path d="M 285 451 Q 327 451 327 491 Q 327 531 285 531 Z" fill="none" stroke="#ffffff" stroke-width="5" stroke-miterlimit="10" transform="rotate(-90,306,491)" pointer-events="none"/><rect x="1316" y="452" width="229" height="169" rx="3.38" ry="3.38" fill="none" stroke="#ffffff" stroke-width="5" pointer-events="none"/><rect x="1326" y="461" width="209" height="30" fill="none" stroke="#ffffff" stroke-width="5" pointer-events="none"/><rect x="1326" y="501" width="209" height="30" fill="none" stroke="#ffffff" stroke-width="5" pointer-events="none"/><rect x="1326" y="541" width="209" height="30" fill="none" stroke="#ffffff" stroke-width="5" pointer-events="none"/><ellipse cx="1431" cy="476" rx="5.5" ry="5.5" fill="none" stroke="#ffffff" stroke-width="5" pointer-events="none"/><ellipse cx="1431" cy="516" rx="5.5" ry="5.5" fill="none" stroke="#ffffff" stroke-width="5" pointer-events="none"/><ellipse cx="1431" cy="557" rx="5.5" ry="5.5" fill="none" stroke="#ffffff" stroke-width="5" pointer-events="none"/><rect x="1326" y="581" width="209" height="30" fill="none" stroke="#ffffff" stroke-width="5" pointer-events="none"/><ellipse cx="1430" cy="596" rx="5.5" ry="5.5" fill="none" stroke="#ffffff" stroke-width="5" pointer-events="none"/><rect x="1555" y="452" width="229" height="169" rx="3.38" ry="3.38" fill="none" stroke="#ffffff" stroke-width="5" pointer-events="none"/><rect x="1565" y="502" width="100" height="110" fill="none" stroke="#ffffff" stroke-width="5" pointer-events="none"/><rect x="1675" y="502" width="100" height="110" fill="none" stroke="#ffffff" stroke-width="5" pointer-events="none"/><ellipse cx="1651" cy="536" rx="5.5" ry="5.5" fill="none" stroke="#ffffff" stroke-width="5" pointer-events="none"/><ellipse cx="1691" cy="537" rx="5.5" ry="5.5" fill="none" stroke="#ffffff" stroke-width="5" pointer-events="none"/><rect x="1566" y="461" width="209" height="31" fill="none" stroke="#ffffff" stroke-width="5" pointer-events="none"/><ellipse cx="1670" cy="477" rx="5.5" ry="5.5" fill="none" stroke="#ffffff" stroke-width="5" pointer-events="none"/><rect x="2065" y="1008" width="160" height="334" rx="11.2" ry="11.2" fill="none" stroke="#ffffff" stroke-width="5" pointer-events="none"/><rect x="2079" y="1187" width="40" height="10" rx="1.5" ry="1.5" fill="none" stroke="#ffffff" stroke-width="5" pointer-events="none"/><rect x="2240" y="1172" width="229" height="169" rx="3.38" ry="3.38" fill="none" stroke="#ffffff" stroke-width="5" pointer-events="none"/><rect x="2250" y="1202" width="209" height="30" fill="none" stroke="#ffffff" stroke-width="5" pointer-events="none"/><rect x="2479" y="1172" width="229" height="169" rx="3.38" ry="3.38" fill="none" stroke="#ffffff" stroke-width="5" pointer-events="none"/><rect x="2489" y="1182" width="100" height="150" fill="none" stroke="#ffffff" stroke-width="5" pointer-events="none"/><rect x="2599" y="1182" width="100" height="150" fill="none" stroke="#ffffff" stroke-width="5" pointer-events="none"/><ellipse cx="2575" cy="1256" rx="5.5" ry="5.5" fill="none" stroke="#ffffff" stroke-width="5" pointer-events="none"/><ellipse cx="2615" cy="1257" rx="5.5" ry="5.5" fill="none" stroke="#ffffff" stroke-width="5" pointer-events="none"/><rect x="2587" y="1152" width="13" height="20" fill="none" stroke="#ffffff" stroke-width="5" pointer-events="none"/><rect x="2570" y="1140" width="30" height="10" fill="none" stroke="#ffffff" stroke-width="5" pointer-events="none"/><rect x="2612" y="1161" width="10" height="10" rx="1.5" ry="1.5" fill="none" stroke="#ffffff" stroke-width="5" pointer-events="none"/><rect x="2564" y="1161" width="10" height="10" rx="1.5" ry="1.5" fill="none" stroke="#ffffff" stroke-width="5" pointer-events="none"/><rect x="2831" y="1032" width="104" height="310" rx="2.08" ry="2.08" fill="none" stroke="#ffffff" stroke-width="5" pointer-events="none"/><rect x="2840" y="1042" width="84" height="290" rx="1.68" ry="1.68" fill="none" stroke="#ffffff" stroke-width="5" pointer-events="none"/><ellipse cx="2860" cy="1193" rx="5.5" ry="5.5" fill="none" stroke="#ffffff" stroke-width="5" pointer-events="none"/><path d="M 1883 620 L 1854.5 620 Q 1848 620 1848.7 613.54 L 1856.63 540.46 Q 1857.33 534 1863.83 534 L 1902.17 534 Q 1908.67 534 1909.37 540.46 L 1917.3 613.54 Q 1918 620 1911.5 620 Z" fill="none" stroke="#ffffff" stroke-width="5" stroke-miterlimit="10" transform="rotate(180,1883,577)" pointer-events="none"/><rect x="2432" y="511" width="440" height="110" rx="16.5" ry="16.5" fill="none" stroke="#ffffff" stroke-width="5" pointer-events="none"/><path d="M 2800 511 L 2770 511 Q 2760 511 2765.34 502.55 L 2768.67 497.27 Q 2772 492 2781.45 488.74 L 2852.55 464.26 Q 2862 461 2862 471 L 2862 501 Q 2862 511 2852 511 L 2800 511" fill="none" stroke="#ffffff" stroke-width="5" stroke-miterlimit="10" pointer-events="none"/><rect x="2432" y="512" width="440" height="80" rx="14.4" ry="14.4" fill="none" stroke="#ffffff" stroke-width="5" pointer-events="none"/><rect x="2037" y="497" width="125" height="25" rx="3.75" ry="3.75" fill="none" stroke="#ffffff" stroke-width="5" pointer-events="none"/><path d="M 2054.43 619.57 L 2061.57 522.43" fill="none" stroke="#ffffff" stroke-width="5" stroke-miterlimit="10" pointer-events="none"/><path d="M 2078.71 622.43 L 2080.14 523.86" fill="none" stroke="#ffffff" stroke-width="5" stroke-miterlimit="10" pointer-events="none"/><path d="M 2153 619.57 L 2141.57 523.86" fill="none" stroke="#ffffff" stroke-width="5" stroke-miterlimit="10" pointer-events="none"/><path d="M 2128.71 622.43 L 2124.43 522.43" fill="none" stroke="#ffffff" stroke-width="5" stroke-miterlimit="10" pointer-events="none"/><rect x="1857" y="1886" width="283" height="30" fill="none" stroke="#ffffff" stroke-width="5" pointer-events="none"/><rect x="1884" y="1916" width="25" height="144" fill="none" stroke="#ffffff" stroke-width="5" pointer-events="none"/><rect x="2191" y="1891" width="229" height="169" rx="3.38" ry="3.38" fill="none" stroke="#ffffff" stroke-width="5" pointer-events="none"/><rect x="2201" y="1900" width="209" height="30" fill="none" stroke="#ffffff" stroke-width="5" pointer-events="none"/><rect x="2201" y="1940" width="209" height="30" fill="none" stroke="#ffffff" stroke-width="5" pointer-events="none"/><ellipse cx="2306" cy="1915" rx="5.5" ry="5.5" fill="none" stroke="#ffffff" stroke-width="5" pointer-events="none"/><ellipse cx="2306" cy="1955" rx="5.5" ry="5.5" fill="none" stroke="#ffffff" stroke-width="5" pointer-events="none"/><rect x="2201" y="1981" width="209" height="69" fill="none" stroke="#ffffff" stroke-width="5" pointer-events="none"/><ellipse cx="2305" cy="2016" rx="5.5" ry="5.5" fill="none" stroke="#ffffff" stroke-width="5" pointer-events="none"/><rect x="2084" y="1917" width="25" height="144" fill="none" stroke="#ffffff" stroke-width="5" pointer-events="none"/><path d="M 2065.34 1735.69 L 2050.85 1743.33 Q 2042 1748 2033.63 1753.47 L 1998.37 1776.53 Q 1990 1782 1985.53 1790.94 L 1982.76 1796.47 Q 1980 1802 1975.53 1793.06 L 1972.76 1787.53 Q 1970 1782 1978.43 1776.62 L 2019.57 1750.38 Q 2028 1745 2035.72 1738.64 L 2040.36 1734.82 Q 2045 1731 2051.29 1726.65 L 2057.57 1722.29" fill="none" stroke="#ffffff" stroke-width="5" stroke-miterlimit="10" pointer-events="none"/><path d="M 2061 1729 L 2055.43 1720.4 Q 2050 1712 2058.94 1707.53 L 2064.47 1704.76 Q 2070 1702 2075.84 1710.12 L 2082.16 1718.88 Q 2088 1727 2097.1 1731.14 L 2103.55 1734.07 Q 2110 1737 2101.65 1742.5 L 2074.35 1760.5 Q 2066 1766 2066.77 1756.03 L 2067.38 1748.01 Q 2068 1740 2064.5 1734.5 L 2061 1729" fill="none" stroke="#ffffff" stroke-width="5" stroke-miterlimit="10" pointer-events="none"/><path d="M 2076 1710 L 2079.5 1709 Q 2083 1708 2085 1712 L 2086 1714 Q 2087 1716 2085.5 1719 L 2084 1722" fill="none" stroke="#ffffff" stroke-width="5" stroke-miterlimit="10" pointer-events="none"/><path d="M 2500 2034 L 2500 1873" fill="none" stroke="#ffffff" stroke-width="5" stroke-miterlimit="10" pointer-events="none"/><path d="M 2509 2033 L 2508 1872" fill="none" stroke="#ffffff" stroke-width="5" stroke-miterlimit="10" pointer-events="none"/><ellipse cx="2058" cy="1749" rx="5" ry="5" fill="none" stroke="#ffffff" stroke-width="5" pointer-events="none"/><ellipse cx="1996" cy="1790" rx="5" ry="5" fill="none" stroke="#ffffff" stroke-width="5" pointer-events="none"/><rect x="2210" y="1788" width="209" height="21" rx="3.15" ry="3.15" fill="none" stroke="#ffffff" stroke-width="5" pointer-events="none"/><path d="M 2354.5 1035 L 2247 1035 Q 2241 1035 2243.27 1029.44 L 2272.58 957.56 Q 2274.84 952 2280.84 952 L 2428.16 952 Q 2434.16 952 2436.42 957.56 L 2465.73 1029.44 Q 2468 1035 2462 1035 Z" fill="none" stroke="#ffffff" stroke-width="5" stroke-miterlimit="10" pointer-events="none"/><rect x="2280" y="1036" width="7" height="7" fill="none" stroke="#ffffff" stroke-width="5" pointer-events="none"/><rect x="2266" y="1036" width="7" height="7" fill="none" stroke="#ffffff" stroke-width="5" pointer-events="none"/><rect x="2244.5" y="1161" width="222" height="5" fill="none" stroke="#ffffff" stroke-width="5" pointer-events="none"/><rect x="2378" y="1120" width="52" height="38" fill="none" stroke="#ffffff" stroke-width="5" pointer-events="none"/><rect x="2282" y="1232" width="140" height="99" fill="none" stroke="#ffffff" stroke-width="5" pointer-events="none"/><rect x="2343.5" y="1181.5" width="22" height="10" fill="none" stroke="#ffffff" stroke-width="5" pointer-events="none"/><ellipse cx="2327" cy="1186" rx="5.5" ry="5.5" fill="none" stroke="#ffffff" stroke-width="5" pointer-events="none"/><ellipse cx="2382" cy="1186" rx="5.5" ry="5.5" fill="none" stroke="#ffffff" stroke-width="5" pointer-events="none"/><path d="M 2305.45 1266.14 L 2402.6 1266.14" fill="none" stroke="#ffffff" stroke-width="5" stroke-miterlimit="10" pointer-events="none"/><path d="M 2304.95 1301.14 L 2402.1 1301.14" fill="none" stroke="#ffffff" stroke-width="5" stroke-miterlimit="10" pointer-events="none"/><rect x="2243" y="1810" width="20" height="11" rx="1.65" ry="1.65" fill="none" stroke="#ffffff" stroke-width="5" pointer-events="none"/><rect x="2363" y="1810" width="20" height="11" rx="1.65" ry="1.65" fill="none" stroke="#ffffff" stroke-width="5" pointer-events="none"/><path d="M 2278 1787.5 L 2258.5 1787.5 Q 2251 1787.5 2251 1780 L 2251 1741 Q 2251 1733.5 2257.56 1729.86 L 2298.44 1707.14 Q 2305 1703.5 2305 1711 L 2305 1780 Q 2305 1787.5 2297.5 1787.5 Z" fill="none" stroke="#ffffff" stroke-width="5" stroke-miterlimit="10" pointer-events="none"/><rect x="2348" y="1762" width="50" height="25" rx="3.75" ry="3.75" fill="none" stroke="#ffffff" stroke-width="5" pointer-events="none"/><ellipse cx="2505" cy="2042" rx="11.999999999999998" ry="8" fill="none" stroke="#ffffff" stroke-width="5" pointer-events="none"/><path d="M 2472 1810 L 2507 1810 Q 2537 1810 2537 1840 Q 2537 1870 2507 1870 L 2472 1870 Z" fill="none" stroke="#ffffff" stroke-width="5" stroke-miterlimit="10" transform="rotate(90,2504.5,1840)" pointer-events="none"/><ellipse cx="2492" cy="1881" rx="5" ry="5" fill="none" stroke="#ffffff" stroke-width="5" pointer-events="none"/><ellipse cx="2517" cy="1880" rx="5" ry="5" fill="none" stroke="#ffffff" stroke-width="5" pointer-events="none"/><path d="M 2588 2033 L 2588 1872" fill="none" stroke="#ffffff" stroke-width="5" stroke-miterlimit="10" pointer-events="none"/><path d="M 2597 2032 L 2596 1871" fill="none" stroke="#ffffff" stroke-width="5" stroke-miterlimit="10" pointer-events="none"/><ellipse cx="2593" cy="2041" rx="11.999999999999998" ry="8" fill="none" stroke="#ffffff" stroke-width="5" pointer-events="none"/><ellipse cx="2580" cy="1880" rx="5" ry="5" fill="none" stroke="#ffffff" stroke-width="5" pointer-events="none"/><ellipse cx="2605" cy="1879" rx="5" ry="5" fill="none" stroke="#ffffff" stroke-width="5" pointer-events="none"/><path d="M 2569 1822 L 2569 1862 Q 2569 1872 2579 1872 L 2606 1872 Q 2616 1872 2616 1862 L 2616 1822" fill="none" stroke="#ffffff" stroke-width="5" stroke-miterlimit="10" pointer-events="none"/><path d="M 2585.5 1869.5 L 2585.5 1821.5" fill="none" stroke="#ffffff" stroke-width="5" stroke-miterlimit="10" pointer-events="none"/><path d="M 2601.5 1869.5 L 2601.5 1821.5" fill="none" stroke="#ffffff" stroke-width="5" stroke-miterlimit="10" pointer-events="none"/><rect x="192" y="1901" width="311" height="160" rx="11.2" ry="11.2" fill="none" stroke="#ffffff" stroke-width="5" pointer-events="none"/><rect x="863" y="964" width="215" height="378" fill="none" stroke="#ffffff" stroke-width="5" pointer-events="none"/><rect x="879" y="1176" width="29" height="6" rx="0.9" ry="0.9" fill="none" stroke="#ffffff" stroke-width="5" pointer-events="none"/><ellipse cx="976" cy="1063" rx="51.5" ry="51.5" fill="none" stroke="#ffffff" stroke-width="5" pointer-events="none"/><path d="M 1082.5 1086 L 1082.5 1066" fill="none" stroke="#ffffff" stroke-width="5" stroke-miterlimit="10" pointer-events="none"/><path d="M 1082.5 1252.5 L 1082.5 1232.5" fill="none" stroke="#ffffff" stroke-width="5" stroke-miterlimit="10" pointer-events="none"/><rect x="2678.5" y="1673" width="233" height="387" fill="none" stroke="#ffffff" stroke-width="5" pointer-events="none"/><rect x="2687.5" y="1682" width="215" height="378" fill="none" stroke="#ffffff" stroke-width="5" pointer-events="none"/><rect x="2703.5" y="1894" width="29" height="6" fill="none" stroke="#ffffff" stroke-width="5" pointer-events="none"/><path d="M 2907 1804 L 2907 1784" fill="none" stroke="#ffffff" stroke-width="5" stroke-miterlimit="10" pointer-events="none"/><path d="M 2907 1970.5 L 2907 1950.5" fill="none" stroke="#ffffff" stroke-width="5" stroke-miterlimit="10" pointer-events="none"/><rect x="2728" y="1714" width="137" height="128" rx="7.68" ry="7.68" fill="none" stroke="#ffffff" stroke-width="5" pointer-events="none"/><path d="M 2795.86 1842.43 L 2795.86 1713.86" fill="none" stroke="#ffffff" stroke-width="5" stroke-miterlimit="10" pointer-events="none"/><path d="M 2864.43 1778.14 L 2727.29 1778.14" fill="none" stroke="#ffffff" stroke-width="5" stroke-miterlimit="10" pointer-events="none"/><rect x="677" y="380.5" width="310" height="21" rx="3.15" ry="3.15" fill="none" stroke="#ffffff" stroke-width="5" pointer-events="none"/><rect x="1390" y="381" width="310" height="21" rx="3.15" ry="3.15" fill="none" stroke="#ffffff" stroke-width="5" pointer-events="none"/><rect x="150" y="1126.5" width="310" height="21" rx="3.15" ry="3.15" fill="none" stroke="#ffffff" stroke-width="5" pointer-events="none"/><path d="M 2389 1117.5 L 2391.25 1113 Q 2393.5 1108.5 2403.5 1108.5 L 2409.25 1108.5 Q 2415 1108.5 2417 1113 L 2419 1117.5" fill="none" stroke="#ffffff" stroke-width="5" stroke-miterlimit="10" pointer-events="none"/><path d="M 2378 1117.5 L 2430 1117.5" fill="none" stroke="#ffffff" stroke-width="5" stroke-miterlimit="10" pointer-events="none"/><path d="M 2029.5 2061 L 2001 2061 Q 1994.5 2061 1995.2 2054.54 L 2003.13 1981.46 Q 2003.83 1975 2010.33 1975 L 2048.67 1975 Q 2055.17 1975 2055.87 1981.46 L 2063.8 2054.54 Q 2064.5 2061 2058 2061 Z" fill="none" stroke="#ffffff" stroke-width="5" stroke-miterlimit="10" transform="rotate(180,2029.5,2018)" pointer-events="none"/><path d="M 97 2061 Q 97 1975 194 1980" fill="none" stroke="#ffffff" stroke-width="5" stroke-miterlimit="10" pointer-events="none"/><path d="M 127 2061 Q 125 1999 193 2005" fill="none" stroke="#ffffff" stroke-width="5" stroke-miterlimit="10" pointer-events="none"/><path d="M 581.57 2061 Q 570 1996 504.43 2002.43" fill="none" stroke="#ffffff" stroke-width="5" stroke-miterlimit="10" pointer-events="none"/><path d="M 604.43 2062.43 Q 600 1974 503 1978.14" fill="none" stroke="#ffffff" stroke-width="5" stroke-miterlimit="10" pointer-events="none"/><rect x="1993.5" y="421.5" width="150" height="10" rx="1.5" ry="1.5" fill="none" stroke="#ffffff" stroke-width="5" pointer-events="none"/><ellipse cx="256" cy="532" rx="9.5" ry="9.5" fill="#ff0000" stroke="#ffffff" stroke-width="5" pointer-events="none"/><ellipse cx="356" cy="534" rx="9.5" ry="9.5" fill="#00ff00" stroke="#ffffff" stroke-width="5" pointer-events="none"/><path d="M 2000.35 418.35 L 2135.65 418.35" fill="none" stroke="#ffffff" stroke-width="5" stroke-miterlimit="10" pointer-events="none"/></g></svg>