<!DOCTYPE svg PUBLIC "-//W3C//DTD SVG 1.1//EN" "http://www.w3.org/Graphics/SVG/1.1/DTD/svg11.dtd">
<svg xmlns="http://www.w3.org/2000/svg" xmlns:xlink="http://www.w3.org/1999/xlink" width="3005px" height="1846px" version="1.1"><defs/><g transform="translate(0.5,0.5)"><rect x="2017" y="2.5" width="160" height="120" rx="10.8" ry="10.8" fill="none" stroke="#000000" stroke-width="5" pointer-events="none"/><rect x="2027" y="12.5" width="140" height="100" fill="none" stroke="#000000" stroke-width="5" pointer-events="none"/><path d="M 2097 152.5 L 2047 152.5 Q 2037 152.5 2043.25 144.69 L 2054.75 130.31 Q 2061 122.5 2071 122.5 L 2123 122.5 Q 2133 122.5 2139.25 130.31 L 2150.75 144.69 Q 2157 152.5 2147 152.5 Z" fill="none" stroke="#000000" stroke-width="5" stroke-miterlimit="10" pointer-events="none"/><path d="M 2126.57 122.57 Q 2126.57 122.57 2126.57 122.57" fill="none" stroke="#000000" stroke-opacity="0.5" stroke-width="5" stroke-miterlimit="10" pointer-events="none"/><ellipse cx="2127" cy="123" rx="0.5" ry="0.5" fill-opacity="0.5" fill="#000000" stroke="#000000" stroke-opacity="0.5" stroke-width="5" pointer-events="none"/><path d="M 2126.57 122.57 L 2126.57 122.57 L 2126.57 122.57 L 2126.57 122.57 Z" fill-opacity="0.5" fill="#000000" stroke="#000000" stroke-opacity="0.5" stroke-width="5" stroke-miterlimit="10" pointer-events="none"/><rect x="2189.5" y="131.5" width="30" height="20" rx="3" ry="3" fill="none" stroke="#000000" stroke-width="5" pointer-events="none"/><rect x="2249.5" y="202.5" width="80" height="139" rx="12" ry="12" fill="none" stroke="#000000" stroke-width="5" pointer-events="none"/><ellipse cx="2314" cy="227" rx="5" ry="5" fill="none" stroke="#000000" stroke-width="5" pointer-events="none"/><rect x="2259.5" y="222.5" width="43" height="8" rx="1.2" ry="1.2" fill="none" stroke="#000000" stroke-width="5" pointer-events="none"/><ellipse cx="2289" cy="292" rx="10" ry="10" fill="none" stroke="#000000" stroke-width="5" pointer-events="none"/><rect x="2259.5" y="311.5" width="60" height="20" rx="3" ry="3" fill="none" stroke="#000000" stroke-width="5" pointer-events="none"/><rect x="2" y="342" width="3000" height="61" fill="none" stroke="#000000" stroke-width="5" pointer-events="none"/><path d="M 2203.71 142.57 L 2203.71 131.14" fill="none" stroke="#000000" stroke-width="5" stroke-miterlimit="10" pointer-events="none"/><rect x="230" y="233" width="150" height="109" fill="none" stroke="#000000" stroke-width="5" pointer-events="none"/><rect x="2" y="1063" width="3000" height="61" fill="none" stroke="#000000" stroke-width="5" pointer-events="none"/><rect x="2" y="1782" width="3000" height="61" fill="none" stroke="#000000" stroke-width="5" pointer-events="none"/><path d="M 285 172 Q 327 172 327 212 Q 327 252 285 252 Z" fill="none" stroke="#000000" stroke-width="5" stroke-miterlimit="10" transform="rotate(-90,306,212)" pointer-events="none"/><rect x="2065" y="729" width="160" height="334" rx="11.2" ry="11.2" fill="none" stroke="#000000" stroke-width="5" pointer-events="none"/><rect x="2079" y="908" width="40" height="10" rx="1.5" ry="1.5" fill="none" stroke="#000000" stroke-width="5" pointer-events="none"/><rect x="2240" y="893" width="229" height="169" rx="3.38" ry="3.38" fill="none" stroke="#000000" stroke-width="5" pointer-events="none"/><rect x="2250" y="923" width="209" height="30" fill="none" stroke="#000000" stroke-width="5" pointer-events="none"/><rect x="2587" y="873" width="13" height="20" fill="none" stroke="#000000" stroke-width="5" pointer-events="none"/><rect x="2570" y="861" width="30" height="10" fill="none" stroke="#000000" stroke-width="5" pointer-events="none"/><rect x="2612" y="882" width="10" height="10" rx="1.5" ry="1.5" fill="none" stroke="#000000" stroke-width="5" pointer-events="none"/><rect x="2564" y="882" width="10" height="10" rx="1.5" ry="1.5" fill="none" stroke="#000000" stroke-width="5" pointer-events="none"/><rect x="2831" y="753" width="104" height="310" rx="2.08" ry="2.08" fill="none" stroke="#000000" stroke-width="5" pointer-events="none"/><rect x="2840" y="763" width="84" height="290" rx="1.68" ry="1.68" fill="none" stroke="#000000" stroke-width="5" pointer-events="none"/><ellipse cx="2860" cy="914" rx="5.5" ry="5.5" fill="none" stroke="#000000" stroke-width="5" pointer-events="none"/><rect x="2432" y="232" width="440" height="110" rx="16.5" ry="16.5" fill="none" stroke="#000000" stroke-width="5" pointer-events="none"/><rect x="2432" y="233" width="440" height="80" rx="14.4" ry="14.4" fill="none" stroke="#000000" stroke-width="5" pointer-events="none"/><rect x="2037" y="218" width="125" height="25" rx="3.75" ry="3.75" fill="none" stroke="#000000" stroke-width="5" pointer-events="none"/><path d="M 2055.14 339.71 L 2060.86 242.57" fill="none" stroke="#000000" stroke-width="5" stroke-miterlimit="10" pointer-events="none"/><path d="M 2078 342.57 L 2080.86 245.43" fill="none" stroke="#000000" stroke-width="5" stroke-miterlimit="10" pointer-events="none"/><path d="M 2152.29 339.71 L 2140.86 245.43" fill="none" stroke="#000000" stroke-width="5" stroke-miterlimit="10" pointer-events="none"/><path d="M 2129.43 342.57 L 2123.71 242.57" fill="none" stroke="#000000" stroke-width="5" stroke-miterlimit="10" pointer-events="none"/><path d="M 2500 1755 L 2500 1594" fill="none" stroke="#000000" stroke-width="5" stroke-miterlimit="10" pointer-events="none"/><path d="M 2509 1754 L 2508 1593" fill="none" stroke="#000000" stroke-width="5" stroke-miterlimit="10" pointer-events="none"/><rect x="2210" y="1509" width="209" height="21" rx="3.15" ry="3.15" fill="none" stroke="#000000" stroke-width="5" pointer-events="none"/><path d="M 2354.5 756 L 2247 756 Q 2241 756 2243.27 750.44 L 2272.58 678.56 Q 2274.84 673 2280.84 673 L 2428.16 673 Q 2434.16 673 2436.42 678.56 L 2465.73 750.44 Q 2468 756 2462 756 Z" fill="none" stroke="#000000" stroke-width="5" stroke-miterlimit="10" pointer-events="none"/><rect x="2244.5" y="882" width="222" height="5" fill="none" stroke="#000000" stroke-width="5" pointer-events="none"/><rect x="2378" y="841" width="52" height="38" fill="none" stroke="#000000" stroke-width="5" pointer-events="none"/><rect x="2282" y="953" width="140" height="99" fill="none" stroke="#000000" stroke-width="5" pointer-events="none"/><rect x="2343.5" y="902.5" width="22" height="10" fill="none" stroke="#000000" stroke-width="5" pointer-events="none"/><ellipse cx="2327" cy="907" rx="5.5" ry="5.5" fill="none" stroke="#000000" stroke-width="5" pointer-events="none"/><ellipse cx="2382" cy="907" rx="5.5" ry="5.5" fill="none" stroke="#000000" stroke-width="5" pointer-events="none"/><path d="M 2305.45 987.14 L 2402.6 987.14" fill="none" stroke="#000000" stroke-width="5" stroke-miterlimit="10" pointer-events="none"/><path d="M 2304.95 1022.14 L 2402.1 1022.14" fill="none" stroke="#000000" stroke-width="5" stroke-miterlimit="10" pointer-events="none"/><rect x="2243" y="1531" width="20" height="11" rx="1.65" ry="1.65" fill="none" stroke="#000000" stroke-width="5" pointer-events="none"/><rect x="2363" y="1531" width="20" height="11" rx="1.65" ry="1.65" fill="none" stroke="#000000" stroke-width="5" pointer-events="none"/><path d="M 2278 1508.5 L 2258.5 1508.5 Q 2251 1508.5 2251 1501 L 2251 1462 Q 2251 1454.5 2257.56 1450.86 L 2298.44 1428.14 Q 2305 1424.5 2305 1432 L 2305 1501 Q 2305 1508.5 2297.5 1508.5 Z" fill="none" stroke="#000000" stroke-width="5" stroke-miterlimit="10" pointer-events="none"/><rect x="2348" y="1483" width="50" height="25" rx="3.75" ry="3.75" fill="none" stroke="#000000" stroke-width="5" pointer-events="none"/><ellipse cx="2505" cy="1763" rx="11.999999999999998" ry="8" fill="none" stroke="#000000" stroke-width="5" pointer-events="none"/><path d="M 2472 1531 L 2507 1531 Q 2537 1531 2537 1561 Q 2537 1591 2507 1591 L 2472 1591 Z" fill="none" stroke="#000000" stroke-width="5" stroke-miterlimit="10" transform="rotate(90,2504.5,1561)" pointer-events="none"/><ellipse cx="2492" cy="1602" rx="5" ry="5" fill="none" stroke="#000000" stroke-width="5" pointer-events="none"/><ellipse cx="2517" cy="1601" rx="5" ry="5" fill="none" stroke="#000000" stroke-width="5" pointer-events="none"/><rect x="192" y="1622" width="311" height="160" rx="11.2" ry="11.2" fill="none" stroke="#000000" stroke-width="5" pointer-events="none"/><path d="M 2378 838.5 L 2430 838.5" fill="none" stroke="#000000" stroke-width="5" stroke-miterlimit="10" pointer-events="none"/><path d="M 2029.5 1782 L 2001 1782 Q 1994.5 1782 1995.2 1775.54 L 2003.13 1702.46 Q 2003.83 1696 2010.33 1696 L 2048.67 1696 Q 2055.17 1696 2055.87 1702.46 L 2063.8 1775.54 Q 2064.5 1782 2058 1782 Z" fill="none" stroke="#000000" stroke-width="5" stroke-miterlimit="10" transform="rotate(180,2029.5,1739)" pointer-events="none"/><rect x="1993.5" y="142.5" width="150" height="10" rx="1.5" ry="1.5" fill="none" stroke="#000000" stroke-width="5" pointer-events="none"/><ellipse cx="256" cy="253" rx="9.5" ry="9.5" fill="#ff0000" stroke="#000000" stroke-width="5" pointer-events="none"/><ellipse cx="356" cy="255" rx="9.5" ry="9.5" fill="#00ff00" stroke="#000000" stroke-width="5" pointer-events="none"/><path d="M 2806 233 L 2762 233 Q 2752 233 2752 223 L 2752 218 Q 2752 213 2761.83 211.18 L 2850.17 194.82 Q 2860 193 2860 203 L 2860 223 Q 2860 233 2850 233 Z" fill="none" stroke="#000000" stroke-width="5" stroke-miterlimit="10" pointer-events="none"/><path d="M 2399 821 Q 2409 821 2409 834 Q 2409 847 2399 847 Z" fill="none" stroke="#000000" stroke-width="5" stroke-miterlimit="10" transform="rotate(-90,2404,834)" pointer-events="none"/><path d="M 1125.2 1062.2 Q 1146 1033 1146 1013.5 Q 1146 994 1161 988.5 Q 1176 983 1216 997" fill="none" stroke="#000000" stroke-width="5" stroke-miterlimit="10" pointer-events="none"/><path d="M 1276 1014 Q 1297 1023 1312 1013 Q 1327 1003 1343 1013 Q 1359 1023 1359 1063.67" fill="none" stroke="#000000" stroke-width="5" stroke-miterlimit="10" pointer-events="none"/></g></svg>