<!DOCTYPE svg PUBLIC "-//W3C//DTD SVG 1.1//EN" "http://www.w3.org/Graphics/SVG/1.1/DTD/svg11.dtd">
<svg xmlns="http://www.w3.org/2000/svg" xmlns:xlink="http://www.w3.org/1999/xlink" width="3006px" height="2125px" version="1.1"><defs/><g transform="translate(0.5,0.5)"><rect x="2.21" y="2" width="3000" height="2120" fill="none" stroke="#ffffff" stroke-width="5" pointer-events="none"/><rect x="2017" y="281.5" width="160" height="120" rx="10.8" ry="10.8" fill="none" stroke="#ffffff" stroke-width="5" pointer-events="none"/><rect x="2027" y="291.5" width="140" height="100" fill="none" stroke="#ffffff" stroke-width="5" pointer-events="none"/><path d="M 2097 431.5 L 2047 431.5 Q 2037 431.5 2043.25 423.69 L 2054.75 409.31 Q 2061 401.5 2071 401.5 L 2123 401.5 Q 2133 401.5 2139.25 409.31 L 2150.75 423.69 Q 2157 431.5 2147 431.5 Z" fill="none" stroke="#ffffff" stroke-width="5" stroke-miterlimit="10" pointer-events="none"/><path d="M 2126.71 402.43 Q 2126.71 402.43 2126.71 402.43" fill="none" stroke="#ffffff" stroke-opacity="0.5" stroke-width="5" stroke-miterlimit="10" pointer-events="none"/><ellipse cx="2127" cy="402" rx="0.5" ry="0.5" fill-opacity="0.5" fill="#ffffff" stroke="#ffffff" stroke-opacity="0.5" stroke-width="5" pointer-events="none"/><path d="M 2126.71 402.43 L 2126.71 402.43 L 2126.71 402.43 L 2126.71 402.43 Z" fill-opacity="0.5" fill="#ffffff" stroke="#ffffff" stroke-opacity="0.5" stroke-width="5" stroke-miterlimit="10" pointer-events="none"/><rect x="2189.5" y="410.5" width="30" height="20" rx="3" ry="3" fill="none" stroke="#ffffff" stroke-width="5" pointer-events="none"/><rect x="1934.5" y="431.5" width="325" height="20" rx="3" ry="3" fill="none" stroke="#ffffff" stroke-width="5" pointer-events="none"/><rect x="1969.5" y="451.5" width="250" height="20" fill="none" stroke="#ffffff" stroke-width="5" pointer-events="none"/><rect x="1949.5" y="451.5" width="20" height="169" fill="none" stroke="#ffffff" stroke-width="5" pointer-events="none"/><rect x="2219.5" y="451.5" width="20" height="169" fill="none" stroke="#ffffff" stroke-width="5" pointer-events="none"/><rect x="2249.5" y="481.5" width="80" height="139" rx="12" ry="12" fill="none" stroke="#ffffff" stroke-width="5" pointer-events="none"/><ellipse cx="2315" cy="506" rx="5" ry="5" fill="none" stroke="#ffffff" stroke-width="5" pointer-events="none"/><rect x="2259.5" y="501.5" width="43" height="8" rx="1.2" ry="1.2" fill="none" stroke="#ffffff" stroke-width="5" pointer-events="none"/><ellipse cx="2290" cy="571" rx="10" ry="10" fill="none" stroke="#ffffff" stroke-width="5" pointer-events="none"/><rect x="2259.5" y="590.5" width="60" height="20" rx="3" ry="3" fill="none" stroke="#ffffff" stroke-width="5" pointer-events="none"/><rect x="2" y="621" width="3000" height="61" fill="none" stroke="#ffffff" stroke-width="5" pointer-events="none"/><path d="M 2203.86 419.57 L 2203.86 411" fill="none" stroke="#ffffff" stroke-width="5" stroke-miterlimit="10" pointer-events="none"/><rect x="230" y="512" width="150" height="109" fill="none" stroke="#ffffff" stroke-width="5" pointer-events="none"/><rect x="2" y="1342" width="3000" height="61" fill="none" stroke="#ffffff" stroke-width="5" pointer-events="none"/><rect x="2" y="2061" width="3000" height="61" fill="none" stroke="#ffffff" stroke-width="5" pointer-events="none"/><path d="M 285 451 Q 327 451 327 491 Q 327 531 285 531 Z" fill="none" stroke="#ffffff" stroke-width="5" stroke-miterlimit="10" transform="rotate(-90,306,491)" pointer-events="none"/><rect x="2065" y="1008" width="160" height="334" rx="11.2" ry="11.2" fill="none" stroke="#ffffff" stroke-width="5" pointer-events="none"/><rect x="2079" y="1187" width="40" height="10" rx="1.5" ry="1.5" fill="none" stroke="#ffffff" stroke-width="5" pointer-events="none"/><rect x="2240" y="1172" width="229" height="169" rx="3.38" ry="3.38" fill="none" stroke="#ffffff" stroke-width="5" pointer-events="none"/><rect x="2250" y="1202" width="209" height="30" fill="none" stroke="#ffffff" stroke-width="5" pointer-events="none"/><rect x="2479" y="1172" width="229" height="169" rx="3.38" ry="3.38" fill="none" stroke="#ffffff" stroke-width="5" pointer-events="none"/><rect x="2489" y="1182" width="100" height="150" fill="none" stroke="#ffffff" stroke-width="5" pointer-events="none"/><rect x="2599" y="1182" width="100" height="150" fill="none" stroke="#ffffff" stroke-width="5" pointer-events="none"/><ellipse cx="2575" cy="1256" rx="5.5" ry="5.5" fill="none" stroke="#ffffff" stroke-width="5" pointer-events="none"/><ellipse cx="2615" cy="1257" rx="5.5" ry="5.5" fill="none" stroke="#ffffff" stroke-width="5" pointer-events="none"/><rect x="2587" y="1152" width="13" height="20" fill="none" stroke="#ffffff" stroke-width="5" pointer-events="none"/><rect x="2570" y="1140" width="30" height="10" fill="none" stroke="#ffffff" stroke-width="5" pointer-events="none"/><rect x="2612" y="1161" width="10" height="10" rx="1.5" ry="1.5" fill="none" stroke="#ffffff" stroke-width="5" pointer-events="none"/><rect x="2564" y="1161" width="10" height="10" rx="1.5" ry="1.5" fill="none" stroke="#ffffff" stroke-width="5" pointer-events="none"/><rect x="2831" y="1032" width="104" height="310" rx="2.08" ry="2.08" fill="none" stroke="#ffffff" stroke-width="5" pointer-events="none"/><rect x="2840" y="1042" width="84" height="290" rx="1.68" ry="1.68" fill="none" stroke="#ffffff" stroke-width="5" pointer-events="none"/><ellipse cx="2860" cy="1193" rx="5.5" ry="5.5" fill="none" stroke="#ffffff" stroke-width="5" pointer-events="none"/><rect x="2432" y="511" width="440" height="110" rx="16.5" ry="16.5" fill="none" stroke="#ffffff" stroke-width="5" pointer-events="none"/><rect x="2432" y="512" width="440" height="80" rx="14.4" ry="14.4" fill="none" stroke="#ffffff" stroke-width="5" pointer-events="none"/><rect x="2037" y="497" width="125" height="25" rx="3.75" ry="3.75" fill="none" stroke="#ffffff" stroke-width="5" pointer-events="none"/><path d="M 2055.29 619.57 L 2061 522.43" fill="none" stroke="#ffffff" stroke-width="5" stroke-miterlimit="10" pointer-events="none"/><path d="M 2078.14 622.43 L 2081 525.29" fill="none" stroke="#ffffff" stroke-width="5" stroke-miterlimit="10" pointer-events="none"/><path d="M 2152.43 619.57 L 2141 522.43" fill="none" stroke="#ffffff" stroke-width="5" stroke-miterlimit="10" pointer-events="none"/><path d="M 2129.57 622.43 L 2123.86 522.43" fill="none" stroke="#ffffff" stroke-width="5" stroke-miterlimit="10" pointer-events="none"/><rect x="2191" y="1891" width="229" height="169" rx="3.38" ry="3.38" fill="none" stroke="#ffffff" stroke-width="5" pointer-events="none"/><rect x="2201" y="1900" width="209" height="30" fill="none" stroke="#ffffff" stroke-width="5" pointer-events="none"/><rect x="2201" y="1940" width="209" height="30" fill="none" stroke="#ffffff" stroke-width="5" pointer-events="none"/><ellipse cx="2305" cy="1915" rx="5.5" ry="5.5" fill="none" stroke="#ffffff" stroke-width="5" pointer-events="none"/><ellipse cx="2305" cy="1955" rx="5.5" ry="5.5" fill="none" stroke="#ffffff" stroke-width="5" pointer-events="none"/><rect x="2201" y="1981" width="209" height="69" fill="none" stroke="#ffffff" stroke-width="5" pointer-events="none"/><ellipse cx="2305" cy="2016" rx="5.5" ry="5.5" fill="none" stroke="#ffffff" stroke-width="5" pointer-events="none"/><path d="M 2500 2034 L 2500 1873" fill="none" stroke="#ffffff" stroke-width="5" stroke-miterlimit="10" pointer-events="none"/><path d="M 2509 2033 L 2508 1872" fill="none" stroke="#ffffff" stroke-width="5" stroke-miterlimit="10" pointer-events="none"/><rect x="2210" y="1788" width="209" height="21" rx="3.15" ry="3.15" fill="none" stroke="#ffffff" stroke-width="5" pointer-events="none"/><path d="M 2354.5 1035 L 2247 1035 Q 2241 1035 2243.27 1029.44 L 2272.58 957.56 Q 2274.84 952 2280.84 952 L 2428.16 952 Q 2434.16 952 2436.42 957.56 L 2465.73 1029.44 Q 2468 1035 2462 1035 Z" fill="none" stroke="#ffffff" stroke-width="5" stroke-miterlimit="10" pointer-events="none"/><rect x="2244.5" y="1161" width="222" height="5" fill="none" stroke="#ffffff" stroke-width="5" pointer-events="none"/><rect x="2378" y="1120" width="52" height="38" fill="none" stroke="#ffffff" stroke-width="5" pointer-events="none"/><rect x="2282" y="1232" width="140" height="99" fill="none" stroke="#ffffff" stroke-width="5" pointer-events="none"/><rect x="2343.5" y="1181.5" width="22" height="10" fill="none" stroke="#ffffff" stroke-width="5" pointer-events="none"/><ellipse cx="2327" cy="1186" rx="5.5" ry="5.5" fill="none" stroke="#ffffff" stroke-width="5" pointer-events="none"/><ellipse cx="2382" cy="1186" rx="5.5" ry="5.5" fill="none" stroke="#ffffff" stroke-width="5" pointer-events="none"/><path d="M 2305.45 1266.14 L 2402.6 1266.14" fill="none" stroke="#ffffff" stroke-width="5" stroke-miterlimit="10" pointer-events="none"/><path d="M 2304.95 1301.14 L 2402.1 1301.14" fill="none" stroke="#ffffff" stroke-width="5" stroke-miterlimit="10" pointer-events="none"/><rect x="2243" y="1810" width="20" height="11" rx="1.65" ry="1.65" fill="none" stroke="#ffffff" stroke-width="5" pointer-events="none"/><rect x="2363" y="1810" width="20" height="11" rx="1.65" ry="1.65" fill="none" stroke="#ffffff" stroke-width="5" pointer-events="none"/><path d="M 2278 1787.5 L 2258.5 1787.5 Q 2251 1787.5 2251 1780 L 2251 1741 Q 2251 1733.5 2257.56 1729.86 L 2298.44 1707.14 Q 2305 1703.5 2305 1711 L 2305 1780 Q 2305 1787.5 2297.5 1787.5 Z" fill="none" stroke="#ffffff" stroke-width="5" stroke-miterlimit="10" pointer-events="none"/><rect x="2348" y="1762" width="50" height="25" rx="3.75" ry="3.75" fill="none" stroke="#ffffff" stroke-width="5" pointer-events="none"/><ellipse cx="2504" cy="2042" rx="11.999999999999998" ry="8" fill="none" stroke="#ffffff" stroke-width="5" pointer-events="none"/><path d="M 2472 1810 L 2507 1810 Q 2537 1810 2537 1840 Q 2537 1870 2507 1870 L 2472 1870 Z" fill="none" stroke="#ffffff" stroke-width="5" stroke-miterlimit="10" transform="rotate(90,2504.5,1840)" pointer-events="none"/><ellipse cx="2492" cy="1881" rx="5" ry="5" fill="none" stroke="#ffffff" stroke-width="5" pointer-events="none"/><ellipse cx="2517" cy="1880" rx="5" ry="5" fill="none" stroke="#ffffff" stroke-width="5" pointer-events="none"/><rect x="192" y="1901" width="311" height="160" rx="11.2" ry="11.2" fill="none" stroke="#ffffff" stroke-width="5" pointer-events="none"/><rect x="2678.5" y="1673" width="233" height="387" fill="none" stroke="#ffffff" stroke-width="5" pointer-events="none"/><rect x="2687.5" y="1682" width="215" height="378" fill="none" stroke="#ffffff" stroke-width="5" pointer-events="none"/><rect x="2703.5" y="1894" width="29" height="6" fill="none" stroke="#ffffff" stroke-width="5" pointer-events="none"/><path d="M 2907 1804 L 2907 1784" fill="none" stroke="#ffffff" stroke-width="5" stroke-miterlimit="10" pointer-events="none"/><path d="M 2907 1970.5 L 2907 1950.5" fill="none" stroke="#ffffff" stroke-width="5" stroke-miterlimit="10" pointer-events="none"/><rect x="2728" y="1714" width="137" height="128" rx="7.68" ry="7.68" fill="none" stroke="#ffffff" stroke-width="5" pointer-events="none"/><path d="M 2795.29 1842.43 L 2795.29 1713.86" fill="none" stroke="#ffffff" stroke-width="5" stroke-miterlimit="10" pointer-events="none"/><path d="M 2863.86 1776.71 L 2726.71 1776.71" fill="none" stroke="#ffffff" stroke-width="5" stroke-miterlimit="10" pointer-events="none"/><path d="M 2378 1117.5 L 2430 1117.5" fill="none" stroke="#ffffff" stroke-width="5" stroke-miterlimit="10" pointer-events="none"/><path d="M 2029.5 2061 L 2001 2061 Q 1994.5 2061 1995.2 2054.54 L 2003.13 1981.46 Q 2003.83 1975 2010.33 1975 L 2048.67 1975 Q 2055.17 1975 2055.87 1981.46 L 2063.8 2054.54 Q 2064.5 2061 2058 2061 Z" fill="none" stroke="#ffffff" stroke-width="5" stroke-miterlimit="10" transform="rotate(180,2029.5,2018)" pointer-events="none"/><rect x="1993.5" y="421.5" width="150" height="10" rx="1.5" ry="1.5" fill="none" stroke="#ffffff" stroke-width="5" pointer-events="none"/><ellipse cx="256" cy="532" rx="9.5" ry="9.5" fill="#ff0000" stroke="#ffffff" stroke-width="5" pointer-events="none"/><ellipse cx="356" cy="534" rx="9.5" ry="9.5" fill="#00ff00" stroke="#ffffff" stroke-width="5" pointer-events="none"/><path d="M 2806 512 L 2762 512 Q 2752 512 2752 502 L 2752 497 Q 2752 492 2761.83 490.18 L 2850.17 473.82 Q 2860 472 2860 482 L 2860 502 Q 2860 512 2850 512 Z" fill="none" stroke="#ffffff" stroke-width="5" stroke-miterlimit="10" pointer-events="none"/><path d="M 2399 1100 Q 2409 1100 2409 1113 Q 2409 1126 2399 1126 Z" fill="none" stroke="#ffffff" stroke-width="5" stroke-miterlimit="10" transform="rotate(-90,2404,1113)" pointer-events="none"/></g></svg>