<!DOCTYPE svg PUBLIC "-//W3C//DTD SVG 1.1//EN" "http://www.w3.org/Graphics/SVG/1.1/DTD/svg11.dtd">
<svg xmlns="http://www.w3.org/2000/svg" xmlns:xlink="http://www.w3.org/1999/xlink" width="3664px" height="2087px" version="1.1"><defs/><g transform="translate(0.5,0.5)"><rect x="2921" y="22" width="160" height="120" rx="10.8" ry="10.8" fill="none" stroke="#000000" stroke-width="3" pointer-events="none"/><rect x="2931" y="32" width="140" height="100" fill="none" stroke="#000000" stroke-width="3" pointer-events="none"/><path d="M 3001 172 L 2951 172 Q 2941 172 2947.25 164.19 L 2958.75 149.81 Q 2965 142 2975 142 L 3027 142 Q 3037 142 3043.25 149.81 L 3054.75 164.19 Q 3061 172 3051 172 Z" fill="none" stroke="#000000" stroke-width="3" stroke-miterlimit="10" pointer-events="none"/><path d="M 3030.67 143 Q 3030.67 143 3030.67 143" fill="none" stroke="#ff0000" stroke-opacity="0.5" stroke-width="3" stroke-miterlimit="10" pointer-events="none"/><ellipse cx="3031" cy="143" rx="0.5" ry="0.5" fill-opacity="0.5" fill="#ff0000" stroke="#ff0000" stroke-opacity="0.5" stroke-width="3" pointer-events="none"/><path d="M 3030.67 143 L 3030.67 143 L 3030.67 143 L 3030.67 143 Z" fill-opacity="0.5" fill="#ff0000" stroke="#ff0000" stroke-opacity="0.5" stroke-width="3" stroke-miterlimit="10" pointer-events="none"/><rect x="2886" y="162" width="150" height="10" rx="1.5" ry="1.5" fill="none" stroke="#000000" stroke-width="3" pointer-events="none"/><rect x="2896" y="157" width="10" height="5" fill="none" stroke="#000000" stroke-width="3" pointer-events="none"/><rect x="2911" y="157" width="10" height="5" fill="none" stroke="#000000" stroke-width="3" pointer-events="none"/><rect x="2926" y="157" width="10" height="5" fill="none" stroke="#000000" stroke-width="3" pointer-events="none"/><rect x="2941" y="157" width="10" height="5" fill="none" stroke="#000000" stroke-width="3" pointer-events="none"/><rect x="2956" y="157" width="10" height="5" fill="none" stroke="#000000" stroke-width="3" pointer-events="none"/><rect x="2971" y="157" width="10" height="5" fill="none" stroke="#000000" stroke-width="3" pointer-events="none"/><rect x="2986" y="157" width="10" height="5" fill="none" stroke="#000000" stroke-width="3" pointer-events="none"/><rect x="3001" y="157" width="10" height="5" fill="none" stroke="#000000" stroke-width="3" pointer-events="none"/><rect x="3016" y="157" width="10" height="5" fill="none" stroke="#000000" stroke-width="3" pointer-events="none"/><rect x="3090" y="152" width="30" height="20" rx="3" ry="3" fill="none" stroke="#000000" stroke-width="3" pointer-events="none"/><rect x="2801" y="172" width="420" height="20" rx="3" ry="3" fill="none" stroke="#000000" stroke-width="3" pointer-events="none"/><rect x="2841" y="192" width="340" height="20" fill="none" stroke="#000000" stroke-width="3" pointer-events="none"/><rect x="2821" y="192" width="20" height="230" fill="none" stroke="#000000" stroke-width="3" pointer-events="none"/><rect x="3181" y="192" width="20" height="230" fill="none" stroke="#000000" stroke-width="3" pointer-events="none"/><rect x="3221" y="282" width="80" height="140" rx="12" ry="12" fill="none" stroke="#000000" stroke-width="3" pointer-events="none"/><ellipse cx="3286" cy="307" rx="5" ry="5" fill="none" stroke="#000000" stroke-width="3" pointer-events="none"/><rect x="3231" y="303" width="43" height="8" rx="1.2" ry="1.2" fill="none" stroke="#000000" stroke-width="3" pointer-events="none"/><ellipse cx="3261" cy="372" rx="10" ry="10" fill="none" stroke="#000000" stroke-width="3" pointer-events="none"/><rect x="3231" y="392" width="60" height="20" rx="3" ry="3" fill="none" stroke="#000000" stroke-width="3" pointer-events="none"/><rect x="1" y="422" width="3660" height="61" fill="none" stroke="#000000" stroke-width="3" pointer-events="none"/><path d="M 3105 160 L 3104 153" fill="none" stroke="#000000" stroke-width="3" stroke-miterlimit="10" pointer-events="none"/><rect x="861" y="313" width="150" height="109" fill="none" stroke="#000000" stroke-width="3" pointer-events="none"/><path d="M 2356.71 1222.93 L 2356 1142.5 L 2276 1142.5 L 2276 1062.5 L 2196 1062.5 L 2196 982.5 L 2116 982.5 L 2116 902.5 L 2036 902.5 L 2036 822.5 L 1956 822.5 L 1956 742.5 L 1876 742.5 L 1876 702.5 L 1876 662.5 L 1836 662.5 L 1796 662.5 L 1796 622.5 L 1796 582.5 L 1756 582.5 L 1716 582.5 L 1716 542.5 L 1716 502.5 L 1676 502.5 L 1625 502.5 L 1625 462.5 L 1625.29 421.5" fill="none" stroke="#000000" stroke-width="3" stroke-miterlimit="10" pointer-events="none"/><rect x="1" y="1223" width="3660" height="61" fill="none" stroke="#000000" stroke-width="3" pointer-events="none"/><rect x="1" y="2024" width="3660" height="61" fill="none" stroke="#000000" stroke-width="3" pointer-events="none"/><path d="M 1071 1222 L 1072 1264 L 1072 1304 L 1123 1304 L 1163 1304 L 1163 1344 L 1163 1384 L 1203 1384 L 1243 1384 L 1243 1424 L 1243 1464 L 1283 1464 L 1323 1464 L 1323 1504 L 1323 1544 L 1363 1544 L 1403 1544 L 1403 1624 L 1483 1624 L 1483 1704 L 1563 1704 L 1563 1784 L 1643 1784 L 1643 1864 L 1723 1864 L 1723 1944 L 1803 1944 L 1803 2024" fill="none" stroke="#000000" stroke-width="3" stroke-miterlimit="10" pointer-events="none"/><path d="M 2001 74 L 2007.84 94.51 Q 2011 104 2007.84 113.49 L 2004.16 124.51 Q 2001 134 2004.85 143.23 L 2007.92 150.62 Q 2011 158 2006 166 L 2003.5 170 Q 2001 174 1991.51 170.84 L 1980.49 167.16 Q 1971 164 1961.51 167.16 L 1950.49 170.84 Q 1941 174 1931.51 170.84 L 1920.49 167.16 Q 1911 164 1901.51 167.16 L 1890.49 170.84 Q 1881 174 1876 166 L 1873.5 162 Q 1871 158 1874.85 148.77 L 1877.92 141.38 Q 1881 134 1878.57 124.3 L 1873.43 103.7 Q 1871 94 1874.16 84.51 L 1877.84 73.49 Q 1881 64 1876.53 55.06 L 1873.76 49.53 Q 1871 44 1876 39 L 1878.5 36.5 Q 1881 34 1890.91 35.32 L 1901.09 36.68 Q 1911 38 1920.06 33.77 L 1931.94 28.23 Q 1941 24 1950.06 28.23 L 1961.94 33.77 Q 1971 38 1980.91 36.68 L 1991.09 35.32 Q 2001 34 2006 39 L 2008.5 41.5 Q 2011 44 2007.84 53.49 L 2004.16 64.51 Q 2001 74 2001 74 L 2001 74" fill="none" stroke="#000000" stroke-width="3" stroke-miterlimit="10" pointer-events="none"/><rect x="1891" y="48" width="100" height="106" rx="10" ry="10" fill="none" stroke="#000000" stroke-width="3" pointer-events="none"/><path d="M 1952 29 L 1944.77 11.26 Q 1941 2 1937.06 11.19 L 1929 30" fill="none" stroke="#000000" stroke-width="3" stroke-miterlimit="10" pointer-events="none"/><ellipse cx="1941" cy="9" rx="1.5" ry="1.5" fill="none" stroke="#000000" stroke-width="3" pointer-events="none"/><path d="M 1917.5 64 L 1922.5 64 Q 1927.5 64 1932.5 69 L 1935 71.5 Q 1937.5 74 1942.5 69 L 1945 66.5 Q 1947.5 64 1952.5 64 L 1957.5 64" fill="none" stroke="#000000" stroke-width="3" stroke-miterlimit="10" pointer-events="none"/><path d="M 1943.5 88.5 L 1948.5 88.5 Q 1953.5 88.5 1958.5 93.5 L 1961 96 Q 1963.5 98.5 1968.5 93.5 L 1971 91 Q 1973.5 88.5 1978.5 88.5 L 1983.5 88.5" fill="none" stroke="#000000" stroke-width="3" stroke-miterlimit="10" pointer-events="none"/><path d="M 1901 82 L 1906 82 Q 1911 82 1916 87 L 1918.5 89.5 Q 1921 92 1926 87 L 1928.5 84.5 Q 1931 82 1936 82 L 1941 82" fill="none" stroke="#000000" stroke-width="3" stroke-miterlimit="10" pointer-events="none"/><path d="M 1891 124.5 L 1896 124.75 Q 1901 125 1909.57 119.86 L 1915.29 116.43 Q 1921 113 1929.57 118.14 L 1935.29 121.57 Q 1941 125 1949.57 119.86 L 1955.29 116.43 Q 1961 113 1969.57 118.14 L 1975.29 121.57 Q 1981 125 1986 125 L 1991 125" fill="none" stroke="#000000" stroke-width="3" stroke-miterlimit="10" pointer-events="none"/><path d="M 1890.67 126.33 L 1901.8 131.08 Q 1911 135 1919.57 129.86 L 1925.29 126.43 Q 1931 123 1939.57 128.14 L 1945.29 131.57 Q 1951 135 1959.57 129.86 L 1965.29 126.43 Q 1971 123 1979.57 128.14 L 1985.29 131.57 Q 1991 135 1991 135 L 1991 135" fill="none" stroke="#000000" stroke-width="3" stroke-miterlimit="10" pointer-events="none"/><path d="M 1892 143 L 1892 143 L 1897 138.5 Q 1902 134 1910.57 139.14 L 1916.29 142.57 Q 1922 146 1930.57 140.86 L 1936.29 137.43 Q 1942 134 1950.57 139.14 L 1956.29 142.57 Q 1962 146 1970.5 141 L 1974.75 138.5 Q 1979 136 1984.83 139.5 L 1990.67 143" fill="none" stroke="#000000" stroke-width="3" stroke-miterlimit="10" pointer-events="none"/><rect x="2211" y="1" width="180" height="181" rx="7.2" ry="7.2" fill="none" stroke="#000000" stroke-width="3" pointer-events="none"/><rect x="2221" y="12" width="160" height="160" fill="none" stroke="#000000" stroke-width="3" pointer-events="none"/><path d="M 2300.67 173 L 2300.67 13" fill="none" stroke="#000000" stroke-width="3" stroke-miterlimit="10" pointer-events="none"/><path d="M 2380.67 93 L 2220.67 93" fill="none" stroke="#000000" stroke-width="3" stroke-miterlimit="10" pointer-events="none"/><rect x="1491" y="1" width="180" height="181" rx="7.2" ry="7.2" fill="none" stroke="#000000" stroke-width="3" pointer-events="none"/><rect x="1501" y="12" width="160" height="160" fill="none" stroke="#000000" stroke-width="3" pointer-events="none"/><path d="M 1580.67 173 L 1580.67 13" fill="none" stroke="#000000" stroke-width="3" stroke-miterlimit="10" pointer-events="none"/><path d="M 1660.67 93 L 1500.67 93" fill="none" stroke="#000000" stroke-width="3" stroke-miterlimit="10" pointer-events="none"/><path d="M 916 252 Q 958 252 958 292 Q 958 332 916 332 Z" fill="none" stroke="#000000" stroke-width="3" stroke-miterlimit="10" transform="rotate(-90,937,292)" pointer-events="none"/></g></svg>