<!DOCTYPE svg PUBLIC "-//W3C//DTD SVG 1.1//EN" "http://www.w3.org/Graphics/SVG/1.1/DTD/svg11.dtd">
<svg xmlns="http://www.w3.org/2000/svg" xmlns:xlink="http://www.w3.org/1999/xlink" width="3664px" height="2125px" version="1.1"><defs/><g transform="translate(0.5,0.5)"><path d="M 1952 67 L 1944.77 49.26 Q 1941 40 1937.06 49.19 L 1929 68" fill="none" stroke="#000000" stroke-width="3" stroke-miterlimit="10" pointer-events="none"/><rect x="2201" y="1" width="240" height="219" rx="8.76" ry="8.76" fill="none" stroke="#703900" stroke-width="3" pointer-events="none"/><rect x="2211" y="11" width="220" height="199" fill="none" stroke="#703900" stroke-width="3" pointer-events="none"/><rect x="2921" y="60" width="160" height="120" rx="10.8" ry="10.8" fill="none" stroke="#000000" stroke-width="3" pointer-events="none"/><rect x="2931" y="70" width="140" height="100" fill="none" stroke="#000000" stroke-width="3" pointer-events="none"/><path d="M 3001 210 L 2951 210 Q 2941 210 2947.25 202.19 L 2958.75 187.81 Q 2965 180 2975 180 L 3027 180 Q 3037 180 3043.25 187.81 L 3054.75 202.19 Q 3061 210 3051 210 Z" fill="none" stroke="#000000" stroke-width="3" stroke-miterlimit="10" pointer-events="none"/><path d="M 3032 182 Q 3032 182 3032 182" fill="none" stroke="#ff0000" stroke-opacity="0.5" stroke-width="3" stroke-miterlimit="10" pointer-events="none"/><ellipse cx="3032" cy="182" rx="0.5" ry="0.5" fill-opacity="0.5" fill="#ff0000" stroke="#ff0000" stroke-opacity="0.5" stroke-width="3" pointer-events="none"/><path d="M 3032 182 L 3032 182 L 3032 182 L 3032 182 Z" fill-opacity="0.5" fill="#ff0000" stroke="#ff0000" stroke-opacity="0.5" stroke-width="3" stroke-miterlimit="10" pointer-events="none"/><rect x="2886" y="200" width="150" height="10" rx="1.5" ry="1.5" fill="none" stroke="#000000" stroke-width="3" pointer-events="none"/><rect x="2896" y="195" width="10" height="5" fill="none" stroke="#000000" stroke-width="3" pointer-events="none"/><rect x="2911" y="195" width="10" height="5" fill="none" stroke="#000000" stroke-width="3" pointer-events="none"/><rect x="2926" y="195" width="10" height="5" fill="none" stroke="#000000" stroke-width="3" pointer-events="none"/><rect x="2941" y="195" width="10" height="5" fill="none" stroke="#000000" stroke-width="3" pointer-events="none"/><rect x="2956" y="195" width="10" height="5" fill="none" stroke="#000000" stroke-width="3" pointer-events="none"/><rect x="2971" y="195" width="10" height="5" fill="none" stroke="#000000" stroke-width="3" pointer-events="none"/><rect x="2986" y="195" width="10" height="5" fill="none" stroke="#000000" stroke-width="3" pointer-events="none"/><rect x="3001" y="195" width="10" height="5" fill="none" stroke="#000000" stroke-width="3" pointer-events="none"/><rect x="3016" y="195" width="10" height="5" fill="none" stroke="#000000" stroke-width="3" pointer-events="none"/><rect x="3090" y="190" width="30" height="20" rx="3" ry="3" fill="none" stroke="#000000" stroke-width="3" pointer-events="none"/><rect x="2801" y="210" width="420" height="20" rx="3" ry="3" fill="none" stroke="#703900" stroke-width="3" pointer-events="none"/><rect x="2841" y="230" width="340" height="20" fill="none" stroke="#703900" stroke-width="3" pointer-events="none"/><rect x="2821" y="230" width="20" height="230" fill="none" stroke="#613100" stroke-width="3" pointer-events="none"/><rect x="3181" y="230" width="20" height="230" fill="none" stroke="#703900" stroke-width="3" pointer-events="none"/><rect x="3221" y="320" width="80" height="140" rx="12" ry="12" fill="none" stroke="#000000" stroke-width="3" pointer-events="none"/><ellipse cx="3286" cy="345" rx="5" ry="5" fill="none" stroke="#000000" stroke-width="3" pointer-events="none"/><rect x="3231" y="341" width="43" height="8" rx="1.2" ry="1.2" fill="none" stroke="#000000" stroke-width="3" pointer-events="none"/><ellipse cx="3261" cy="410" rx="10" ry="10" fill="none" stroke="#000000" stroke-width="3" pointer-events="none"/><rect x="3231" y="430" width="60" height="20" rx="3" ry="3" fill="none" stroke="#000000" stroke-width="3" pointer-events="none"/><rect x="1" y="460" width="3660" height="61" fill="none" stroke="#000000" stroke-width="3" pointer-events="none"/><path d="M 3105 198 L 3107 192" fill="none" stroke="#000000" stroke-width="3" stroke-miterlimit="10" pointer-events="none"/><rect x="861" y="351" width="150" height="109" fill="none" stroke="#000000" stroke-width="3" pointer-events="none"/><path d="M 2356.71 1260.93 L 2356 1180.5 L 2276 1180.5 L 2276 1100.5 L 2196 1100.5 L 2196 1020.5 L 2116 1020.5 L 2116 940.5 L 2036 940.5 L 2036 860.5 L 1956 860.5 L 1956 780.5 L 1876 780.5 L 1876 740.5 L 1876 700.5 L 1836 700.5 L 1796 700.5 L 1796 660.5 L 1796 620.5 L 1756 620.5 L 1716 620.5 L 1716 580.5 L 1716 540.5 L 1676 540.5 L 1625 540.5 L 1625 500.5 L 1625.29 459.5" fill="none" stroke="#000000" stroke-width="3" stroke-miterlimit="10" pointer-events="none"/><rect x="1" y="1261" width="3660" height="61" fill="none" stroke="#000000" stroke-width="3" pointer-events="none"/><rect x="1" y="2062" width="3660" height="61" fill="none" stroke="#000000" stroke-width="3" pointer-events="none"/><path d="M 1071 1260 L 1072 1302 L 1072 1342 L 1123 1342 L 1163 1342 L 1163 1382 L 1163 1422 L 1203 1422 L 1243 1422 L 1243 1462 L 1243 1502 L 1283 1502 L 1323 1502 L 1323 1542 L 1323 1582 L 1363 1582 L 1403 1582 L 1403 1662 L 1483 1662 L 1483 1742 L 1563 1742 L 1563 1822 L 1643 1822 L 1643 1902 L 1723 1902 L 1723 1982 L 1803 1982 L 1803 2062" fill="none" stroke="#000000" stroke-width="3" stroke-miterlimit="10" pointer-events="none"/><path d="M 2001 112 L 2007.84 132.51 Q 2011 142 2007.84 151.49 L 2004.16 162.51 Q 2001 172 2004.85 181.23 L 2007.92 188.62 Q 2011 196 2006 204 L 2003.5 208 Q 2001 212 1991.51 208.84 L 1980.49 205.16 Q 1971 202 1961.51 205.16 L 1950.49 208.84 Q 1941 212 1931.51 208.84 L 1920.49 205.16 Q 1911 202 1901.51 205.16 L 1890.49 208.84 Q 1881 212 1876 204 L 1873.5 200 Q 1871 196 1874.85 186.77 L 1877.92 179.38 Q 1881 172 1878.57 162.3 L 1873.43 141.7 Q 1871 132 1874.16 122.51 L 1877.84 111.49 Q 1881 102 1876.53 93.06 L 1873.76 87.53 Q 1871 82 1876 77 L 1878.5 74.5 Q 1881 72 1890.91 73.32 L 1901.09 74.68 Q 1911 76 1920.06 71.77 L 1931.94 66.23 Q 1941 62 1950.06 66.23 L 1961.94 71.77 Q 1971 76 1980.91 74.68 L 1991.09 73.32 Q 2001 72 2006 77 L 2008.5 79.5 Q 2011 82 2007.84 91.49 L 2004.16 102.51 Q 2001 112 2001 112 L 2001 112" fill="none" stroke="#c9aa00" stroke-width="3" stroke-miterlimit="10" pointer-events="none"/><rect x="1891" y="86" width="100" height="106" rx="10" ry="10" fill="none" stroke="#c9aa00" stroke-width="3" pointer-events="none"/><ellipse cx="1941" cy="47" rx="1.5000000000000002" ry="1.5000000000000002" fill="none" stroke="#000000" stroke-width="3" pointer-events="none"/><path d="M 1917.5 102 L 1922.5 102 Q 1927.5 102 1932.5 107 L 1935 109.5 Q 1937.5 112 1942.5 107 L 1945 104.5 Q 1947.5 102 1952.5 102 L 1957.5 102" fill="none" stroke="#000000" stroke-width="3" stroke-miterlimit="10" pointer-events="none"/><path d="M 1943.5 126.5 L 1948.5 126.5 Q 1953.5 126.5 1958.5 131.5 L 1961 134 Q 1963.5 136.5 1968.5 131.5 L 1971 129 Q 1973.5 126.5 1978.5 126.5 L 1983.5 126.5" fill="none" stroke="#000000" stroke-width="3" stroke-miterlimit="10" pointer-events="none"/><path d="M 1901 120 L 1906 120 Q 1911 120 1916 125 L 1918.5 127.5 Q 1921 130 1926 125 L 1928.5 122.5 Q 1931 120 1936 120 L 1941 120" fill="none" stroke="#000000" stroke-width="3" stroke-miterlimit="10" pointer-events="none"/><path d="M 1891 162.5 L 1896 162.75 Q 1901 163 1909.57 157.86 L 1915.29 154.43 Q 1921 151 1929.57 156.14 L 1935.29 159.57 Q 1941 163 1949.57 157.86 L 1955.29 154.43 Q 1961 151 1969.57 156.14 L 1975.29 159.57 Q 1981 163 1986 163 L 1991 163" fill="none" stroke="#66b2ff" stroke-width="3" stroke-miterlimit="10" pointer-events="none"/><path d="M 1892 167 L 1901.5 170 Q 1911 173 1919.57 167.86 L 1925.29 164.43 Q 1931 161 1939.57 166.14 L 1945.29 169.57 Q 1951 173 1959.57 167.86 L 1965.29 164.43 Q 1971 161 1979.57 166.14 L 1985.29 169.57 Q 1991 173 1991 173 L 1991 173" fill="none" stroke="#66b2ff" stroke-width="3" stroke-miterlimit="10" pointer-events="none"/><path d="M 1892 181 L 1892 181 L 1897 176.5 Q 1902 172 1910.57 177.14 L 1916.29 180.57 Q 1922 184 1930.57 178.86 L 1936.29 175.43 Q 1942 172 1950.57 177.14 L 1956.29 180.57 Q 1962 184 1970.5 179 L 1974.75 176.5 Q 1979 174 1985.5 178 L 1992 182" fill="none" stroke="#66b2ff" stroke-width="3" stroke-miterlimit="10" pointer-events="none"/><rect x="1431" y="1" width="240" height="219" rx="8.76" ry="8.76" fill="none" stroke="#703900" stroke-width="3" pointer-events="none"/><rect x="1441" y="11" width="220" height="199" fill="none" stroke="#703900" stroke-width="3" pointer-events="none"/><path d="M 1552 212 L 1552 12" fill="none" stroke="#703900" stroke-width="3" stroke-miterlimit="10" pointer-events="none"/><path d="M 1662 112 L 1442 112" fill="none" stroke="#703900" stroke-width="3" stroke-miterlimit="10" pointer-events="none"/><path d="M 916 290 Q 958 290 958 330 Q 958 370 916 370 Z" fill="none" stroke="#000000" stroke-width="3" stroke-miterlimit="10" transform="rotate(-90,937,330)" pointer-events="none"/><path d="M 2321.14 209 L 2321.14 11.86" fill="none" stroke="#703900" stroke-width="3" stroke-miterlimit="10" pointer-events="none"/><path d="M 2429.71 111.86 L 2209.71 111.86" fill="none" stroke="#703900" stroke-width="3" stroke-miterlimit="10" pointer-events="none"/></g></svg>