<!DOCTYPE svg PUBLIC "-//W3C//DTD SVG 1.1//EN" "http://www.w3.org/Graphics/SVG/1.1/DTD/svg11.dtd">
<svg xmlns="http://www.w3.org/2000/svg" xmlns:xlink="http://www.w3.org/1999/xlink" width="3665px" height="2127px" version="1.1"><defs/><g transform="translate(0.5,0.5)"><rect x="1872" y="71" width="141" height="131" rx="6.55" ry="6.55" fill="none" stroke="#ffffff" stroke-width="5" pointer-events="none"/><path d="M 1957 70.29 L 1946.56 49.9 Q 1942 41 1937.61 49.99 L 1927 71.71" fill="none" stroke="#ffffff" stroke-width="5" stroke-miterlimit="10" pointer-events="none"/><rect x="2202" y="2" width="240" height="219" rx="8.76" ry="8.76" fill="none" stroke="#ffffff" stroke-width="5" pointer-events="none"/><rect x="2212" y="12" width="220" height="199" fill="none" stroke="#ffffff" stroke-width="5" pointer-events="none"/><rect x="2889.5" y="122" width="160" height="120" rx="10.8" ry="10.8" fill="none" stroke="#ffffff" stroke-width="5" pointer-events="none"/><rect x="2899.5" y="132" width="140" height="100" fill="none" stroke="#ffffff" stroke-width="5" pointer-events="none"/><path d="M 2969.5 272 L 2919.5 272 Q 2909.5 272 2915.75 264.19 L 2927.25 249.81 Q 2933.5 242 2943.5 242 L 2995.5 242 Q 3005.5 242 3011.75 249.81 L 3023.25 264.19 Q 3029.5 272 3019.5 272 Z" fill="none" stroke="#ffffff" stroke-width="5" stroke-miterlimit="10" pointer-events="none"/><path d="M 2999.86 241.71 Q 2999.86 241.71 2999.86 241.71" fill="none" stroke="#ffffff" stroke-opacity="0.5" stroke-width="5" stroke-miterlimit="10" pointer-events="none"/><ellipse cx="3000" cy="242" rx="0.5" ry="0.5" fill-opacity="0.5" fill="#ffffff" stroke="#ffffff" stroke-opacity="0.5" stroke-width="5" pointer-events="none"/><path d="M 2999.86 241.71 L 2999.86 241.71 L 2999.86 241.71 L 2999.86 241.71 Z" fill-opacity="0.5" fill="#ffffff" stroke="#ffffff" stroke-opacity="0.5" stroke-width="5" stroke-miterlimit="10" pointer-events="none"/><rect x="2837" y="257" width="150" height="15" fill="none" stroke="#ffffff" stroke-width="5" pointer-events="none"/><rect x="2837" y="262" width="150" height="10" rx="1.5" ry="1.5" fill="none" stroke="#ffffff" stroke-width="5" pointer-events="none"/><rect x="2847" y="257" width="10" height="5" fill="none" stroke="#ffffff" stroke-width="5" pointer-events="none"/><rect x="2862" y="257" width="10" height="5" fill="none" stroke="#ffffff" stroke-width="5" pointer-events="none"/><rect x="2877" y="257" width="10" height="5" fill="none" stroke="#ffffff" stroke-width="5" pointer-events="none"/><rect x="2892" y="257" width="10" height="5" fill="none" stroke="#ffffff" stroke-width="5" pointer-events="none"/><rect x="2907" y="257" width="10" height="5" fill="none" stroke="#ffffff" stroke-width="5" pointer-events="none"/><rect x="2922" y="257" width="10" height="5" fill="none" stroke="#ffffff" stroke-width="5" pointer-events="none"/><rect x="2937" y="257" width="10" height="5" fill="none" stroke="#ffffff" stroke-width="5" pointer-events="none"/><rect x="2952" y="257" width="10" height="5" fill="none" stroke="#ffffff" stroke-width="5" pointer-events="none"/><rect x="2967" y="257" width="10" height="5" fill="none" stroke="#ffffff" stroke-width="5" pointer-events="none"/><rect x="3062" y="251" width="30" height="20" rx="3" ry="3" fill="none" stroke="#ffffff" stroke-width="5" pointer-events="none"/><rect x="2807" y="272" width="325" height="20" rx="3" ry="3" fill="none" stroke="#ffffff" stroke-width="5" pointer-events="none"/><rect x="2842" y="292" width="250" height="20" fill="none" stroke="#ffffff" stroke-width="5" pointer-events="none"/><rect x="2822" y="292" width="20" height="169" fill="none" stroke="#ffffff" stroke-width="5" pointer-events="none"/><rect x="3092" y="292" width="20" height="169" fill="none" stroke="#ffffff" stroke-width="5" pointer-events="none"/><rect x="3122" y="322" width="80" height="139" rx="12" ry="12" fill="none" stroke="#ffffff" stroke-width="5" pointer-events="none"/><ellipse cx="3187" cy="346" rx="5" ry="5" fill="none" stroke="#ffffff" stroke-width="5" pointer-events="none"/><rect x="3132" y="342" width="43" height="8" rx="1.2" ry="1.2" fill="none" stroke="#ffffff" stroke-width="5" pointer-events="none"/><ellipse cx="3162" cy="411" rx="10" ry="10" fill="none" stroke="#ffffff" stroke-width="5" pointer-events="none"/><rect x="3132" y="431" width="60" height="20" rx="3" ry="3" fill="none" stroke="#ffffff" stroke-width="5" pointer-events="none"/><rect x="2" y="461" width="3660" height="61" fill="none" stroke="#ffffff" stroke-width="5" pointer-events="none"/><path d="M 3077 261.71 L 3077 251.71" fill="none" stroke="#ffffff" stroke-width="5" stroke-miterlimit="10" pointer-events="none"/><rect x="862" y="352" width="150" height="109" fill="none" stroke="#ffffff" stroke-width="5" pointer-events="none"/><path d="M 2357.71 1261.93 L 2357 1181.5 L 2277 1181.5 L 2277 1101.5 L 2197 1101.5 L 2197 1021.5 L 2117 1021.5 L 2117 941.5 L 2037 941.5 L 2037 861.5 L 1957 861.5 L 1957 781.5 L 1877 781.5 L 1877 741.5 L 1877 701.5 L 1837 701.5 L 1797 701.5 L 1797 661.5 L 1797 621.5 L 1757 621.5 L 1717 621.5 L 1717 581.5 L 1717 541.5 L 1677 541.5 L 1626 541.5 L 1626 501.5 L 1626.29 460.5" fill="none" stroke="#ffffff" stroke-width="5" stroke-miterlimit="10" pointer-events="none"/><rect x="2" y="1262" width="3660" height="61" fill="none" stroke="#ffffff" stroke-width="5" pointer-events="none"/><rect x="2" y="2063" width="3660" height="61" fill="none" stroke="#ffffff" stroke-width="5" pointer-events="none"/><path d="M 1072 1261 L 1073 1303 L 1073 1343 L 1124 1343 L 1164 1343 L 1164 1383 L 1164 1423 L 1204 1423 L 1244 1423 L 1244 1463 L 1244 1503 L 1284 1503 L 1324 1503 L 1324 1543 L 1324 1583 L 1364 1583 L 1404 1583 L 1404 1663 L 1484 1663 L 1484 1743 L 1564 1743 L 1564 1823 L 1644 1823 L 1644 1903 L 1724 1903 L 1724 1983 L 1804 1983 L 1804 2063" fill="none" stroke="#ffffff" stroke-width="5" stroke-miterlimit="10" pointer-events="none"/><rect x="1880" y="79" width="126" height="115" rx="4.6" ry="4.6" fill="none" stroke="#ffffff" stroke-width="5" pointer-events="none"/><ellipse cx="1942" cy="48" rx="1.4999999999999998" ry="1.4999999999999998" fill="none" stroke="#ffffff" stroke-width="5" pointer-events="none"/><path d="M 1919 96.5 L 1924 96.5 Q 1929 96.5 1934 101.5 L 1936.5 104 Q 1939 106.5 1944 101.5 L 1946.5 99 Q 1949 96.5 1954 96.5 L 1959 96.5" fill="none" stroke="#ffffff" stroke-width="5" stroke-miterlimit="10" pointer-events="none"/><path d="M 1952.5 126 L 1957.5 126 Q 1962.5 126 1967.5 131 L 1970 133.5 Q 1972.5 136 1977.5 131 L 1980 128.5 Q 1982.5 126 1987.5 126 L 1992.5 126" fill="none" stroke="#ffffff" stroke-width="5" stroke-miterlimit="10" pointer-events="none"/><path d="M 1897 118.5 L 1902 118.5 Q 1907 118.5 1912 123.5 L 1914.5 126 Q 1917 128.5 1922 123.5 L 1924.5 121 Q 1927 118.5 1932 118.5 L 1937 118.5" fill="none" stroke="#ffffff" stroke-width="5" stroke-miterlimit="10" pointer-events="none"/><path d="M 1879.86 157.43 L 1892.41 161.15 Q 1902 164 1910.57 158.86 L 1916.29 155.43 Q 1922 152 1930.57 157.14 L 1936.29 160.57 Q 1942 164 1950.57 158.86 L 1956.29 155.43 Q 1962 152 1970.57 157.14 L 1976.29 160.57 Q 1982 164 1991.52 160.95 L 2007 156" fill="none" stroke="#ffffff" stroke-width="5" stroke-miterlimit="10" pointer-events="none"/><path d="M 1881.29 171.71 L 1889.14 169.86 Q 1897 168 1904.5 171 L 1908.25 172.5 Q 1912 174 1920.57 168.86 L 1926.29 165.43 Q 1932 162 1940.57 167.14 L 1946.29 170.57 Q 1952 174 1960.57 168.86 L 1966.29 165.43 Q 1972 162 1980.57 167.14 L 1986.29 170.57 Q 1992 174 1999 173 L 2002.5 172.5 Q 2006 172 1999 173 L 1992 174" fill="none" stroke="#ffffff" stroke-width="5" stroke-miterlimit="10" pointer-events="none"/><path d="M 1879.9 187.86 L 1894.26 179.86 Q 1903 175 1911.57 180.14 L 1917.29 183.57 Q 1923 187 1931.57 181.86 L 1937.29 178.43 Q 1943 175 1951.57 180.14 L 1957.29 183.57 Q 1963 187 1971.5 182 L 1975.75 179.5 Q 1980 177 1989.71 179.4 L 2006.57 183.57" fill="none" stroke="#ffffff" stroke-width="5" stroke-miterlimit="10" pointer-events="none"/><rect x="1432" y="2" width="240" height="219" rx="8.76" ry="8.76" fill="none" stroke="#ffffff" stroke-width="5" pointer-events="none"/><rect x="1442" y="12" width="220" height="199" fill="none" stroke="#ffffff" stroke-width="5" pointer-events="none"/><path d="M 1552.71 211.71 L 1552.71 11.71" fill="none" stroke="#ffffff" stroke-width="5" stroke-miterlimit="10" pointer-events="none"/><path d="M 1662.71 111.71 L 1442.71 111.71" fill="none" stroke="#ffffff" stroke-width="5" stroke-miterlimit="10" pointer-events="none"/><path d="M 917 291 Q 959 291 959 331 Q 959 371 917 371 Z" fill="none" stroke="#ffffff" stroke-width="5" stroke-miterlimit="10" transform="rotate(-90,938,331)" pointer-events="none"/><path d="M 2322.14 210 L 2322.14 12.86" fill="none" stroke="#ffffff" stroke-width="5" stroke-miterlimit="10" pointer-events="none"/><path d="M 2430.71 112.86 L 2210.71 112.86" fill="none" stroke="#ffffff" stroke-width="5" stroke-miterlimit="10" pointer-events="none"/><rect x="2013" y="292" width="229" height="169" rx="3.38" ry="3.38" fill="none" stroke="#ffffff" stroke-width="5" pointer-events="none"/><rect x="2023" y="301" width="209" height="30" fill="none" stroke="#ffffff" stroke-width="5" pointer-events="none"/><rect x="2023" y="341" width="209" height="30" fill="none" stroke="#ffffff" stroke-width="5" pointer-events="none"/><rect x="2023" y="381" width="209" height="30" fill="none" stroke="#ffffff" stroke-width="5" pointer-events="none"/><ellipse cx="2128" cy="316" rx="5.5" ry="5.5" fill="none" stroke="#ffffff" stroke-width="5" pointer-events="none"/><ellipse cx="2128" cy="356" rx="5.5" ry="5.5" fill="none" stroke="#ffffff" stroke-width="5" pointer-events="none"/><ellipse cx="2128" cy="397" rx="5.5" ry="5.5" fill="none" stroke="#ffffff" stroke-width="5" pointer-events="none"/><rect x="2023" y="421" width="209" height="30" fill="none" stroke="#ffffff" stroke-width="5" pointer-events="none"/><ellipse cx="2127" cy="436" rx="5.5" ry="5.5" fill="none" stroke="#ffffff" stroke-width="5" pointer-events="none"/><rect x="2252" y="292" width="229" height="169" rx="3.38" ry="3.38" fill="none" stroke="#ffffff" stroke-width="5" pointer-events="none"/><rect x="2262" y="342" width="100" height="110" fill="none" stroke="#ffffff" stroke-width="5" pointer-events="none"/><rect x="2372" y="342" width="100" height="110" fill="none" stroke="#ffffff" stroke-width="5" pointer-events="none"/><ellipse cx="2348" cy="376" rx="5.5" ry="5.5" fill="none" stroke="#ffffff" stroke-width="5" pointer-events="none"/><ellipse cx="2388" cy="377" rx="5.5" ry="5.5" fill="none" stroke="#ffffff" stroke-width="5" pointer-events="none"/><rect x="2263" y="301" width="209" height="31" fill="none" stroke="#ffffff" stroke-width="5" pointer-events="none"/><ellipse cx="2367" cy="317" rx="5.5" ry="5.5" fill="none" stroke="#ffffff" stroke-width="5" pointer-events="none"/></g></svg>