<!DOCTYPE svg PUBLIC "-//W3C//DTD SVG 1.1//EN" "http://www.w3.org/Graphics/SVG/1.1/DTD/svg11.dtd">
<svg xmlns="http://www.w3.org/2000/svg" xmlns:xlink="http://www.w3.org/1999/xlink" width="3006px" height="2125px" version="1.1"><defs/><g transform="translate(0.5,0.5)"><rect x="2.21" y="2" width="3000" height="2120" fill="none" stroke="#ffffff" stroke-width="5" pointer-events="none"/><rect x="2024.5" y="316" width="145" height="103" rx="9.27" ry="9.27" fill="none" stroke="#ffffff" stroke-width="5" pointer-events="none"/><rect x="2034.5" y="326" width="125" height="83" fill="none" stroke="#ffffff" stroke-width="5" pointer-events="none"/><rect x="2" y="621" width="3000" height="61" fill="none" stroke="#ffffff" stroke-width="5" pointer-events="none"/><rect x="230" y="512" width="150" height="109" fill="none" stroke="#ffffff" stroke-width="5" pointer-events="none"/><rect x="2" y="1342" width="3000" height="61" fill="none" stroke="#ffffff" stroke-width="5" pointer-events="none"/><rect x="2" y="2061" width="3000" height="61" fill="none" stroke="#ffffff" stroke-width="5" pointer-events="none"/><path d="M 285 451 Q 327 451 327 491 Q 327 531 285 531 Z" fill="none" stroke="#ffffff" stroke-width="5" stroke-miterlimit="10" transform="rotate(-90,306,491)" pointer-events="none"/><rect x="2432" y="511" width="440" height="110" rx="16.5" ry="16.5" fill="none" stroke="#ffffff" stroke-width="5" pointer-events="none"/><rect x="2432" y="512" width="440" height="80" rx="14.4" ry="14.4" fill="none" stroke="#ffffff" stroke-width="5" pointer-events="none"/><rect x="2037" y="497" width="125" height="25" rx="3.75" ry="3.75" fill="none" stroke="#ffffff" stroke-width="5" pointer-events="none"/><path d="M 2054.43 620.29 L 2061.57 521.71" fill="none" stroke="#ffffff" stroke-width="5" stroke-miterlimit="10" pointer-events="none"/><path d="M 2078.71 621.71 L 2080.14 524.57" fill="none" stroke="#ffffff" stroke-width="5" stroke-miterlimit="10" pointer-events="none"/><path d="M 2153 620.29 L 2141.57 523.14" fill="none" stroke="#ffffff" stroke-width="5" stroke-miterlimit="10" pointer-events="none"/><path d="M 2128.71 621.71 L 2124.43 521.71" fill="none" stroke="#ffffff" stroke-width="5" stroke-miterlimit="10" pointer-events="none"/><rect x="2210" y="1788" width="209" height="21" rx="3.15" ry="3.15" fill="none" stroke="#ffffff" stroke-width="5" pointer-events="none"/><rect x="2243" y="1810" width="20" height="11" rx="1.65" ry="1.65" fill="none" stroke="#ffffff" stroke-width="5" pointer-events="none"/><rect x="2363" y="1810" width="20" height="11" rx="1.65" ry="1.65" fill="none" stroke="#ffffff" stroke-width="5" pointer-events="none"/><path d="M 2278 1787.5 L 2258.5 1787.5 Q 2251 1787.5 2251 1780 L 2251 1741 Q 2251 1733.5 2257.56 1729.86 L 2298.44 1707.14 Q 2305 1703.5 2305 1711 L 2305 1780 Q 2305 1787.5 2297.5 1787.5 Z" fill="none" stroke="#ffffff" stroke-width="5" stroke-miterlimit="10" pointer-events="none"/><rect x="2348" y="1762" width="50" height="25" rx="3.75" ry="3.75" fill="none" stroke="#ffffff" stroke-width="5" pointer-events="none"/><rect x="192" y="1901" width="311" height="160" rx="11.2" ry="11.2" fill="none" stroke="#ffffff" stroke-width="5" pointer-events="none"/><path d="M 2029.5 2061 L 2001 2061 Q 1994.5 2061 1995.2 2054.54 L 2003.13 1981.46 Q 2003.83 1975 2010.33 1975 L 2048.67 1975 Q 2055.17 1975 2055.87 1981.46 L 2063.8 2054.54 Q 2064.5 2061 2058 2061 Z" fill="none" stroke="#ffffff" stroke-width="5" stroke-miterlimit="10" transform="rotate(180,2029.5,2018)" pointer-events="none"/><rect x="2015" y="422" width="165" height="10" rx="5" ry="5" fill="none" stroke="#ffffff" stroke-width="5" pointer-events="none"/><ellipse cx="256" cy="532" rx="9.5" ry="9.5" fill="#ff0000" stroke="#ffffff" stroke-width="5" pointer-events="none"/><ellipse cx="356" cy="534" rx="9.5" ry="9.5" fill="#00ff00" stroke="#ffffff" stroke-width="5" pointer-events="none"/><path d="M 2806 512 L 2762 512 Q 2752 512 2752 502 L 2752 497 Q 2752 492 2761.83 490.18 L 2850.17 473.82 Q 2860 472 2860 482 L 2860 502 Q 2860 512 2850 512 Z" fill="none" stroke="#ffffff" stroke-width="5" stroke-miterlimit="10" pointer-events="none"/><path d="M 1125.2 1341.2 Q 1146 1312 1146 1292.5 Q 1146 1273 1161 1267.5 Q 1176 1262 1216 1276" fill="none" stroke="#ffffff" stroke-width="5" stroke-miterlimit="10" pointer-events="none"/><path d="M 1276 1293 Q 1297 1302 1312 1292 Q 1327 1282 1343 1292 Q 1359 1302 1359 1342.67" fill="none" stroke="#ffffff" stroke-width="5" stroke-miterlimit="10" pointer-events="none"/></g></svg>