<!DOCTYPE svg PUBLIC "-//W3C//DTD SVG 1.1//EN" "http://www.w3.org/Graphics/SVG/1.1/DTD/svg11.dtd">
<svg xmlns="http://www.w3.org/2000/svg" xmlns:xlink="http://www.w3.org/1999/xlink" width="6896px" height="2125px" version="1.1"><defs/><g transform="translate(0.5,0.5)"><rect x="3892.21" y="2" width="3000" height="2120" fill="none" stroke="#ffffff" stroke-width="5" pointer-events="none"/><rect x="2017" y="185.5" width="160" height="120" rx="10.8" ry="10.8" fill="none" stroke="#ffffff" stroke-width="5" pointer-events="none"/><rect x="2027" y="195.5" width="140" height="100" fill="none" stroke="#ffffff" stroke-width="5" pointer-events="none"/><path d="M 2097 335.5 L 2047 335.5 Q 2037 335.5 2043.25 327.69 L 2054.75 313.31 Q 2061 305.5 2071 305.5 L 2123 305.5 Q 2133 305.5 2139.25 313.31 L 2150.75 327.69 Q 2157 335.5 2147 335.5 Z" fill="none" stroke="#ffffff" stroke-width="5" stroke-miterlimit="10" pointer-events="none"/><path d="M 2126.5 305.5 Q 2126.5 305.5 2126.5 305.5" fill="none" stroke="#ffffff" stroke-opacity="0.5" stroke-width="5" stroke-miterlimit="10" pointer-events="none"/><ellipse cx="2127" cy="306" rx="0.5" ry="0.5" fill-opacity="0.5" fill="#ffffff" stroke="#ffffff" stroke-opacity="0.5" stroke-width="5" pointer-events="none"/><path d="M 2126.5 305.5 L 2126.5 305.5 L 2126.5 305.5 L 2126.5 305.5 Z" fill-opacity="0.5" fill="#ffffff" stroke="#ffffff" stroke-opacity="0.5" stroke-width="5" stroke-miterlimit="10" pointer-events="none"/><rect x="2189.5" y="314.5" width="30" height="20" rx="3" ry="3" fill="none" stroke="#ffffff" stroke-width="5" pointer-events="none"/><rect x="1934.5" y="335.5" width="325" height="20" rx="3" ry="3" fill="none" stroke="#ffffff" stroke-width="5" pointer-events="none"/><rect x="1969.5" y="355.5" width="250" height="20" fill="none" stroke="#ffffff" stroke-width="5" pointer-events="none"/><rect x="1949.5" y="355.5" width="20" height="169" fill="none" stroke="#ffffff" stroke-width="5" pointer-events="none"/><rect x="2219.5" y="355.5" width="20" height="169" fill="none" stroke="#ffffff" stroke-width="5" pointer-events="none"/><rect x="2249.5" y="385.5" width="80" height="139" rx="12" ry="12" fill="none" stroke="#ffffff" stroke-width="5" pointer-events="none"/><ellipse cx="2315" cy="410" rx="5" ry="5" fill="none" stroke="#ffffff" stroke-width="5" pointer-events="none"/><rect x="2259.5" y="405.5" width="43" height="8" rx="1.2" ry="1.2" fill="none" stroke="#ffffff" stroke-width="5" pointer-events="none"/><ellipse cx="2290" cy="475" rx="10" ry="10" fill="none" stroke="#ffffff" stroke-width="5" pointer-events="none"/><rect x="2259.5" y="494.5" width="60" height="20" rx="3" ry="3" fill="none" stroke="#ffffff" stroke-width="5" pointer-events="none"/><rect x="2" y="525" width="3000" height="61" fill="none" stroke="#ffffff" stroke-width="5" pointer-events="none"/><path d="M 2204 325.5 L 2204 315.5" fill="none" stroke="#ffffff" stroke-width="5" stroke-miterlimit="10" pointer-events="none"/><rect x="230" y="416" width="150" height="109" fill="none" stroke="#ffffff" stroke-width="5" pointer-events="none"/><rect x="2" y="1246" width="3000" height="61" fill="none" stroke="#ffffff" stroke-width="5" pointer-events="none"/><rect x="2" y="1965" width="3000" height="61" fill="none" stroke="#ffffff" stroke-width="5" pointer-events="none"/><path d="M 285 355 Q 327 355 327 395 Q 327 435 285 435 Z" fill="none" stroke="#ffffff" stroke-width="5" stroke-miterlimit="10" transform="rotate(-90,306,395)" pointer-events="none"/><rect x="2065" y="912" width="160" height="334" rx="11.2" ry="11.2" fill="none" stroke="#ffffff" stroke-width="5" pointer-events="none"/><rect x="2079" y="1091" width="40" height="10" rx="1.5" ry="1.5" fill="none" stroke="#ffffff" stroke-width="5" pointer-events="none"/><rect x="2240" y="1076" width="229" height="169" rx="3.38" ry="3.38" fill="none" stroke="#ffffff" stroke-width="5" pointer-events="none"/><rect x="2250" y="1106" width="209" height="30" fill="none" stroke="#ffffff" stroke-width="5" pointer-events="none"/><rect x="2587" y="1056" width="13" height="20" fill="none" stroke="#ffffff" stroke-width="5" pointer-events="none"/><rect x="2570" y="1044" width="30" height="10" fill="none" stroke="#ffffff" stroke-width="5" pointer-events="none"/><rect x="2612" y="1065" width="10" height="10" rx="1.5" ry="1.5" fill="none" stroke="#ffffff" stroke-width="5" pointer-events="none"/><rect x="2564" y="1065" width="10" height="10" rx="1.5" ry="1.5" fill="none" stroke="#ffffff" stroke-width="5" pointer-events="none"/><rect x="2831" y="936" width="104" height="310" rx="2.08" ry="2.08" fill="none" stroke="#ffffff" stroke-width="5" pointer-events="none"/><rect x="2840" y="946" width="84" height="290" rx="1.68" ry="1.68" fill="none" stroke="#ffffff" stroke-width="5" pointer-events="none"/><ellipse cx="2860" cy="1097" rx="5.5" ry="5.5" fill="none" stroke="#ffffff" stroke-width="5" pointer-events="none"/><rect x="2432" y="415" width="440" height="110" rx="16.5" ry="16.5" fill="none" stroke="#ffffff" stroke-width="5" pointer-events="none"/><rect x="2432" y="416" width="440" height="80" rx="14.4" ry="14.4" fill="none" stroke="#ffffff" stroke-width="5" pointer-events="none"/><rect x="2037" y="401" width="125" height="25" rx="3.75" ry="3.75" fill="none" stroke="#ffffff" stroke-width="5" pointer-events="none"/><path d="M 2054 523 L 2061.5 425.5" fill="none" stroke="#ffffff" stroke-width="5" stroke-miterlimit="10" pointer-events="none"/><path d="M 2079 525.5 L 2079 428" fill="none" stroke="#ffffff" stroke-width="5" stroke-miterlimit="10" pointer-events="none"/><path d="M 2154 523 L 2141.5 428" fill="none" stroke="#ffffff" stroke-width="5" stroke-miterlimit="10" pointer-events="none"/><path d="M 2129 525.5 L 2124 425.5" fill="none" stroke="#ffffff" stroke-width="5" stroke-miterlimit="10" pointer-events="none"/><path d="M 2500 1938 L 2500 1777" fill="none" stroke="#ffffff" stroke-width="5" stroke-miterlimit="10" pointer-events="none"/><path d="M 2509 1937 L 2508 1776" fill="none" stroke="#ffffff" stroke-width="5" stroke-miterlimit="10" pointer-events="none"/><rect x="2210" y="1692" width="209" height="21" rx="3.15" ry="3.15" fill="none" stroke="#ffffff" stroke-width="5" pointer-events="none"/><path d="M 2354.5 939 L 2247 939 Q 2241 939 2243.27 933.44 L 2272.58 861.56 Q 2274.84 856 2280.84 856 L 2428.16 856 Q 2434.16 856 2436.42 861.56 L 2465.73 933.44 Q 2468 939 2462 939 Z" fill="none" stroke="#ffffff" stroke-width="5" stroke-miterlimit="10" pointer-events="none"/><rect x="2244.5" y="1065" width="222" height="5" fill="none" stroke="#ffffff" stroke-width="5" pointer-events="none"/><rect x="2378" y="1024" width="52" height="38" fill="none" stroke="#ffffff" stroke-width="5" pointer-events="none"/><rect x="2282" y="1136" width="140" height="99" fill="none" stroke="#ffffff" stroke-width="5" pointer-events="none"/><rect x="2343.5" y="1085.5" width="22" height="10" fill="none" stroke="#ffffff" stroke-width="5" pointer-events="none"/><ellipse cx="2327" cy="1090" rx="5.5" ry="5.5" fill="none" stroke="#ffffff" stroke-width="5" pointer-events="none"/><ellipse cx="2382" cy="1090" rx="5.5" ry="5.5" fill="none" stroke="#ffffff" stroke-width="5" pointer-events="none"/><path d="M 2305.45 1170.14 L 2402.6 1170.14" fill="none" stroke="#ffffff" stroke-width="5" stroke-miterlimit="10" pointer-events="none"/><path d="M 2304.95 1205.14 L 2402.1 1205.14" fill="none" stroke="#ffffff" stroke-width="5" stroke-miterlimit="10" pointer-events="none"/><rect x="2243" y="1714" width="20" height="11" rx="1.65" ry="1.65" fill="none" stroke="#ffffff" stroke-width="5" pointer-events="none"/><rect x="2363" y="1714" width="20" height="11" rx="1.65" ry="1.65" fill="none" stroke="#ffffff" stroke-width="5" pointer-events="none"/><path d="M 2278 1691.5 L 2258.5 1691.5 Q 2251 1691.5 2251 1684 L 2251 1645 Q 2251 1637.5 2257.56 1633.86 L 2298.44 1611.14 Q 2305 1607.5 2305 1615 L 2305 1684 Q 2305 1691.5 2297.5 1691.5 Z" fill="none" stroke="#ffffff" stroke-width="5" stroke-miterlimit="10" pointer-events="none"/><rect x="2348" y="1666" width="50" height="25" rx="3.75" ry="3.75" fill="none" stroke="#ffffff" stroke-width="5" pointer-events="none"/><ellipse cx="2505" cy="1946" rx="12.000000000000002" ry="8" fill="none" stroke="#ffffff" stroke-width="5" pointer-events="none"/><path d="M 2472 1714 L 2507 1714 Q 2537 1714 2537 1744 Q 2537 1774 2507 1774 L 2472 1774 Z" fill="none" stroke="#ffffff" stroke-width="5" stroke-miterlimit="10" transform="rotate(90,2504.5,1744)" pointer-events="none"/><ellipse cx="2492" cy="1785" rx="5" ry="5" fill="none" stroke="#ffffff" stroke-width="5" pointer-events="none"/><ellipse cx="2517" cy="1784" rx="5" ry="5" fill="none" stroke="#ffffff" stroke-width="5" pointer-events="none"/><rect x="192" y="1805" width="311" height="160" rx="11.2" ry="11.2" fill="none" stroke="#ffffff" stroke-width="5" pointer-events="none"/><path d="M 2378 1021.5 L 2430 1021.5" fill="none" stroke="#ffffff" stroke-width="5" stroke-miterlimit="10" pointer-events="none"/><path d="M 2029.5 1965 L 2001 1965 Q 1994.5 1965 1995.2 1958.54 L 2003.13 1885.46 Q 2003.83 1879 2010.33 1879 L 2048.67 1879 Q 2055.17 1879 2055.87 1885.46 L 2063.8 1958.54 Q 2064.5 1965 2058 1965 Z" fill="none" stroke="#ffffff" stroke-width="5" stroke-miterlimit="10" transform="rotate(180,2029.5,1922)" pointer-events="none"/><rect x="1993.5" y="325.5" width="150" height="10" rx="1.5" ry="1.5" fill="none" stroke="#ffffff" stroke-width="5" pointer-events="none"/><ellipse cx="256" cy="436" rx="9.5" ry="9.5" fill="#ff0000" stroke="#ffffff" stroke-width="5" pointer-events="none"/><ellipse cx="356" cy="438" rx="9.5" ry="9.5" fill="#00ff00" stroke="#ffffff" stroke-width="5" pointer-events="none"/><path d="M 2806 416 L 2762 416 Q 2752 416 2752 406 L 2752 401 Q 2752 396 2761.83 394.18 L 2850.17 377.82 Q 2860 376 2860 386 L 2860 406 Q 2860 416 2850 416 Z" fill="none" stroke="#ffffff" stroke-width="5" stroke-miterlimit="10" pointer-events="none"/><path d="M 2399 1004 Q 2409 1004 2409 1017 Q 2409 1030 2399 1030 Z" fill="none" stroke="#ffffff" stroke-width="5" stroke-miterlimit="10" transform="rotate(-90,2404,1017)" pointer-events="none"/><path d="M 920.2 1245.2 Q 941 1216 941 1196.5 Q 941 1177 956 1171.5 Q 971 1166 1011 1180" fill="none" stroke="#ffffff" stroke-width="5" stroke-miterlimit="10" pointer-events="none"/><path d="M 1071 1197 Q 1092 1206 1107 1196 Q 1122 1186 1138 1196 Q 1154 1206 1154 1245.5" fill="none" stroke="#ffffff" stroke-width="5" stroke-miterlimit="10" pointer-events="none"/><path d="M 1062 1177 Q 1062 1187 1072 1197" fill="none" stroke="#ffffff" stroke-width="2" stroke-miterlimit="10" pointer-events="none"/><path d="M 1052 1197 Q 1061 1193 1066.5 1195 Q 1072 1197 1072 1197" fill="none" stroke="#ffffff" stroke-width="2" stroke-miterlimit="10" pointer-events="none"/><path d="M 1055 1183 Q 1071 1197 1072 1197" fill="none" stroke="#ffffff" stroke-width="2" stroke-miterlimit="10" pointer-events="none"/><path d="M 1026 1189 Q 1022 1181 1010 1179" fill="none" stroke="#ffffff" stroke-width="2" stroke-miterlimit="10" pointer-events="none"/><path d="M 1018 1194 Q 1018 1186 1010 1179" fill="none" stroke="#ffffff" stroke-width="2" stroke-miterlimit="10" pointer-events="none"/><path d="M 1027 1174 Q 1022 1181 1011 1179" fill="none" stroke="#ffffff" stroke-width="2" stroke-miterlimit="10" pointer-events="none"/></g></svg>