<!DOCTYPE svg PUBLIC "-//W3C//DTD SVG 1.1//EN" "http://www.w3.org/Graphics/SVG/1.1/DTD/svg11.dtd">
<svg xmlns="http://www.w3.org/2000/svg" xmlns:xlink="http://www.w3.org/1999/xlink" width="3006px" height="2125px" version="1.1"><defs/><g transform="translate(0.5,0.5)"><rect x="2" y="2" width="3000" height="2120" fill="none" stroke="#000000" stroke-width="5" pointer-events="none"/><rect x="854" y="954" width="233" height="387" fill="none" stroke="#000000" stroke-width="5" pointer-events="none"/><rect x="2017" y="280.5" width="160" height="120" rx="10.8" ry="10.8" fill="none" stroke="#000000" stroke-width="5" pointer-events="none"/><rect x="2027" y="290.5" width="140" height="100" fill="none" stroke="#000000" stroke-width="5" pointer-events="none"/><path d="M 2097 430.5 L 2047 430.5 Q 2037 430.5 2043.25 422.69 L 2054.75 408.31 Q 2061 400.5 2071 400.5 L 2123 400.5 Q 2133 400.5 2139.25 408.31 L 2150.75 422.69 Q 2157 430.5 2147 430.5 Z" fill="none" stroke="#000000" stroke-width="5" stroke-miterlimit="10" pointer-events="none"/><path d="M 2127.67 401 Q 2127.67 401 2127.67 401" fill="none" stroke="#000000" stroke-opacity="0.5" stroke-width="5" stroke-miterlimit="10" pointer-events="none"/><ellipse cx="2128" cy="401" rx="0.5" ry="0.5" fill-opacity="0.5" fill="#000000" stroke="#000000" stroke-opacity="0.5" stroke-width="5" pointer-events="none"/><path d="M 2127.67 401 L 2127.67 401 L 2127.67 401 L 2127.67 401 Z" fill-opacity="0.5" fill="#000000" stroke="#000000" stroke-opacity="0.5" stroke-width="5" stroke-miterlimit="10" pointer-events="none"/><rect x="2189.5" y="409.5" width="30" height="20" rx="3" ry="3" fill="none" stroke="#000000" stroke-width="5" pointer-events="none"/><rect x="1934.5" y="430.5" width="325" height="20" rx="3" ry="3" fill="none" stroke="#000000" stroke-width="5" pointer-events="none"/><rect x="1969.5" y="450.5" width="250" height="20" fill="none" stroke="#000000" stroke-width="5" pointer-events="none"/><rect x="1949.5" y="450.5" width="20" height="169" fill="none" stroke="#000000" stroke-width="5" pointer-events="none"/><rect x="2219.5" y="450.5" width="20" height="169" fill="none" stroke="#000000" stroke-width="5" pointer-events="none"/><rect x="2249.5" y="480.5" width="80" height="139" rx="12" ry="12" fill="none" stroke="#000000" stroke-width="5" pointer-events="none"/><ellipse cx="2314" cy="505" rx="5" ry="5" fill="none" stroke="#000000" stroke-width="5" pointer-events="none"/><rect x="2259.5" y="500.5" width="43" height="8" rx="1.2" ry="1.2" fill="none" stroke="#000000" stroke-width="5" pointer-events="none"/><ellipse cx="2289" cy="570" rx="10" ry="10" fill="none" stroke="#000000" stroke-width="5" pointer-events="none"/><rect x="2259.5" y="589.5" width="60" height="20" rx="3" ry="3" fill="none" stroke="#000000" stroke-width="5" pointer-events="none"/><rect x="2" y="620" width="3000" height="61" fill="none" stroke="#000000" stroke-width="5" pointer-events="none"/><path d="M 2204.33 421 L 2204.33 411" fill="none" stroke="#000000" stroke-width="5" stroke-miterlimit="10" pointer-events="none"/><rect x="230" y="511" width="150" height="109" fill="none" stroke="#000000" stroke-width="5" pointer-events="none"/><rect x="2" y="1341" width="3000" height="61" fill="none" stroke="#000000" stroke-width="5" pointer-events="none"/><rect x="2" y="2060" width="3000" height="61" fill="none" stroke="#000000" stroke-width="5" pointer-events="none"/><path d="M 285 450 Q 327 450 327 490 Q 327 530 285 530 Z" fill="none" stroke="#000000" stroke-width="5" stroke-miterlimit="10" transform="rotate(-90,306,490)" pointer-events="none"/><rect x="1316" y="451" width="229" height="169" rx="3.38" ry="3.38" fill="none" stroke="#000000" stroke-width="5" pointer-events="none"/><rect x="1326" y="460" width="209" height="30" fill="none" stroke="#000000" stroke-width="5" pointer-events="none"/><rect x="1326" y="500" width="209" height="30" fill="none" stroke="#000000" stroke-width="5" pointer-events="none"/><rect x="1326" y="540" width="209" height="30" fill="none" stroke="#000000" stroke-width="5" pointer-events="none"/><ellipse cx="1431" cy="475" rx="5.5" ry="5.5" fill="none" stroke="#000000" stroke-width="5" pointer-events="none"/><ellipse cx="1431" cy="515" rx="5.5" ry="5.5" fill="none" stroke="#000000" stroke-width="5" pointer-events="none"/><ellipse cx="1431" cy="556" rx="5.5" ry="5.5" fill="none" stroke="#000000" stroke-width="5" pointer-events="none"/><rect x="1326" y="580" width="209" height="30" fill="none" stroke="#000000" stroke-width="5" pointer-events="none"/><ellipse cx="1430" cy="595" rx="5.5" ry="5.5" fill="none" stroke="#000000" stroke-width="5" pointer-events="none"/><rect x="1555" y="451" width="229" height="169" rx="3.38" ry="3.38" fill="none" stroke="#000000" stroke-width="5" pointer-events="none"/><rect x="1565" y="501" width="100" height="110" fill="none" stroke="#000000" stroke-width="5" pointer-events="none"/><rect x="1675" y="501" width="100" height="110" fill="none" stroke="#000000" stroke-width="5" pointer-events="none"/><ellipse cx="1651" cy="535" rx="5.5" ry="5.5" fill="none" stroke="#000000" stroke-width="5" pointer-events="none"/><ellipse cx="1691" cy="536" rx="5.5" ry="5.5" fill="none" stroke="#000000" stroke-width="5" pointer-events="none"/><rect x="1566" y="460" width="209" height="31" fill="none" stroke="#000000" stroke-width="5" pointer-events="none"/><ellipse cx="1670" cy="476" rx="5.5" ry="5.5" fill="none" stroke="#000000" stroke-width="5" pointer-events="none"/><rect x="2065" y="1007" width="160" height="334" rx="11.2" ry="11.2" fill="none" stroke="#000000" stroke-width="5" pointer-events="none"/><rect x="2079" y="1186" width="40" height="10" rx="1.5" ry="1.5" fill="none" stroke="#000000" stroke-width="5" pointer-events="none"/><rect x="2240" y="1171" width="229" height="169" rx="3.38" ry="3.38" fill="none" stroke="#000000" stroke-width="5" pointer-events="none"/><rect x="2250" y="1201" width="209" height="30" fill="none" stroke="#000000" stroke-width="5" pointer-events="none"/><rect x="2479" y="1171" width="229" height="169" rx="3.38" ry="3.38" fill="none" stroke="#000000" stroke-width="5" pointer-events="none"/><rect x="2489" y="1181" width="100" height="150" fill="none" stroke="#000000" stroke-width="5" pointer-events="none"/><rect x="2599" y="1181" width="100" height="150" fill="none" stroke="#000000" stroke-width="5" pointer-events="none"/><ellipse cx="2575" cy="1254" rx="5.5" ry="5.5" fill="none" stroke="#000000" stroke-width="5" pointer-events="none"/><ellipse cx="2615" cy="1256" rx="5.5" ry="5.5" fill="none" stroke="#000000" stroke-width="5" pointer-events="none"/><rect x="2587" y="1151" width="13" height="20" fill="none" stroke="#000000" stroke-width="5" pointer-events="none"/><rect x="2570" y="1139" width="30" height="10" fill="none" stroke="#000000" stroke-width="5" pointer-events="none"/><rect x="2612" y="1160" width="10" height="10" rx="1.5" ry="1.5" fill="none" stroke="#000000" stroke-width="5" pointer-events="none"/><rect x="2564" y="1160" width="10" height="10" rx="1.5" ry="1.5" fill="none" stroke="#000000" stroke-width="5" pointer-events="none"/><rect x="2831" y="1031" width="104" height="310" rx="2.08" ry="2.08" fill="none" stroke="#000000" stroke-width="5" pointer-events="none"/><rect x="2840" y="1041" width="84" height="290" rx="1.68" ry="1.68" fill="none" stroke="#000000" stroke-width="5" pointer-events="none"/><ellipse cx="2860" cy="1192" rx="5.5" ry="5.5" fill="none" stroke="#000000" stroke-width="5" pointer-events="none"/><path d="M 1883 619 L 1854.5 619 Q 1848 619 1848.7 612.54 L 1856.63 539.46 Q 1857.33 533 1863.83 533 L 1902.17 533 Q 1908.67 533 1909.37 539.46 L 1917.3 612.54 Q 1918 619 1911.5 619 Z" fill="none" stroke="#000000" stroke-width="5" stroke-miterlimit="10" transform="rotate(180,1883,576)" pointer-events="none"/><rect x="2432" y="510" width="440" height="110" rx="16.5" ry="16.5" fill="none" stroke="#000000" stroke-width="5" pointer-events="none"/><path d="M 2800 510 L 2770 510 Q 2760 510 2765.34 501.55 L 2768.67 496.27 Q 2772 491 2781.45 487.74 L 2852.55 463.26 Q 2862 460 2862 470 L 2862 500 Q 2862 510 2852 510 L 2800 510" fill="none" stroke="#000000" stroke-width="5" stroke-miterlimit="10" pointer-events="none"/><rect x="2432" y="511" width="440" height="80" rx="14.4" ry="14.4" fill="none" stroke="#000000" stroke-width="5" pointer-events="none"/><rect x="2037" y="496" width="125" height="25" rx="3.75" ry="3.75" fill="none" stroke="#000000" stroke-width="5" pointer-events="none"/><path d="M 2054.33 617.67 L 2061 521" fill="none" stroke="#000000" stroke-width="5" stroke-miterlimit="10" pointer-events="none"/><path d="M 2077.67 621 L 2081 524.33" fill="none" stroke="#000000" stroke-width="5" stroke-miterlimit="10" pointer-events="none"/><path d="M 2154.33 617.67 L 2141 521" fill="none" stroke="#000000" stroke-width="5" stroke-miterlimit="10" pointer-events="none"/><path d="M 2127.67 621 L 2124.33 521" fill="none" stroke="#000000" stroke-width="5" stroke-miterlimit="10" pointer-events="none"/><rect x="1857" y="1885" width="283" height="30" fill="none" stroke="#000000" stroke-width="5" pointer-events="none"/><rect x="1884" y="1915" width="25" height="144" fill="none" stroke="#000000" stroke-width="5" pointer-events="none"/><rect x="2191" y="1890" width="229" height="169" rx="3.38" ry="3.38" fill="none" stroke="#000000" stroke-width="5" pointer-events="none"/><rect x="2201" y="1899" width="209" height="30" fill="none" stroke="#000000" stroke-width="5" pointer-events="none"/><rect x="2201" y="1939" width="209" height="30" fill="none" stroke="#000000" stroke-width="5" pointer-events="none"/><ellipse cx="2306" cy="1914" rx="5.5" ry="5.5" fill="none" stroke="#000000" stroke-width="5" pointer-events="none"/><ellipse cx="2306" cy="1954" rx="5.5" ry="5.5" fill="none" stroke="#000000" stroke-width="5" pointer-events="none"/><rect x="2201" y="1980" width="209" height="69" fill="none" stroke="#000000" stroke-width="5" pointer-events="none"/><ellipse cx="2305" cy="2015" rx="5.5" ry="5.5" fill="none" stroke="#000000" stroke-width="5" pointer-events="none"/><rect x="2084" y="1916" width="25" height="144" fill="none" stroke="#000000" stroke-width="5" pointer-events="none"/><path d="M 2500 2033 L 2500 1872" fill="none" stroke="#000000" stroke-width="5" stroke-miterlimit="10" pointer-events="none"/><path d="M 2509 2032 L 2508 1871" fill="none" stroke="#000000" stroke-width="5" stroke-miterlimit="10" pointer-events="none"/><rect x="2210" y="1787" width="209" height="21" rx="3.15" ry="3.15" fill="none" stroke="#000000" stroke-width="5" pointer-events="none"/><path d="M 2354.5 1034 L 2247 1034 Q 2241 1034 2243.27 1028.44 L 2272.58 956.56 Q 2274.84 951 2280.84 951 L 2428.16 951 Q 2434.16 951 2436.42 956.56 L 2465.73 1028.44 Q 2468 1034 2462 1034 Z" fill="none" stroke="#000000" stroke-width="5" stroke-miterlimit="10" pointer-events="none"/><rect x="2280" y="1035" width="7" height="7" fill="none" stroke="#000000" stroke-width="5" pointer-events="none"/><rect x="2266" y="1035" width="7" height="7" fill="none" stroke="#000000" stroke-width="5" pointer-events="none"/><rect x="2244.5" y="1160" width="222" height="5" fill="none" stroke="#000000" stroke-width="5" pointer-events="none"/><rect x="2378" y="1119" width="52" height="38" fill="none" stroke="#000000" stroke-width="5" pointer-events="none"/><rect x="2282" y="1231" width="140" height="99" fill="none" stroke="#000000" stroke-width="5" pointer-events="none"/><rect x="2343.5" y="1180.5" width="22" height="10" fill="none" stroke="#000000" stroke-width="5" pointer-events="none"/><ellipse cx="2327" cy="1185" rx="5.5" ry="5.5" fill="none" stroke="#000000" stroke-width="5" pointer-events="none"/><ellipse cx="2382" cy="1185" rx="5.5" ry="5.5" fill="none" stroke="#000000" stroke-width="5" pointer-events="none"/><path d="M 2305.45 1265.14 L 2402.6 1265.14" fill="none" stroke="#000000" stroke-width="5" stroke-miterlimit="10" pointer-events="none"/><path d="M 2304.95 1300.14 L 2402.1 1300.14" fill="none" stroke="#000000" stroke-width="5" stroke-miterlimit="10" pointer-events="none"/><rect x="2243" y="1809" width="20" height="11" rx="1.65" ry="1.65" fill="none" stroke="#000000" stroke-width="5" pointer-events="none"/><rect x="2363" y="1809" width="20" height="11" rx="1.65" ry="1.65" fill="none" stroke="#000000" stroke-width="5" pointer-events="none"/><path d="M 2278 1786.5 L 2258.5 1786.5 Q 2251 1786.5 2251 1779 L 2251 1740 Q 2251 1732.5 2257.56 1728.86 L 2298.44 1706.14 Q 2305 1702.5 2305 1710 L 2305 1779 Q 2305 1786.5 2297.5 1786.5 Z" fill="none" stroke="#000000" stroke-width="5" stroke-miterlimit="10" pointer-events="none"/><rect x="2348" y="1761" width="50" height="25" rx="3.75" ry="3.75" fill="none" stroke="#000000" stroke-width="5" pointer-events="none"/><ellipse cx="2505" cy="2041" rx="12" ry="8" fill="none" stroke="#000000" stroke-width="5" pointer-events="none"/><path d="M 2472 1809 L 2507 1809 Q 2537 1809 2537 1839 Q 2537 1869 2507 1869 L 2472 1869 Z" fill="none" stroke="#000000" stroke-width="5" stroke-miterlimit="10" transform="rotate(90,2504.5,1839)" pointer-events="none"/><ellipse cx="2492" cy="1880" rx="5" ry="5" fill="none" stroke="#000000" stroke-width="5" pointer-events="none"/><ellipse cx="2517" cy="1879" rx="5" ry="5" fill="none" stroke="#000000" stroke-width="5" pointer-events="none"/><path d="M 2588 2032 L 2588 1871" fill="none" stroke="#000000" stroke-width="5" stroke-miterlimit="10" pointer-events="none"/><path d="M 2597 2031 L 2596 1870" fill="none" stroke="#000000" stroke-width="5" stroke-miterlimit="10" pointer-events="none"/><ellipse cx="2593" cy="2040" rx="12" ry="8" fill="none" stroke="#000000" stroke-width="5" pointer-events="none"/><ellipse cx="2579" cy="1879" rx="5" ry="5" fill="none" stroke="#000000" stroke-width="5" pointer-events="none"/><ellipse cx="2605" cy="1878" rx="5" ry="5" fill="none" stroke="#000000" stroke-width="5" pointer-events="none"/><path d="M 2569 1821 L 2569 1861 Q 2569 1871 2579 1871 L 2606 1871 Q 2616 1871 2616 1861 L 2616 1821" fill="none" stroke="#000000" stroke-width="5" stroke-miterlimit="10" pointer-events="none"/><path d="M 2585.5 1868.5 L 2585.5 1820.5" fill="none" stroke="#000000" stroke-width="5" stroke-miterlimit="10" pointer-events="none"/><path d="M 2601.5 1868.5 L 2601.5 1820.5" fill="none" stroke="#000000" stroke-width="5" stroke-miterlimit="10" pointer-events="none"/><rect x="192" y="1900" width="311" height="160" rx="11.2" ry="11.2" fill="none" stroke="#000000" stroke-width="5" pointer-events="none"/><rect x="863" y="963" width="215" height="378" fill="none" stroke="#000000" stroke-width="5" pointer-events="none"/><rect x="879" y="1175" width="29" height="6" rx="0.9" ry="0.9" fill="none" stroke="#000000" stroke-width="5" pointer-events="none"/><ellipse cx="976" cy="1062" rx="51.5" ry="51.5" fill="none" stroke="#000000" stroke-width="5" pointer-events="none"/><path d="M 1082.5 1085 L 1082.5 1065" fill="none" stroke="#000000" stroke-width="5" stroke-miterlimit="10" pointer-events="none"/><path d="M 1082.5 1251.5 L 1082.5 1231.5" fill="none" stroke="#000000" stroke-width="5" stroke-miterlimit="10" pointer-events="none"/><rect x="2678.5" y="1672" width="233" height="387" fill="none" stroke="#000000" stroke-width="5" pointer-events="none"/><rect x="2687.5" y="1681" width="215" height="378" fill="none" stroke="#000000" stroke-width="5" pointer-events="none"/><rect x="2703.5" y="1893" width="29" height="6" fill="none" stroke="#000000" stroke-width="5" pointer-events="none"/><path d="M 2907 1803 L 2907 1783" fill="none" stroke="#000000" stroke-width="5" stroke-miterlimit="10" pointer-events="none"/><path d="M 2907 1969.5 L 2907 1949.5" fill="none" stroke="#000000" stroke-width="5" stroke-miterlimit="10" pointer-events="none"/><rect x="2728" y="1713" width="137" height="128" rx="7.68" ry="7.68" fill="none" stroke="#000000" stroke-width="5" pointer-events="none"/><path d="M 2797.67 1841 L 2797.67 1714.33" fill="none" stroke="#000000" stroke-width="5" stroke-miterlimit="10" pointer-events="none"/><path d="M 2864.33 1777.67 L 2727.67 1777.67" fill="none" stroke="#000000" stroke-width="5" stroke-miterlimit="10" pointer-events="none"/><rect x="677" y="379.5" width="310" height="21" rx="3.15" ry="3.15" fill="none" stroke="#000000" stroke-width="5" pointer-events="none"/><rect x="1390" y="380" width="310" height="21" rx="3.15" ry="3.15" fill="none" stroke="#000000" stroke-width="5" pointer-events="none"/><rect x="150" y="1125.5" width="310" height="21" rx="3.15" ry="3.15" fill="none" stroke="#000000" stroke-width="5" pointer-events="none"/><path d="M 2389 1116.5 L 2391.25 1112 Q 2393.5 1107.5 2403.5 1107.5 L 2409.25 1107.5 Q 2415 1107.5 2417 1112 L 2419 1116.5" fill="none" stroke="#000000" stroke-width="5" stroke-miterlimit="10" pointer-events="none"/><path d="M 2378 1116.5 L 2430 1116.5" fill="none" stroke="#000000" stroke-width="5" stroke-miterlimit="10" pointer-events="none"/><path d="M 2029.5 2060 L 2001 2060 Q 1994.5 2060 1995.2 2053.54 L 2003.13 1980.46 Q 2003.83 1974 2010.33 1974 L 2048.67 1974 Q 2055.17 1974 2055.87 1980.46 L 2063.8 2053.54 Q 2064.5 2060 2058 2060 Z" fill="none" stroke="#000000" stroke-width="5" stroke-miterlimit="10" transform="rotate(180,2029.5,2017)" pointer-events="none"/><path d="M 97 2060 Q 97 1974 194 1979" fill="none" stroke="#000000" stroke-width="5" stroke-miterlimit="10" pointer-events="none"/><path d="M 127 2060 Q 125 1998 193 2004" fill="none" stroke="#000000" stroke-width="5" stroke-miterlimit="10" pointer-events="none"/><path d="M 581 2061 Q 570 1995 504.33 2001" fill="none" stroke="#000000" stroke-width="5" stroke-miterlimit="10" pointer-events="none"/><path d="M 604.33 2061 Q 600 1973 504.33 1977.67" fill="none" stroke="#000000" stroke-width="5" stroke-miterlimit="10" pointer-events="none"/><rect x="1993.5" y="420.5" width="150" height="10" rx="1.5" ry="1.5" fill="none" stroke="#000000" stroke-width="5" pointer-events="none"/><ellipse cx="256" cy="531" rx="9.5" ry="9.5" fill="#ff0000" stroke="#000000" stroke-width="5" pointer-events="none"/><ellipse cx="356" cy="533" rx="9.5" ry="9.5" fill="#00ff00" stroke="#000000" stroke-width="5" pointer-events="none"/><path d="M 2000.35 417.35 L 2135.65 417.35" fill="none" stroke="#000000" stroke-width="5" stroke-miterlimit="10" pointer-events="none"/></g></svg>