<!DOCTYPE svg PUBLIC "-//W3C//DTD SVG 1.1//EN" "http://www.w3.org/Graphics/SVG/1.1/DTD/svg11.dtd">
<svg xmlns="http://www.w3.org/2000/svg" xmlns:xlink="http://www.w3.org/1999/xlink" width="3006px" height="2125px" version="1.1"><defs/><g transform="translate(0.5,0.5)"><rect x="2.21" y="2" width="3000" height="2120" fill="none" stroke="#ffffff" stroke-width="5" pointer-events="none"/><rect x="2024.5" y="314" width="145" height="103" rx="9.27" ry="9.27" fill="none" stroke="#ffffff" stroke-width="5" pointer-events="none"/><rect x="2034.5" y="324" width="125" height="83" fill="none" stroke="#ffffff" stroke-width="5" pointer-events="none"/><rect x="2" y="621" width="3000" height="61" fill="none" stroke="#ffffff" stroke-width="5" pointer-events="none"/><rect x="230" y="512" width="150" height="109" fill="none" stroke="#ffffff" stroke-width="5" pointer-events="none"/><rect x="2" y="1342" width="3000" height="61" fill="none" stroke="#ffffff" stroke-width="5" pointer-events="none"/><rect x="2" y="2061" width="3000" height="61" fill="none" stroke="#ffffff" stroke-width="5" pointer-events="none"/><path d="M 285 451 Q 327 451 327 491 Q 327 531 285 531 Z" fill="none" stroke="#ffffff" stroke-width="5" stroke-miterlimit="10" transform="rotate(-90,306,491)" pointer-events="none"/><rect x="2065" y="1008" width="160" height="334" rx="11.2" ry="11.2" fill="none" stroke="#ffffff" stroke-width="5" pointer-events="none"/><rect x="2079" y="1187" width="40" height="10" rx="1.5" ry="1.5" fill="none" stroke="#ffffff" stroke-width="5" pointer-events="none"/><rect x="2240" y="1172" width="229" height="169" rx="3.38" ry="3.38" fill="none" stroke="#ffffff" stroke-width="5" pointer-events="none"/><rect x="2587" y="1152" width="13" height="20" fill="none" stroke="#ffffff" stroke-width="5" pointer-events="none"/><rect x="2570" y="1140" width="30" height="10" fill="none" stroke="#ffffff" stroke-width="5" pointer-events="none"/><rect x="2612" y="1161" width="10" height="10" rx="1.5" ry="1.5" fill="none" stroke="#ffffff" stroke-width="5" pointer-events="none"/><rect x="2564" y="1161" width="10" height="10" rx="1.5" ry="1.5" fill="none" stroke="#ffffff" stroke-width="5" pointer-events="none"/><rect x="2432" y="511" width="440" height="110" rx="16.5" ry="16.5" fill="none" stroke="#ffffff" stroke-width="5" pointer-events="none"/><rect x="2432" y="512" width="440" height="80" rx="14.4" ry="14.4" fill="none" stroke="#ffffff" stroke-width="5" pointer-events="none"/><rect x="2210" y="1788" width="209" height="21" rx="3.15" ry="3.15" fill="none" stroke="#ffffff" stroke-width="5" pointer-events="none"/><path d="M 2354.5 1035 L 2247 1035 Q 2241 1035 2243.27 1029.44 L 2272.58 957.56 Q 2274.84 952 2280.84 952 L 2428.16 952 Q 2434.16 952 2436.42 957.56 L 2465.73 1029.44 Q 2468 1035 2462 1035 Z" fill="none" stroke="#ffffff" stroke-width="5" stroke-miterlimit="10" pointer-events="none"/><rect x="2343.5" y="1181.5" width="22" height="10" fill="none" stroke="#ffffff" stroke-width="5" pointer-events="none"/><ellipse cx="2327" cy="1186" rx="5.5" ry="5.5" fill="none" stroke="#ffffff" stroke-width="5" pointer-events="none"/><ellipse cx="2382" cy="1186" rx="5.5" ry="5.5" fill="none" stroke="#ffffff" stroke-width="5" pointer-events="none"/><rect x="2243" y="1810" width="20" height="11" rx="1.65" ry="1.65" fill="none" stroke="#ffffff" stroke-width="5" pointer-events="none"/><rect x="2363" y="1810" width="20" height="11" rx="1.65" ry="1.65" fill="none" stroke="#ffffff" stroke-width="5" pointer-events="none"/><path d="M 2278 1787.5 L 2258.5 1787.5 Q 2251 1787.5 2251 1780 L 2251 1741 Q 2251 1733.5 2257.56 1729.86 L 2298.44 1707.14 Q 2305 1703.5 2305 1711 L 2305 1780 Q 2305 1787.5 2297.5 1787.5 Z" fill="none" stroke="#ffffff" stroke-width="5" stroke-miterlimit="10" pointer-events="none"/><rect x="2348" y="1762" width="50" height="25" rx="3.75" ry="3.75" fill="none" stroke="#ffffff" stroke-width="5" pointer-events="none"/><rect x="192" y="1901" width="311" height="160" rx="11.2" ry="11.2" fill="none" stroke="#ffffff" stroke-width="5" pointer-events="none"/><path d="M 2029.5 2061 L 2001 2061 Q 1994.5 2061 1995.2 2054.54 L 2003.13 1981.46 Q 2003.83 1975 2010.33 1975 L 2048.67 1975 Q 2055.17 1975 2055.87 1981.46 L 2063.8 2054.54 Q 2064.5 2061 2058 2061 Z" fill="none" stroke="#ffffff" stroke-width="5" stroke-miterlimit="10" transform="rotate(180,2029.5,2018)" pointer-events="none"/><rect x="2015" y="420" width="165" height="10" rx="5" ry="5" fill="none" stroke="#ffffff" stroke-width="5" pointer-events="none"/><ellipse cx="256" cy="532" rx="9.5" ry="9.5" fill="#ff0000" stroke="#ffffff" stroke-width="5" pointer-events="none"/><ellipse cx="356" cy="534" rx="9.5" ry="9.5" fill="#00ff00" stroke="#ffffff" stroke-width="5" pointer-events="none"/><path d="M 2806 512 L 2762 512 Q 2752 512 2752 502 L 2752 497 Q 2752 492 2761.83 490.18 L 2850.17 473.82 Q 2860 472 2860 482 L 2860 502 Q 2860 512 2850 512 Z" fill="none" stroke="#ffffff" stroke-width="5" stroke-miterlimit="10" pointer-events="none"/><path d="M 1125.2 1341.2 Q 1146 1312 1146 1292.5 Q 1146 1273 1161 1267.5 Q 1176 1262 1216 1276" fill="none" stroke="#ffffff" stroke-width="5" stroke-miterlimit="10" pointer-events="none"/><path d="M 1276 1293 Q 1297 1302 1312 1292 Q 1327 1282 1343 1292 Q 1359 1302 1359 1342.67" fill="none" stroke="#ffffff" stroke-width="5" stroke-miterlimit="10" pointer-events="none"/><path d="M 2242.9 1165.69 L 2464.97 1165.69" fill="none" stroke="#ffffff" stroke-width="8" stroke-miterlimit="10" pointer-events="none"/><path d="M 2306 1166 Q 2403 1166 2403 1261 Q 2403 1356 2306 1356 Z" fill="none" stroke="#ffffff" stroke-width="5" stroke-miterlimit="10" transform="rotate(-90,2354.5,1261)" pointer-events="none"/></g></svg>