<!DOCTYPE svg PUBLIC "-//W3C//DTD SVG 1.1//EN" "http://www.w3.org/Graphics/SVG/1.1/DTD/svg11.dtd">
<svg xmlns="http://www.w3.org/2000/svg" xmlns:xlink="http://www.w3.org/1999/xlink" width="875px" height="395px" version="1.1"><defs/><g transform="translate(0.5,0.5)"><rect x="2" y="58" width="160" height="334" rx="11.2" ry="11.2" fill="none" stroke="#ffffff" stroke-width="5" pointer-events="none"/><rect x="16" y="237" width="40" height="10" rx="1.5" ry="1.5" fill="none" stroke="#ffffff" stroke-width="5" pointer-events="none"/><rect x="177" y="222" width="229" height="169" rx="3.38" ry="3.38" fill="none" stroke="#ffffff" stroke-width="5" pointer-events="none"/><rect x="187" y="252" width="209" height="30" fill="none" stroke="#ffffff" stroke-width="5" pointer-events="none"/><rect x="524" y="202" width="13" height="20" fill="none" stroke="#ffffff" stroke-width="5" pointer-events="none"/><rect x="507" y="190" width="30" height="10" fill="none" stroke="#ffffff" stroke-width="5" pointer-events="none"/><rect x="549" y="211" width="10" height="10" rx="1.5" ry="1.5" fill="none" stroke="#ffffff" stroke-width="5" pointer-events="none"/><rect x="501" y="211" width="10" height="10" rx="1.5" ry="1.5" fill="none" stroke="#ffffff" stroke-width="5" pointer-events="none"/><rect x="768" y="82" width="104" height="310" rx="2.08" ry="2.08" fill="none" stroke="#ffffff" stroke-width="5" pointer-events="none"/><rect x="777" y="92" width="84" height="290" rx="1.68" ry="1.68" fill="none" stroke="#ffffff" stroke-width="5" pointer-events="none"/><ellipse cx="797" cy="243" rx="5.5" ry="5.5" fill="none" stroke="#ffffff" stroke-width="5" pointer-events="none"/><path d="M 291.5 85 L 184 85 Q 178 85 180.27 79.44 L 209.58 7.56 Q 211.84 2 217.84 2 L 365.16 2 Q 371.16 2 373.42 7.56 L 402.73 79.44 Q 405 85 399 85 Z" fill="none" stroke="#ffffff" stroke-width="5" stroke-miterlimit="10" pointer-events="none"/><rect x="219" y="282" width="140" height="99" fill="none" stroke="#ffffff" stroke-width="5" pointer-events="none"/><rect x="280.5" y="231.5" width="22" height="10" fill="none" stroke="#ffffff" stroke-width="5" pointer-events="none"/><ellipse cx="264" cy="236" rx="5.5" ry="5.5" fill="none" stroke="#ffffff" stroke-width="5" pointer-events="none"/><ellipse cx="319" cy="236" rx="5.5" ry="5.5" fill="none" stroke="#ffffff" stroke-width="5" pointer-events="none"/><path d="M 242.45 316.14 L 339.6 316.14" fill="none" stroke="#ffffff" stroke-width="5" stroke-miterlimit="10" pointer-events="none"/><path d="M 241.95 351.14 L 339.1 351.14" fill="none" stroke="#ffffff" stroke-width="5" stroke-miterlimit="10" pointer-events="none"/><path d="M 179.9 215.69 L 401.97 215.69" fill="none" stroke="#ffffff" stroke-width="8" stroke-miterlimit="10" pointer-events="none"/></g></svg>