<!DOCTYPE svg PUBLIC "-//W3C//DTD SVG 1.1//EN" "http://www.w3.org/Graphics/SVG/1.1/DTD/svg11.dtd">
<svg xmlns="http://www.w3.org/2000/svg" xmlns:xlink="http://www.w3.org/1999/xlink" width="151px" height="126px" version="1.1"><defs/><g transform="translate(0.5,0.5)"><path d="M 97 2 L 77 2 Q 67 2 59.93 9.07 L 34.07 34.93 Q 27 42 27 52 L 27 112 Q 27 122 37 122 L 137 122 Q 147 122 147 112 L 147 32 Q 147 22 139.93 14.93 L 133.46 8.46 Q 127 2 117 2 L 97 2" fill="none" stroke="#ffffff" stroke-width="5" stroke-miterlimit="10" pointer-events="none"/><path d="M 116 27 L 129.93 40.93 Q 137 48 137 39 L 137 34.5 Q 137 30 130.13 22.73 L 125.07 17.36 Q 120 12 111.5 12.5 L 107.25 12.75 Q 103 13 109.82 20.31 L 117 28" fill="none" stroke="#ffffff" stroke-width="5" stroke-miterlimit="10" pointer-events="none"/><path d="M 4 6.5 Q 28 5.5 40 16.5" fill="none" stroke="#ffffff" stroke-width="9" stroke-miterlimit="10" pointer-events="none"/><path d="M 87 42 Q 67 82 87 82 Q 107 82 87 42" fill="none" stroke="#ffffff" stroke-width="5" stroke-linejoin="round" stroke-linecap="round" stroke-miterlimit="10" pointer-events="none"/><path d="M 38 9 Q 48 9 48 19 Q 48 29 38 29 Z" fill="none" stroke="#ffffff" stroke-width="4" stroke-miterlimit="10" transform="rotate(-134.7,43,19)" pointer-events="none"/></g></svg>