<!DOCTYPE svg PUBLIC "-//W3C//DTD SVG 1.1//EN" "http://www.w3.org/Graphics/SVG/1.1/DTD/svg11.dtd">
<svg xmlns="http://www.w3.org/2000/svg" xmlns:xlink="http://www.w3.org/1999/xlink" width="901px" height="879px" version="1.1"><defs/><g transform="translate(0.5,0.5)"><path d="M 772 874.5 L 772 834.5 L 732 834.5 L 732 794.5 L 692 794.5 L 692 754.5 L 652 754.5 L 652 714.5 L 612 714.5 L 612 674.5 L 572 674.5 L 572 634.5 L 532 634.5 L 532 594.5 L 492 594.5 L 492 554.5 L 452 554.5 L 452 514.5 L 412 514.5 L 412 474.5 L 372 474.5 L 372 434.5 L 332 434.5 L 332 394.5 L 292 394.5 L 292 354.5 L 252 354.5 L 252 314.5 L 212 314.5 L 212 274.5 L 172 274.5 L 172 234.5 L 132 234.5 L 132 194.5 L 92 194.5 L 92 155" fill="none" stroke="#ffffff" stroke-width="5" stroke-miterlimit="10" pointer-events="none"/><path d="M 5 5 L 82 4.56 Q 92 4.5 99.07 11.57 L 804.93 717.43 Q 812 724.5 822 724.56 L 895 725" fill="none" stroke="#ffffff" stroke-width="10" stroke-miterlimit="10" pointer-events="none"/></g></svg>