<!DOCTYPE svg PUBLIC "-//W3C//DTD SVG 1.1//EN" "http://www.w3.org/Graphics/SVG/1.1/DTD/svg11.dtd">
<svg xmlns="http://www.w3.org/2000/svg" xmlns:xlink="http://www.w3.org/1999/xlink" width="871px" height="879px" version="1.1"><defs/><g transform="translate(0.5,0.5)"><path d="M 762 874.5 L 762 834.5 L 722 834.5 L 722 794.5 L 682 794.5 L 682 754.5 L 642 754.5 L 642 714.5 L 602 714.5 L 602 674.5 L 562 674.5 L 562 634.5 L 522 634.5 L 522 594.5 L 482 594.5 L 482 554.5 L 442 554.5 L 442 514.5 L 402 514.5 L 402 474.5 L 362 474.5 L 362 434.5 L 322 434.5 L 322 394.5 L 282 394.5 L 282 354.5 L 242 354.5 L 242 314.5 L 202 314.5 L 202 274.5 L 162 274.5 L 162 234.5 L 122 234.5 L 122 194.5 L 82 194.5 L 82 155" fill="none" stroke="#ffffff" stroke-width="5" stroke-miterlimit="10" pointer-events="none"/><path d="M 5 5 L 72 4.56 Q 82 4.5 89.07 11.57 L 794.93 717.43 Q 802 724.5 812 724.58 L 865 725" fill="none" stroke="#ffffff" stroke-width="10" stroke-miterlimit="10" pointer-events="none"/><rect x="38" y="143.5" width="30" height="10" rx="1.5" ry="1.5" fill="none" stroke="#ffffff" stroke-width="5" pointer-events="none"/><rect x="38" y="4.5" width="30" height="20" rx="3" ry="3" fill="none" stroke="#ffffff" stroke-width="5" pointer-events="none"/><path d="M 46 144 Q 24 123.5 34 93.5 Q 44 63.5 46 25" fill="none" stroke="#ffffff" stroke-width="5" stroke-miterlimit="10" pointer-events="none"/><path d="M 61 25 Q 63 63.5 70.5 93.5 Q 78 123.5 61 144" fill="none" stroke="#ffffff" stroke-width="5" stroke-miterlimit="10" pointer-events="none"/><rect x="799" y="863.5" width="30" height="10" rx="1.5" ry="1.5" fill="none" stroke="#ffffff" stroke-width="5" pointer-events="none"/><rect x="799" y="724.5" width="30" height="20" rx="3" ry="3" fill="none" stroke="#ffffff" stroke-width="5" pointer-events="none"/><path d="M 807 864 Q 785 843.5 795 813.5 Q 805 783.5 807 745" fill="none" stroke="#ffffff" stroke-width="5" stroke-miterlimit="10" pointer-events="none"/><path d="M 822 745 Q 824 783.5 831.5 813.5 Q 839 843.5 822 864" fill="none" stroke="#ffffff" stroke-width="5" stroke-miterlimit="10" pointer-events="none"/></g></svg>