<!DOCTYPE svg PUBLIC "-//W3C//DTD SVG 1.1//EN" "http://www.w3.org/Graphics/SVG/1.1/DTD/svg11.dtd">
<svg xmlns="http://www.w3.org/2000/svg" xmlns:xlink="http://www.w3.org/1999/xlink" width="881px" height="879px" version="1.1"><defs/><g transform="translate(0.5,0.5)"><path d="M 765 874.5 L 765 834.5 L 725 834.5 L 725 794.5 L 685 794.5 L 685 754.5 L 645 754.5 L 645 714.5 L 605 714.5 L 605 674.5 L 565 674.5 L 565 634.5 L 525 634.5 L 525 594.5 L 485 594.5 L 485 554.5 L 445 554.5 L 445 514.5 L 405 514.5 L 405 474.5 L 365 474.5 L 365 434.5 L 325 434.5 L 325 394.5 L 285 394.5 L 285 354.5 L 245 354.5 L 245 314.5 L 205 314.5 L 205 274.5 L 165 274.5 L 165 234.5 L 125 234.5 L 125 194.5 L 85 194.5 L 85 155" fill="none" stroke="#ffffff" stroke-width="5" stroke-miterlimit="10" pointer-events="none"/><path d="M 25 14.5 L 25 19.5 Q 25 24.5 15 24.5 L 10 24.5 Q 5 24.5 5 14.5 L 5 9.5 Q 5 4.5 15 4.5 L 75 4.5 Q 85 4.5 92.07 11.57 L 797.93 717.43 Q 805 724.5 815 724.5 L 865 724.5 Q 875 724.5 875 734.5 L 875 739.5 Q 875 744.5 865 744.5 L 860 744.5 Q 855 744.5 855 739.5 L 855 734.5" fill="none" stroke="#ffffff" stroke-width="10" stroke-miterlimit="10" pointer-events="none"/><path d="M 138 58.5 L 138 74.5 Q 138 84.5 148 84.5 L 165 84.5" fill="none" stroke="#ffffff" stroke-width="5" stroke-miterlimit="10" pointer-events="none"/><path d="M 218 139.39 L 218 155.39 Q 218 165.39 228 165.39 L 245 165.39" fill="none" stroke="#ffffff" stroke-width="5" stroke-miterlimit="10" pointer-events="none"/><path d="M 538 460.06 L 538 476.06 Q 538 486.06 548 486.06 L 565 486.06" fill="none" stroke="#ffffff" stroke-width="5" stroke-miterlimit="10" pointer-events="none"/><path d="M 618 540.06 L 618 556.06 Q 618 566.06 628 566.06 L 645 566.06" fill="none" stroke="#ffffff" stroke-width="5" stroke-miterlimit="10" pointer-events="none"/><path d="M 698 620.06 L 698 636.06 Q 698 646.06 708 646.06 L 725 646.06" fill="none" stroke="#ffffff" stroke-width="5" stroke-miterlimit="10" pointer-events="none"/><rect x="135" y="222.5" width="30" height="10" rx="1.5" ry="1.5" fill="none" stroke="#ffffff" stroke-width="5" pointer-events="none"/><path d="M 157 84.5 Q 160 142.5 167.5 172.5 Q 175 202.5 158 223" fill="none" stroke="#ffffff" stroke-width="5" stroke-miterlimit="10" pointer-events="none"/><path d="M 143 223 Q 121 202.5 131 172.5 Q 141 142.5 145 84.5" fill="none" stroke="#ffffff" stroke-width="5" stroke-miterlimit="10" pointer-events="none"/><rect x="41" y="143.5" width="30" height="10" rx="1.5" ry="1.5" fill="none" stroke="#ffffff" stroke-width="5" pointer-events="none"/><rect x="41" y="4.5" width="30" height="20" rx="3" ry="3" fill="none" stroke="#ffffff" stroke-width="5" pointer-events="none"/><path d="M 49 144 Q 27 123.5 37 93.5 Q 47 63.5 49 25" fill="none" stroke="#ffffff" stroke-width="5" stroke-miterlimit="10" pointer-events="none"/><path d="M 64 25 Q 66 63.5 73.5 93.5 Q 81 123.5 64 144" fill="none" stroke="#ffffff" stroke-width="5" stroke-miterlimit="10" pointer-events="none"/><path d="M 237 165.39 Q 240 223.39 247.5 253.39 Q 255 283.39 238 303" fill="none" stroke="#ffffff" stroke-width="5" stroke-miterlimit="10" pointer-events="none"/><path d="M 223 303 Q 201 283.39 211 253.39 Q 221 223.39 225 165.39" fill="none" stroke="#ffffff" stroke-width="5" stroke-miterlimit="10" pointer-events="none"/><rect x="455" y="544.06" width="30" height="10" rx="1.5" ry="1.5" fill="none" stroke="#ffffff" stroke-width="5" pointer-events="none"/><path d="M 477 406.06 Q 480 464.06 487.5 494.06 Q 495 524.06 478 544" fill="none" stroke="#ffffff" stroke-width="5" stroke-miterlimit="10" pointer-events="none"/><path d="M 463 544 Q 441 524.06 451 494.06 Q 461 464.06 465 406.06" fill="none" stroke="#ffffff" stroke-width="5" stroke-miterlimit="10" pointer-events="none"/><rect x="535" y="624.06" width="30" height="10" rx="1.5" ry="1.5" fill="none" stroke="#ffffff" stroke-width="5" pointer-events="none"/><path d="M 557 486.06 Q 560 544.06 567.5 574.06 Q 575 604.06 558 624" fill="none" stroke="#ffffff" stroke-width="5" stroke-miterlimit="10" pointer-events="none"/><path d="M 543 624 Q 521 604.06 531 574.06 Q 541 544.06 545 486.06" fill="none" stroke="#ffffff" stroke-width="5" stroke-miterlimit="10" pointer-events="none"/><rect x="615" y="704.06" width="30" height="10" rx="1.5" ry="1.5" fill="none" stroke="#ffffff" stroke-width="5" pointer-events="none"/><path d="M 637 566.06 Q 640 624.06 647.5 654.06 Q 655 684.06 638 704" fill="none" stroke="#ffffff" stroke-width="5" stroke-miterlimit="10" pointer-events="none"/><path d="M 623 704 Q 601 684.06 611 654.06 Q 621 624.06 625 566.06" fill="none" stroke="#ffffff" stroke-width="5" stroke-miterlimit="10" pointer-events="none"/><rect x="695" y="784.06" width="30" height="10" rx="1.5" ry="1.5" fill="none" stroke="#ffffff" stroke-width="5" pointer-events="none"/><path d="M 717 646.06 Q 720 704.06 727.5 734.06 Q 735 764.06 718 784" fill="none" stroke="#ffffff" stroke-width="5" stroke-miterlimit="10" pointer-events="none"/><path d="M 703 784 Q 681 764.06 691 734.06 Q 701 704.06 705 646.06" fill="none" stroke="#ffffff" stroke-width="5" stroke-miterlimit="10" pointer-events="none"/><rect x="802" y="863.5" width="30" height="10" rx="1.5" ry="1.5" fill="none" stroke="#ffffff" stroke-width="5" pointer-events="none"/><rect x="802" y="724.5" width="30" height="20" rx="3" ry="3" fill="none" stroke="#ffffff" stroke-width="5" pointer-events="none"/><path d="M 810 864 Q 788 843.5 798 813.5 Q 808 783.5 810 745" fill="none" stroke="#ffffff" stroke-width="5" stroke-miterlimit="10" pointer-events="none"/><path d="M 825 745 Q 827 783.5 834.5 813.5 Q 842 843.5 825 864" fill="none" stroke="#ffffff" stroke-width="5" stroke-miterlimit="10" pointer-events="none"/></g></svg>