<!DOCTYPE svg PUBLIC "-//W3C//DTD SVG 1.1//EN" "http://www.w3.org/Graphics/SVG/1.1/DTD/svg11.dtd">
<svg xmlns="http://www.w3.org/2000/svg" xmlns:xlink="http://www.w3.org/1999/xlink" width="871px" height="879px" version="1.1"><defs/><g transform="translate(0.5,0.5)"><path d="M 5 5 L 72 4.56 Q 82 4.5 89.07 11.57 L 794.93 717.43 Q 802 724.5 812 724.58 L 865 725" fill="none" stroke="#ffffff" stroke-width="10" stroke-miterlimit="10" pointer-events="none"/><rect x="38" y="143.5" width="30" height="10" rx="1.5" ry="1.5" fill="none" stroke="#ffffff" stroke-width="5" pointer-events="none"/><rect x="38" y="4.5" width="30" height="20" rx="3" ry="3" fill="none" stroke="#ffffff" stroke-width="5" pointer-events="none"/><path d="M 46 144 Q 24 123.5 34 93.5 Q 44 63.5 46 25" fill="none" stroke="#ffffff" stroke-width="5" stroke-miterlimit="10" pointer-events="none"/><path d="M 61 25 Q 63 63.5 70.5 93.5 Q 78 123.5 61 144" fill="none" stroke="#ffffff" stroke-width="5" stroke-miterlimit="10" pointer-events="none"/><rect x="799" y="863.5" width="30" height="10" rx="1.5" ry="1.5" fill="none" stroke="#ffffff" stroke-width="5" pointer-events="none"/><rect x="799" y="724.5" width="30" height="20" rx="3" ry="3" fill="none" stroke="#ffffff" stroke-width="5" pointer-events="none"/><path d="M 807 864 Q 785 843.5 795 813.5 Q 805 783.5 807 745" fill="none" stroke="#ffffff" stroke-width="5" stroke-miterlimit="10" pointer-events="none"/><path d="M 822 745 Q 824 783.5 831.5 813.5 Q 839 843.5 822 864" fill="none" stroke="#ffffff" stroke-width="5" stroke-miterlimit="10" pointer-events="none"/><path d="M 762 874.5 L 762 834.5 L 722 834.5 L 722 795" fill="none" stroke="#ffffff" stroke-width="5" stroke-miterlimit="10" pointer-events="none"/></g></svg>