<!DOCTYPE svg PUBLIC "-//W3C//DTD SVG 1.1//EN" "http://www.w3.org/Graphics/SVG/1.1/DTD/svg11.dtd">
<svg xmlns="http://www.w3.org/2000/svg" xmlns:xlink="http://www.w3.org/1999/xlink" width="134px" height="259px" version="1.1"><defs/><g transform="translate(0.5,0.5)"><path d="M 27 222 L 27.12 222.03 L 25.64 217.69 L 24.44 213.42 L 23.12 209.12 L 22.06 204.89 L 20.79 200.6 Q 18 191 19.5 189.5 L 20.25 188.75 Q 21 188 30.73 190.32 L 30.7 190.2 L 31.89 190.73 L 32.94 190.68 L 34.13 191.19 L 35.29 191.6 L 36.36 191.66 Q 42 193 41 196.5 L 40.5 198.25 Q 40 200 49 196.5 L 49.08 196.7 L 49.98 196.36 L 50.73 195.62 L 51.72 195.5 L 52.56 195 L 53.5 194.75 Q 58 193 61 200.5 L 61.01 200.5 L 61.31 201.25 L 61.42 201.93 L 61.69 202.67 L 62.07 203.45 L 62.5 204.25 Q 64 208 69 200 L 68.88 199.92 L 69.64 199.29 L 70.08 198.45 L 70.67 197.71 L 71.1 196.86 L 71.5 196 Q 74 192 84 192 L 84 191.99 L 86.4 192.21 L 88.8 191.93 L 91.2 191.97 L 93.6 191.78 L 96 192 Q 106 192 98.82 198.96 L 98.81 198.95 L 95.15 202.23 L 91.87 205.91 L 88.37 209.35 L 84.77 212.69 L 81.18 216.04 Q 74 223 64.06 221.87 L 64.08 222.05 L 59.23 221.21 L 54.43 220.93 L 49.57 220.09 L 44.78 219.86 L 39.94 219.13 Q 30 218 30 225 L 29.79 225 L 30.1 225.7 L 29.85 226.4 L 30.03 227.1 L 29.93 227.8 L 30 228.5 Q 30 232 39.08 236.19 L 39.15 236.34 L 40.85 237.14 L 42.37 237.55 L 44.19 238.61 L 45.76 239.12 L 47.54 240.1 Q 56 244 65.95 243 L 65.93 242.78 L 67.98 242.87 L 70.01 242.78 L 71.99 242.19 L 74.04 242.29 L 76.05 242 Q 86 241 93.43 234.31 L 93.6 234.49 L 94.75 233.25 L 95.81 231.9 L 97.34 231.07 L 98.37 229.69 L 99.72 228.66 Q 106 223 109.34 213.58 L 109.49 213.63 L 110.96 209.29 L 112.44 204.96 L 113.96 200.64 L 115.61 196.36 L 117 192" fill="none" stroke="#648a4e" stroke-width="25" stroke-linejoin="round" stroke-linecap="round" stroke-miterlimit="10" pointer-events="none"/><path d="M 7 179 Q 10 220 21 240.5 Q 32 261 83 251.5 Q 134 242 126 180" fill="none" stroke="#3d5430" stroke-width="7" stroke-linejoin="round" stroke-linecap="round" stroke-miterlimit="10" pointer-events="none"/><path d="M 8 178 Q 70 185 126 179" fill="none" stroke="#3d5430" stroke-width="7" stroke-linejoin="round" stroke-linecap="round" stroke-miterlimit="10" pointer-events="none"/><path d="M 24 178 L 24.53 178.05 L 25.23 168.03 L 26.3 158.04 L 27.36 148.05 L 27.56 137.98 L 28.93 128.01 L 29.63 117.99 L 30.09 107.95 L 31.03 97.94 L 31.95 87.94 L 33.09 77.96 Q 34 68 39.89 59.92 L 40.07 60.05 L 44.67 53.65 L 49.16 47.17 L 53.8 40.8 L 58.61 34.55 L 63.11 28.08 Q 69 20 75.68 27.45 L 75.85 27.6 L 78.14 30.21 L 80.91 33.25 L 83.21 35.87 L 85.7 38.65 L 88.32 41.55 Q 95 49 94.26 58.97 L 94.39 58.98 L 94.11 68.43 L 92.26 77.75 L 91.94 87.19 L 92.13 96.67 L 90.74 106.03 Q 90 116 93.21 125.47 L 93.26 125.49 L 95.84 132.92 L 98.47 140.37 L 100.83 147.73 L 103.21 155.1 L 105.79 162.53 Q 109 172 99.05 172.97 L 99.09 173.43 L 88.58 173.46 L 78.19 174.78 L 67.83 176.42 L 57.38 177.13 L 46.95 178.03 Q 37 179 43.44 171.35 L 43.28 171.22 L 47.14 166.7 L 50.95 162.15 L 54.99 157.8 L 58.7 153.16 L 62.56 148.65 Q 69 141 69 131 L 69.6 131 L 68.27 120.5 L 69.02 110 L 68.89 99.5 L 69.27 89 L 69.23 78.5 L 69 68" fill="none" stroke="#8a8a8a" stroke-width="41" stroke-linejoin="round" stroke-linecap="round" stroke-miterlimit="10" pointer-events="none"/><path d="M 54 8 Q 14 48 9 88 Q 4 128 4 143 Q 4 158 4 183 Q 4 208 69 198 Q 134 188 129 173 Q 124 158 119 138 Q 114 118 114 98 Q 114 78 114 58 Q 114 38 84 8" fill="none" stroke="#737373" stroke-width="8" stroke-linejoin="round" stroke-linecap="round" stroke-miterlimit="10" pointer-events="none"/></g></svg>